<mxfile host="app.diagrams.net" modified="2023-05-08T09:29:29.419Z" agent="5.0 (Windows NT 10.0; Win64; x64) AppleWebKit/537.36 (KHTML, like Gecko) Chrome/112.0.0.0 Safari/537.36" etag="-QTnP3T7vfaCdc8ofm3p" version="21.0.6" type="github">
  <diagram name="Page-1" id="zD3uj8BiLYji6ERw4QLx">
    <mxGraphModel dx="794" dy="477" grid="1" gridSize="10" guides="1" tooltips="1" connect="1" arrows="1" fold="1" page="1" pageScale="1" pageWidth="850" pageHeight="1100" math="0" shadow="0">
      <root>
        <mxCell id="0" />
        <mxCell id="1" parent="0" />
        <mxCell id="9cRQzBxTq97ZNu037ttA-6" value="" style="rounded=1;arcSize=10;dashed=1;fillColor=none;gradientColor=none;dashPattern=1 1;strokeWidth=2;" vertex="1" parent="1">
          <mxGeometry x="450" y="205" width="160" height="150" as="geometry" />
        </mxCell>
        <mxCell id="9cRQzBxTq97ZNu037ttA-4" value="" style="rounded=1;arcSize=10;dashed=1;fillColor=none;gradientColor=none;dashPattern=1 1;strokeWidth=2;" vertex="1" parent="1">
          <mxGeometry x="140" y="130" width="530" height="300" as="geometry" />
        </mxCell>
        <mxCell id="9cRQzBxTq97ZNu037ttA-1" value="" style="shape=image;verticalLabelPosition=bottom;labelBackgroundColor=default;verticalAlign=top;aspect=fixed;imageAspect=0;image=data:image/png,iVBORw0KGgoAAAANSUhEUgAAAfsAAAEtCAYAAAAP7MngAAAAAXNSR0IArs4c6QAAAARnQU1BAACxjwv8YQUAAAAJcEhZcwAAFiUAABYlAUlSJPAAAI+NSURBVHhe7f0HlKTXeZgJv91doSt0zmFyzoMBBjPAIBGRACkQJAFSIq0se+XfXkn/nl2t9xxLZ71rH5u7x7s+lGzZsgKTKJISAwgiZwziIE7C5Bw751BdHfZ9btU3bDS6eypX9df3Ae5U9Vfpfve+9w03Fk0pYrFYLBaLxbUUxx8tFovFYrG4lKKRkREb2VssFovF4mJsZG+xWCwWi8uxxt5isVgsFpdjjb3FYrFYLC7HGnuLxWKxWFyONfYWi8Visbgca+wtFovFYnE51thbLBaLxeJyrLG3WCwWi8XlWGNvsVgsFovLscbeYrFYLBaXk9Ptcicmp0wyP2g36c0IFGORpmJ12zz6TxF/JMDk1JRMTsYe7VFIOUDrhaqhfor4b1o9OdeuYf5emEzSxpEtlSnkaqHeRzYoKSnSNur+EnF0C3Jg9fwvoZ0Xa/0jAsWJKuoMkhNjT51T8T0DEbnaFzEKAWVgSY8JLcOo/lPqKZLyYIm0VAWl1FcSf3V++oaj0jMUlcHRqETHbWVkG9PA9Z9Sb7GpI7+nWFT3G7yeEvFoAt6HQcB5y4dCSJfeoTHp1HbePzKpsjkpXr3JhXcX2aGxyi915aVa75909twEhn5wZFzrf0y6BseNrrfE8Kiergl7pbzUK+GAN341d+TE2CMAGJQPzvXJq8c6jJGyMpA+OFAY+8aQV1bUBWX3qmqpDvuMUZkLip1TjS91jcjJq4NytH1IOtXoW7ILCr5U7XnA55GQ36MGv1h8agjNdW+J/u0xhjGgzkBQXwv49RpOQNzwlxRNid/rueYUFCK087MqU4cv9MnJrlHpHh1XR6Z40Rt748BpKexcUSk7llVIqFTrWsvFbaDTR8Ym5JTKwMm2QTmuuiVq9XycKSnXNr59aYWsbghKc3Uw5+0iJ8aervtRrfW/eeOC/LunTxDiaIq/aEkdWpemLQ0huX1VpXx19xJZXhtUozB34aKQqY8jqpDfOt4lPzrYIYfbhmMaabFr5SziVaMe1jIOqJInqvdqHWHYy/hbjX1Qo/3KQInUquPWUOaXmnK/VIZ8ElajH/BOSaBkQqorwlIWCsS/sbBQsZLxyUl5/0invPDhFXn2bJ+c6IuolVPnZJHLlU/rPqR1//Wbm+TRG5uktSYoYTX4bmNMA7quwTF56qOr8pLKwRtnemUUwXChY5M045PSrIHYr+9ukc+sr5VtavRz3buTM2M/MjYpf/X6Bfm3Tx7X9l+8ILsoCwotPgz3uArRtvqg3LG6Sr66Z6ksrwuZruK5oO3xuUPnemXv0Q750f4OOdoxHB9LtHWSFbRYicd9+kg5E81P6t/4vH79x8NYriYi+ZBG9SGNAMoDHgmr8afLv1yNfYUa+5a6CmmoCktV2Cu1OASaCgXHidx3uEOeee+SPHlao/v+MQmqs7LYY/tJjerGtWy+sLlOvrStXm5cWSX1FaWu04FDkXG53DMqf7v3vLxyrEtOd4+o7BdJser7xT52PzExqU68T377lla5e0OtbHW7sf+WRvb/1zMnpVQrfzFMVMkmCApd+CMqRFtrS2XPykr58p5lsuw6xt7hwNke2XukQ352qFNOdoyYiJPvxBmwZBanUTtly0NEnTQzgWkOfNpG6Ob3aL2UqbGv9UxKS22ZtNaGpLkmJCu0nlc1hqTc7zG9AsXqNORaeUznU8b+bL+c0yivViNYnJvFrOyHtY12Rydlz9IyuX9NlTx4Q5OsrA+Lz2URb89gRE5cHZJvvnhW3j7dI1GVB0eOF7teiagM4KD/xu5muXNdjWxqzb2xz6u0cbM2pZayxWy/ZVN6yWH6NZ+HSL54zuQ4wxPq0A1GpuTycJEcuDoqzx3rlb98+7L8h+fPyP/+0+Oy92ib9A4OqqGdMO8vGDT/U5omzQ1/8t4XW2IIJ6QGr61/TD66PCRtfRENfsZdZwA7B6NmnP5Sf0QGoxPinxbUzSyTxZYKAXe5lhbLAoC2T7SLIpwr6f8GZjOPqR0fHBfpGh6XS72jckoV6sEL/fL2yR55Zn+7PPVhu7yjz0/r9f6RqIyNT5pIO+/oPU7pfSzyoE7rWiSgZTE4OiEXtP6u9ozIwFBEy8VdJXO+e1TePddnVvog3yXT5NiSf6yxt1gKGKKC6cmr2rPaV2Im9o2rQf/xB+3yH548K9/Ze0FeP9YlV9SYDI2y5Mka2ULBLLnU+mLctm8oKlc6B6WrZ1SmmLjhIo53DMlLKoOj6p0yvGQNfWFhjb3FssBAhxrjr48+Nfwj+vjelUF5/ECHmRfz5EdX5YPT3dLZN2oUryW/OPUFYxNTcq43KhcHxszEPTcwOhaVtq5eudozIB3qzDCXyBr6wsMae4tlgYIBCRJBadR4Vg372+d65an97fLswXaN8jvl8MV+uYrBj06YyXOW/MLse2blX+iLyKX+qGvqJBKJyuXOfmlXWRtS5zK62GfjFSjW2FssCxwmgFV5S8wksHGNqg5fHZKnPu6S7711SV450imXuobNZieW/GLmYujjpf4xuTIQMRFwQcytSJPhcZHzPVPSMyJmUua1iZmWgiKnS+/++vUL8u+eOmGEngkcRdbVSAuihPHopOxoYJ19YkvvqGx20DtwpldeO9IuPz7YKcc6h8Wb56VblvQxDVn/IbJix7Yqf7FsaimXm5ZXyM7llbK2MSi1ZaVmn4tM1/Vs6+xPDYyZ3QKZoGZFK1Y/RfpPiZYVa63/pwdWSmtVQCqCud86NVNQ78cZQtI6f/Z4j7xzcUDCqn+8KmPF+polBssQG8I++W021dG637LE5evs/+tr5+VPnjgWu8idogUsqTMxiRTJrS1huWdddULG3lHKH53ulVePdsgP97fLofZhWxduQ+u4SGUDh7os4JVfv6FeHtxcLzetrjHbtTJTOpN8wti/q8b+aLcc6R0VwZBl+LcWNFpGMhyVW1dUyT+9e7nctLJSVteH4i8uPOhJek8Dhz9//rS8f7FfzvZHYrrERg6fROu9pcwvv3dLq9y3sU52qAPuSmOPg0cU+s7pHnnu43ZVNOyphUDoi1YmUofZvFq4S8p9sqo2KJuXVUpFyDuvIqeyiezbVBGf7RiRA5cHpG1wzNaD24hVtHnKxiZr6wLGqKxqCJtd+TJt7B25Os+e6Kr0T3SOSldkXBW/ehtWtn4JBaVOeku53+yixvbWdRWFsxNisuDkXewekTeOd8tVNfQDGtRZvT4LWu8V6mTvWFopq+oD0lRZmvMiyomxd+hRo8IkjhK6eKy3nzE49S7gLZEyjaLook0EDiYa1civf3RMIvpocT8BNfJVIZ/Z0Sxb7W9YDTwnKXIWBg6+ZXYYyiz1Fkm41GsmWS5khiMT0jkYMVG+ZW7YEru81GcOufKrzs41OTX24+rRclgC3RfW1GeOIi1QbLzpMUmwYAn68MpRyFNWKS8KMPAoHOQlW+2PTYCMTKlIEelbZoc6wN8yG89kyfHKFdQ5kw1tfc9PTE/H6jsfVZ5TY2+xWCwWiyX3JNbna7FYLBaLZcFijb3FYrFYLC7HGnuLxWKxWFyONfYWi8Visbgca+wtFovFYnE5OZ+Nb1dnZIEi839KmOqwdWKZThry5GDlKjkSXTJbSFhdniQZaFfpkON19rH1mJbMEltjH1u/magwxbY3jW1lbButZTrIki/FTT+QK87Sd9baW64Php4yZ5fZhbLm3ury5KGefZ7ivO0enRNjT6NHCVyOb9FqyQyqT41SLS9lZzSPNFYEJOgvSUiY+oaj0j08Jt0D4zJsT0SzTANZWlIdMDvuoZwShXbeMxiRjoGIytaE2aHRHHi1MOxX3jBGQD32Si33hnJ/0uWeS9AV7f2j0jU4Lr0j4+LRzC8Q/ySvjKsDjAO9tMYv1UGfOZ8i1+TE2BM9RqJT8vzhdvnR25fiVy3pEtEQalClaGVVQLa2lMkD2xqkubJU/PMchONw9MqAfHC2Tz482yuXeyLxqxaLyJYlYXloS4O01gSkuiyxfdsx9OMqjwdUnt441iEfXhmWrqGohNga21r7eSnW5kqb3aJt+O4NddKqjlZVmS/+amFxvmtYnt5/VQ5cGpQz3SNav+qYWGt/XYYnJiUc8MjDW2KH4KysL8u5E5wzY8+pdz/ad1n+84un41ct6TKi5Tqgxn57fVBuW1EhX9y1RJbWBuc99c7hwPk+Vcqd8vTRLjndMSw+lTzbZBc3nJAwplZ7Y2NYPruhRm5ZUyPrm1UpqTK/nmzEhoWmZN/RTnlejcEr5/vlQt+YlHlL7IGK1wEFPKlltE2N/a9srpUdK6tlZUM49mIBMaJR/UeqN/78lXPy8dVB6R6OSpk6c35r7K8LQVllyCu/fnOz3LmuRja3uvyI22+9cUG+8cxJa1QyRERrblA9xt0NQblnVWLn2TscONsjrx3pkL870CHH2ocllIBCt7gbBnOGta0uqfDLLS3l8qgqpttVMflUnq4XnV8z9s559mf75VR/xBj7wuyQLhwo96HohKyrC8pn11bKr+xolZtWVcVeLBDouensH5WXj3fJnz51Ss73jpp5BuiNwuyDKCyG1dhXh33yu/Ejbm9YtgiM/f+lxt6rAsKpT5bUmVRJGVNDH9G0vS4gd6xM3tjvVWP/84+75ETHiDAfy9bI4gZFMK7/BFR+qohCdrXIg1vqpL6iVGWqJPamOfiUsT8/IGcGxqTKVxKTraxrmYXJlLbjcS27UTUGFf4SaakslT+4d4V8bmuDcbBybRDmgsNujlwZkBcOdcg3XzgjvRrlh4Ne8epr80uGBUa0fmvLfPJbu1vlrvU1smVJ7o19XpxuJu1g7G1KL+E0ebUsU21syBoTbLz6xHHAbFq8CRko1TQxMSVt/WNyuXdEOnojMqaKKhXo/i8uiZ30Ndvv2UQSM+YdKC6WkeikHO8clvPdo9I9OGbmQBQKauvlYtewnGsfNKdkIifBkmKT99nvy6bpyehqrWNWTunTvJC3Hja6hSypU6wFmG60xMejE5Px4ylj1ywWorhIdEK61eC39Y3IuBohS3agDaOEfeoU0TPSPTwu5zCqHcMyOlZIxn5KTl/qleOXeqTEUyR+hmfQQfHXLYVP3oy9JX0y0dCw8dbOWxycrkVkom9kXNoHxmRQDT/rqi3ZwRS5/kOX/oQ+XuqJyMn2IRnVci8EeoeicvzqgBzuGJUz/eMypRGqt0CXBlrmxtbYAiYT6pdpefnqVrIUJhh8FENvZFyuqLHvV6MfSbEr35IgWuhsqIMRvdo/KifbBmVIy59elnzTMzQmxy4PysnuiFwdVTnQvNIdbVlY5K3KnAjCkhpM0JtKswz5ON2HjCfZ+rA4MDGsVI1Omxr6Y+0j0tY3JsNqeCzZo2hqSgLaDms8JdI7OGYmzXb0F0a5D4yOy6XOIZlQhy+gVp7tYOyEy4VHTmfj/83rF+TfPXVCvPFJO5bUoMJMl9/EpGmAW2r9ctvKKvnVO5bL8vrwvLPxzWdVsRw62yt7j3bI44e75Gj7sDX2lmsYhaD/MDa7si4ov3/bUtm1slKW1gTN67Mx69I7dRZCZja+OpP6umV+nHKH1fVB+YPPLJedKyqkpXrucs8m1Cc75r1+vEsef++yvH9xQC70R8xEM6u+k4O5UQ1hv/zWLS3ymQ21eZmNn1Nj/19fOy9/+otjGjoUW+OSBqbCKD/WSY1PyJYar9y1ukp+4+41sqqxbF5j7yjlw+d65XU19t/7qEMOtA0RzpmvtFgchUAbXamG5g9vb5U711bLmqby+Cuf5lPG/lSvHOmLSBFL9vR7bCR4fa4VkZYju2L+0z2t8pl1NbJ1aUX8hdzCJjpXekflF/vb5DtvX5JLauj7IhMsp7K6IkmmNChrYZ29Os73b3LxOnsUwZgapucOtcsP3rkU0yKW9CFaUsWwrMonm1rCctemRmmoCIiXhc1zQGWzdOZM+6B8fKFfXj/dIxfYLtfWiWUW6su9ct+GOtncWibLakPxq5/GyJXK45HzffL+iS45cGVILg9GjRNpSRItx5qQV25eWSXbl5abKDAfMEGwUw38e2d65NWjXdI/OmHWi1tdkQJap9UBDco0qt+mdbq6IexOY49Nwus/cWVADp3vjV+1ZIrKsN9sfLK8LijhUk9CQyQ04ss9o3K5e1gGRlQpWyyzEPB5ZGldSJqqSqWu/Pr75F/tHZHzHcPSofJlx/lTx+cpkYqQT8s+ICvr87N1blQN+8DwmFzsGpGzHYN0IsoEytySEqW+EllWF5bGSm1LFf6c947kxNgDMkLjZ4apJbN4WArjLZYA+5DTHZ+AFNGQmWHNemocMYtlNsxkvfgpbImcxIZMjY5NyLg+WsOQOjRhL/vOa9lzCl4+oKeGJZdE+BGtU2rT1mjq0JbYn4BDj/JxqmHOjL3FYrFYLJb8kLeldxaLxWKxWHKDNfYWi8Visbgca+wtFovFYnE51thbLBaLxeJyrLG3WCwWi8XlWGNvsVgsFovLscbeYrFYChxOv2M/DLtO2pIqrllnz/4dbMs7ODpuNoqJNQv2cM71PkUO5GBKPEXF4vEUxzYmKVlcZwKMRWN1MRyd1JIoUs8yvzdPfeDdBvxsbFEiHuoj9lJeYeOS6LiWU2RCxifjR8mqoBTCDuSUGe0q6PVIRcgbv5ofaNFs9MKe7WMqUxwu4rRyN8M9juu9sjFmqNQjpSq7md6Uhd/AoYhouXL4zaTKIXUfK1u3lm9MR3OPxcXFElQdzYY3HDXsxjt2jbGPqsJEUI9eGZBL3cMypcqziErz5Gn3KbxwzQONszrslyW1QfNYskgOkUApd/cPyuWuETndEZFxvWtvnnYCc+AwCk/RlKxsLJOmylIpD/pMw843bFfcPRCRU1cHpX94zFxDbosK4NBwDMCYOiEr60Ny0+rq+NX8gNOBY3S+c0iu9oxKz2BEJlHVediNLKeoho5Exo2RX671gOzWJrB1cTJoNRv9ebmXs/SHtM6jMjGhOhQ5LIA2kg0cHV2i9+jzeWV1Q0iatWyNwXfhLbvG2LNF55BG9Y/vb5N9Z3rVOx032xP6SvJjYNgqdEwFqbnCJxvqw7JrTbXZ4xqPfDFE9+YshIs98uHZHnn5RJ+MTrA3NCdh5w+iZ5/ahQe31suOZRXSXB3S6D7/lYGhP9sxLM8dapNznSMa3WuT5GRITfmGI5RHhsbkMxtr5Z/etzJ+NT8gU0TzH5xWuTrXKwcuDUpEjT/7yLub2FGz1UGP3LaqWrYtK5d1zXOfQJgKBEu9Q1F5/1yfvHikXXqHx802uX4tW/SoG8F5jKhOwImq1LK9d0NML1SGvOYYdrfhGmOPoe8disj/8+JZ+en+dulRT7hE7yyYJxeNo2WGVDFtqAvJHdo4H7mxRW5YXqkGb3GcBU2341tHO+Xpg23yvffbZEiVFWeb55NhVV44W3901zJ5aGuDrG0uy8se1TNp64vIoYsD8t9ePSf7L/TFThYrEMY12hvqjchv3L5U/ux3t8Wv5geM/ZiWzQsHr8qzhzrk8Y+7jBEMuT2yVwb1vpvK/PLlLbVy/+YG2bO+NqNBA0Mjl3pG5OkD7fI3b16UtuGoDOtvoj/z66JnD05pGVaZCmkk36QG/nf2LJXPbq6T5qpS4wC4Dde1khJtAYGSYqlSj7RcU6k+v5ZUKXzi75nXeD7zPdf7zGx/a6KRhPTRvwgM+7wgYVo+Hm1Qs5YlievTX5vtfde7lsDrzJ0QfV6I3hY5YojHO9t9kBK4v0+8lsg1ns98j3Mtfp1DWILlPinVyKfg0HqkzD6RfydNv6+Z95jMtelp5uv8Pf3azL/nuzbf3zOv6fOgJnM0ddeoXOob1ah7MqMHWNGb1DU4Lj1q5DnECP1VqfoTHTZfvq6l6e+ZmWZ7feb3TH8tkWsZ+Az3hp2oUsMe1kdvAeqFTOI6Y099qV0xBr9UFYFHLziJyqR7Zq5r5nn8+myvz3aNx099Rq8xGS+gz32aFjd6/1oGReqEzVaWprziySm72cpzvmvO8+nfPfMaz5mEY4x9IVYJxaR55NRC5x7mupfZrs18fbZrs34m/tq190xL+r95b025X8ryPDnvU1CHKlN0MU/Pv7mH6fc5454/9fo812am6a9fe//0a/H0qc/Mdm3G93zi9WnXnOfoM2YhX+xVY898haExc8JgJtCvNRMe2/tH1eDr9+pzr5ZrcEbeZsuXk5z3zEyJ3h+PM1+f79rM12e7Nt9nePRpCmgKatn69VH/dzWuM/YzUZm9lhzmuuYw1+uzXXOY+TqPfhUiBMvySaaXlVNeMPP5bK/Pdm06M1+HmX8vBJz7mO1eZrvm4Lw+27XpzPb6zPeYuQN6sVEj+5pggRn7aUzP/8x7mP7nrK/Pc21mcpj+3GHm67N9ZrZrDtd7HePEn12DUdPdfrFzSEZGM3NcOGPXI9FxM7GZIaXRiVivwfQ8zZUvh5nvdZLDXNemM/N1mOuag/P6bNemM/P1xYhrjf1sFZ5L+GknWSzJUCjKKKK2nrknVWroKwJuHbldGCAS+F7M5+geGperGuGPRCdiL6YJ853a+sbkZKcae43sfcWLY17RYsOdxt4KqmWBUkhRR1QjvqjmpyLokbJSt894L3xYzjqmUXff8Jhc7ho2RpqlkekyoN9jltx1jEjHgBp7urSttXcd7jT26cu/xZIXGD8tJBiGqtSoPuzC2ckLla6BUTl6sUeudA+bPRrSnag3NBSRzq5B01vQq4Z/SuvcqlD34Tpjj9yT8ILzqTj5bdbaT9hWUzgWjHyYFP+7wCBKi8lufouMPDBeT2zHLPCakFfKAoU7Zr9YcESiazgqhzuG5LSmjv5RmUhRyZh61s+e6RyWQ5cGpE+/N5Mz/Asd2hg6Oqr3zH4NbtfVrjP2TuU59eYozlwn8hEZn4pNclrMUBiUgT46ZZOvZISiQFs0+UNWpsvLzPznKqHwGRtmlL5cI/q6cr+UF+LSuziz3YMbk0PH2JQc6JmQw21Dcr5j2HTtp4Kp5+ikvHdxUF481Sejqq9YklZk2uunf99tyWyqo/pgSGV9cHzC2A0347pNdf5q7wV58UiX2dSFCs0XNCSEaFVNQHYuLZMHtjbJ5iUVi2hTnSl591S3vHCkQ370YbuMRyeksjS/BmNwbEKKNVL9Z3ta5d6NtWZHQ9a15xt20Dt2ZUj++97z8vHlgbxPOUEJIr8lqviXq/z++i0t8R0Hg/F35AfyFNU2tfdoh7ys6ZnjvRLROsUhWQzQW4ldH9AyiOjzL2+qkfs31MqutbVSFvSaZYjJwA55gyPj8n8/e0p+9sFVCWo5Mut/sYzXO+Xp9RRJ0F8iv3pzi9yt5enWTXVcY+yHI+NmX/HHP2yTd8+oElCP1TlTJB+MqyANqyQtq/TLtuaQ7F5XJ6sbyly77/JMUMwHL/TLW6d75LmPO2VCy6LMk98GNKoCgQF7dEej7FpZKS1qvAphu1zGXc91Dss/vHtZTl4djl/NPzimS2pK5eFtjbKqISQVIV/8lfyAExLV6PPAmR5t4z2y90yfWWseKIBthXPJkEahI+pM37myXG5ZUSU3rKw2xj5ZIz2iOpPJfn+pAdILH3dJfchrlgsvNsyae9XLD2ypl50rKqWhIrY/vttwjbEnkmdXqRNXB+VS76hMqaH/ZWd+7lG9ZHqMy9RjrA97pbUmKJVh36LxmlHMV3pG5EpvROsjYox/voNozYIpf3PghTbosqAn6WgoG7AFbP9wVI5cHpSe+EE4hQA7jrHsblldUCr0kZMC8wmtmV3kugbG5ErfqJzvGTWRfgH4azmFaJRhwmqtk4ZynyytC5kT25LVLcgdJy1+rHJ3oXtY/Frfi0Q9fQI2/EINrNRy5CCccKmnIIKATOMaY49xIZLv1yiJfZ4LBYSG3ZmCpd6C2Ic9V+DsDEWi5oCiMfV6+LsQ4ASvkM9jtoE1G5UUQJt2IlYMfqrjr9mAJVjILAcYUVaFcEIgjGlZ0QVNbx5O5GKG+ikPeE1XdLKOK2VHWVKOlOdiJ+SP6wWXOj2uMfYOGJVCuiFHZgrBqOQaUw/xyiiUOink+rCymziObBVSeeUDqibd+ik0ucsXmSjLQsZ1xt5isVgsFssnWXyzMSwWi8ViWWRYY2+xWCwWi8uxxt5isVgsFpdjjb3FYrFYLC7HGnuLxWKxWFyO62bjs+yWbRALDdbAunlZx2w4S3oKsT4snwTZVAldEDJaqG28EDAbxJjH2N8zsWU3NwupDaSC64w922cW2v4QyI7fU+TKXZnmg007zOEuWh9WvRQ27PfEcbbswlboyo6tsPV/ywyoNlOPqmfm2k2PTXTY5MryaRZSG0gF1xj76MSkORTj/fP9crpzxBiafN9YkWagIsB2uT5Z3RiWhnK/awVpJuwK19EzLOe7RuVw27A5UcqzCPfdLnSI8th5cmNTSNbWh6Q8VLg7PRKQ0q5Ptw/K2Y4RudgXMXJVKDv70d5hKg/Z4bepttYKvznPYFldSAOMkmu6JqIR0MDIuHx8ZUhOdQ6b45Qpz3zlFfLx2zMhL+wOyWl/65tDsrQ6YI5zttvlFjDOqXd/9vI5efpwR/63aNXf5qjIVXUB2bG0TB7a1ixbF9Gpdxx8c+Bkp7x0pEP+7sNOGdRQLFxaEnPAXCFx7gBjP6Vt5ddubpYv3NAgS2pDZm/wQiS2veukvHDwqrx0uFNePNEjAypXBXFoCe1dy5KmPYmFzXEb57eDarB2Ly+XO9fVyH1bG6V82uE4PYNj5jjc779/WZ491CHjGuFPaqZNXnNMsfEy8lNO08HQU25hX4lUBjzy1V0t8hl76l3h4xj7//TiWfnFQTX2qhTwXh0YM/eq4HOAhL5k9v12jC5dzfRs8TqY8/BpuPHP8C1R0/U189qkPi/WBsWnUEZ8Vq/pBS7x+qraoOxYUiYP72iR7csW0xG3k/LusU557uN2+d4H7TIanZIKNfaUI3VgyS9UwajWUWulX/YsrZD7ttTLrlXVGtV4CuLY39mYbuyfV4P15NFuGdKINVASP+dA3zOz7QLXCNToogX90wQD3GaJvo/X6YkC2jNv45q+dO07+Mz07+E5+XHg9wJxp4Mz4nkfhhZ55xvIH/AJc03/5LvNMFf8e3g/1/hussNz3gfTr5mzFOKfMXpNvxtdx/ONjUG5fXW1fPGmJqmvKJWgP+a4Xekdkf3n+9XYX5UXjnZKmO/W62P6uU/oMP1ao9f0Aq/Hfjf2W9OvzSxP55pzz055Ot3i0++ZJ3zn9PfNpUf5hV/mIXav06/NVs+z5kHfx+sz65mjuHEWywMl8pu3LpH7N9W51tgXZqtOA6qS+uR0LFOv11Ks0ZkuJPMG/VsfnGQkNn6dz5rP6KPx1uPXP30t9l3XviN+zXk/Dxg2M6TAH4sMDR4kovceofFSDtqwaFw82pT7RNmTRtVgcvwyp5wtrw7KXeuqZV1TyESCC2WoRUVKxlSmjKHUx2tt0vyt/8evm3aozz/R1uPXzd98mfmbx+nPY4+f/lz8ORkw1/Spfj+JU+iqQ95rBvyXnyHN+B79fOz5tDTtmtEX+v+1z5jf0+/Uh098hmv6yNv5zfbBqFzuj0i3PjKsCbzGYTdt3YMmIGJek4pBjGnfEfsd/WfaNfNh88jrXNMn8fc4n5l57ZOf0UfNOzqQ5yE1ouXq9JerU8m9xHRj7DPO9zmfn/l7sfd88tr0ep4vD3PVs+nd0OfO17gZ1xl7vDomw3E8Z0ATjySfKjE8Obw8/uZ9eJokrqH4uEZyPmOOfLzONcZ2rn2PPucar+Flcza043UuXvT+KQNNU5p88bqxKQ9JIxi/r1jGVTanNG1tCctda6vklnW10lIdkpK4LC8YVJ5wTrg30+Y00T6d++XatXaqj9wbafo1/d/oBuczscltsWu+aZ/RQPBae+ZvegavfUavcX1jQ8ikqD6PaPZi8v5L3WO+RxPfw+f5m8853+Nc43d5j/5v/nZ+b6YOI/E+rvE9pN7RCbkyMCZtAxEZUmOP/SLgGB6OSHt7t0wMj0hQ36fN8JflEP9dkqPDTNnE79n5rell7JQDafo1/f8Tn7lW7pqPgMpeY7lPVlcHZJWmoMqjR19ET8+pR+PfPVsepl8jzZcHrn2inrkWv7+Q/l2meeGzbkZv111QXSSMLXU3PQHCxPP4n4bp10jTP3O9azw6TL/mCC7PFz3xQihW1cPT6WVpU+4SEQxzJ0KqdFfXBuSONTWyc0W1VIZ9pitT37JwMJmN5Zh74xlp+v1Ov0ZbdJh5beZnnGvzfYZH87cxyDFj01LllxVarrVBj5nwxWAfb5/+PcDfM79ntu+ezvRrc32Gp0zE6xmKyoXOIfPI3JkRjerbB6LycfuYOgOTJm/oR95vvsN8Q4zp15zn135r+us8iTPzGo/XPhO/BmV+j6ypDcoSLacaLSO66fmw890OPHeuOc+vfd91rs2XB+dv5xqXSZQF3fxcdzOuM/bgVK6lgFBDc607zZJziPBYrjakyr825JWdGtXfsaZWNrWWayTlSjWQdShTJplNqlBj8GvK/NJaHZTmMp+Uq/Nkut5zDMM0fcNROd85LN2DEbPUbmg0qtF+VA52qSMwGuslyIdhqwh4ZHVdQJo1ug/5Yz0Xltxhi9ticTEsb5rQxIQ0uodXqkG6a1WVPLy9SZbU+M2winXA0mNMrf6QOrM+X4nUlXlNF3VFqceMjTsTwnLJyNiEnO+JSPfwuIxppN/eNSyXOgelfXBMhshTjqMhfo1JnyEtk9qKUimNTxq05BZXGnunffGAsstHwqlnrIyJH5YYs5WTTdlNyB+zmxmjbNSIc/eyCrlVjf32ZeVSHfKZ7mc3kOu27kBvFZPzzKz2EpGq0hJZWumXcjVs49r+r+miWb4jG4n6jGg0f743ZuyZjHmqfUjOdIyYlQzopNk+l7VEGekjKxWI7GvDHn2uF6aR67q7lmI/v2hwdWRPZca62XKfmAcb0WiK5R4WZZYysin7CfljGSTLHjc3l8kXb2yWHcsrpTzoc1X3PRMOZ7v/bCWMhf5v1oybGeIsFStiPoRIQ9grYf8vl27FjMvs35PJxIRAlqZR3xc0su8dUWMfnZIPLw/J0faRa5MFYbbPZyOh/RgPL/eVSG2gWOrDYsrIwehozfdsn812ok4WU7eW69bZ/z/Pn5HH97fLCF5s/LW8gJKNTMiq2oDsVOXKutebVlRJWL1bt0RT84HCef3jDnn6YJt8/4M2s/lJqTZ4Sw5RI8RsY5aE3bm6Svasrpbd+lgd9ktomjFaKDjr7J/+6Io8faBdnjrSJcPRCSNXRnHnkOm/xhI3v7bp//TV9bJ7RYUcujgo//hhuzxxuCM2G11TrpQs+ZrSMhrXPP3Ktka5dU2VPP7+VTl8dUAGNfggL8xmzxkqgwGtm3U1pXLfphr5+p4W2Xe6T1483CUvHu2WtuGolORRL7DxWdhbYiYM/tZtS+X+zXadfcFDcyIhyGZTG5IKWd6S5oMxUpI62/G1uHmYsZM3UHKxSKJSE8t9Zi0nm7KTtAZIVepcrqoLyu3ramXP2mppqgosSEMPelsmFU+Tq4Am5GzWMshiYkIehrPIU2KWNFbpY8Dnk1CgVBorA1Jd7jNj0yUaTfPe2b4jG8n8lioc9M6FriF560S3XOoeNvMHvGrA6M2Z7XPZTIzX14W90lhWKlVlYfFrOaGfyaN3lvfnMpk61EcVKqOzCcT4z424JrIfjYzJ8MiIvHCsTw5eHv7EeFle4MfVwDeV+WWFKtvNS8vNTF2zK5Q7ZekTEIWdvDooRy8PyIGL/TLEVHBtSJZcofKn/7dWlsrq+pCsb+ZshljEslDlj+aM03zkcr/K1aA+DuRfrvhpzRNOxyM7mmR1Y0hGIhPy/rk+Tb2mh5Hd3HJKXPcwbyCgUXOvRs8RJm6wsDznTJmlfkxa3NhSJtuWV8mJqwNyWHXC8bYh6deyymv9aVmxPj+oztqetbWyqSUsZVpurPV3G64x9uPj4xKJRORcz7h0Do3Hr+afMo2iqkIeqVWvtlD3HM8G6Bv24+4aGpNOfcy5wrMYmB3eVO6XYGnhHnCTDEiRI1ddA1EZw4gVAHTX41RVh2MD0h0Do3K1N2K2znW2w12sUDZVQSbn+aRGZbFX6w+d0KN62jgheYY5BfR4tFaXmjzSE+HGuMQ1xh7YYpKIspDalukh0n9Ml5ELBWg+nG0oicYs+cHIntp40+0cv7bQKVS5IhqkvCGmh/Lcu1hAxHQgnQtFsfpTG5+PZYnzQRc++XOrmnaVsbdYLBaLxfJpFn6/nsVisVgslnmxxt5isVgsFpdjjb3FYrFYLC7HGnuLxWKxWFyONfYWi8Visbgca+wtFovFYnE51thbLBaLxeJy3LOD3sSkRKKT0jYQkd6hcZmYnDSb7OQbticNlpZIbchvdtArKXHvpg3Toez7B0elZ3hMOgYntD7Us7SuZc5A9Cnz6rBX6st8Eg4s/B30uCc2YunQNt49OCYDIxNGzvItV2wQw6Yxy+uCZge9mW2cw3sGR6LSrvnuGRyPb3IUf9FlcOd+b7FUBj1SVx5QmYvtNw/UH/XVFd8BcTgyYfR2vuGsBfLYUOGTqqDP5N/ZHMlNuMbYO6fevXmqT45cGZDRSNSc3ZxX9Odry/zSWhOU7UsrZZk+lvrcuRXjTHC2Tl3slI8v9Mm+C6PmuF+PNnxLbmB3uWhUZHNrmdy8skqWqSGqmH626AKEXemiahzeO9MrBy/0y9n2IRlXOcu3XE2Mq2yzN/6NLbJ1WYU5GGd6G+9Tw3auc1j2neqRQ5cGxOvBwLiwLai+Y2vcuqBX1jSVy641NVKmz/3x+sFRG1c98NH5PjmgeoEDejD4+Y5+fBxm5PPKrasqZXNLWCo1MGPLXLfhOmP/vbcuy8vHu6V3NJq/Pakd4VXBXl4dkK2tYfnsliZVvOWLxtjjsb93okP2Hu2Upw52S59GN8Wctmbc+/ibLNlBo5Ip/W9S5a9KDfySqoA8tLlOblpeIUvV4eTM84WIMfYqR68d7ZDXjnXJ66d6pX9sQopRzPmSK23Mk5qHsEaH/+oLa+XeTXWfOuyqbziqhm1Evv/uZXnyQLsZOy3iH33fgm8P3Cj3iq7VewlqXdy+slJuW1sjt62vk6C2+U9E9vrfG6oTXtU6fPNEr7Rr2QhH3Oa6HMgSedd8B70lUlnqka/sbJI719VIfXmpie7dhuuM/X964Yw8/lG79KrHOIYAxmURQZqKydysFF3n9dmY8zMIN6WqimldbUBuVm//sV2t5jz7xWTsXzvcIU8faJMfvHdFeqMagXEQkFEKs5dbMnVg3pbA+/lOSPh785iHjOXVEbB4WYdUmT68pU7u21Bnzjev1GhrIZ7XjbGnS/yFg1fl2YPt8vjhLulRQ+tBMcfvdTayVqf6nikt6wnVNWX6+M1f32JOvpvZjT8UGZeO/jH5qzfOy/ffuSw9auCiatw81MEsRi6pPCiZep9DouXFW7h/81zLf0pThcra125qlAc318suNfj+WeTspYNt8vT+q/Lk/g65NBSVouAv9YLD9fKQaB4dPvX+aW2kTB2U2oBXfu+OpfLg1nrXnmfvOmP/zZfPydMHOySiSmBCr0+p91akDYqqnZzubk/jl6+bv/jnupjz8xEgfc5vfAL+1BdoACuqS2VbS1geualVdiyvXFTG/s0jauwPt8v3PuxQJT0h5fEGNGuZ6dXiucpzFhKtM94HiXxn6nmY/72J5iGZvDq/jQKLPZuG86e5ETUqeoEx1B1LK+SRGxpkU2uZOW55ofEJY3+oQx4/2i2j+ne5iQzjb/oU2ZerwbFxc3LaN391kzyyvfFTxp6u60h0Ql441K6R/VV5+Uy/dKvBryLf+saZ9ZdKHuYj0feB+W3KS9863/t/mcfYe4r1b34FR/K3b2mRezbUyKrGMtPLMROM/bOaXjzWI21aDl4tB37TwfnuWWXbkIE65UG/AB0d1t+vDnjka7e0yt0ba11r7F3XV0EdYkwRMp8+mZ78erczr5mkjZNH/8zriaT4Zz+RVADVppvnjGG56cSxZDD3TUL5mTKJpdnK+dq12cpznpRInfGeOet+Wko9D0l89xyJ70jkXq6l+fJIWTvlre9jQhjR5MdXBuT5wx3y0fl+6RqIGMO5YKFB6T2ikq/d6ywp9Tqd/frMxJCImczlpFmgG7tUDUqrGpENjWGpVscrke9P9D3zyV9KcuWk2V53Uvx1vt/LbavhpCt8md7jstqg1JWVGgdoTvSlYv0OL98xs/6u89vX7ud6eXTStbxOu2Z+85flFqvHeN5cit6u+3BkjAc8TqcO8R75e2ZyvMq5Xp8tXf8zsdctszOzvJKtg+vVqZMSfR8p23mY7TUnXfvt67zPSYnmle8j+opqBHOhe1SePNghb53slvOdwzISGTe9yAud2e7bSYmWk5OSrdNEQB9h8GvKfLJUDWGNGsUAlkV/Y7bfSTYP872P18x7NM32+sx07f3X++1p76P7nnPpy0pLZFWNGvuagDm3PtFJiPN998zXEnl9Zpr7/bHriwVXGnuLxRJHFVqJKjaiGwwOSvngxQF56kCbnGoflqHRqCsM/kKAWd7LakKyotwjtX4xdZG3ScQZZFxvYUjvozzkk1UNYQkxN8dScLjS2FvlVZjYask9xFYkj4aXau9N2zjdNSJ7T/XKfpY/9YyY5Wu2brJPyO+Rhgq/rNDot0GjfOYguMDWG4ji6/Te1jWVSZnep6XwsJG9JTeosWHmbjIzaC2ZhbHl0pJis1Ll484Ree1Ej3x0rl9Go2rs3WJ1ChiPeltlGvWuaCiX5uqwK9ba4zwy5l3lKZaVVUHZ1FIu5QFv/FVLIeE6Y89GOoxP0kUWGecxP2lkfFL6NY3o80UN2kDrYlITE8LG8lgniz2xFJW2wS5mY9EJOXCxX/ae6JZ9J7rkskb4bMSzYKSVjBq5mv1ec5EoS0JzMyaMnJPmgbF7jxrFuvJSqdbInkmrdOPP9t0LImlbHtA2HdV7qwl5TWKXUJya60FR8R2j6OmZ35vDNKaJPAxzH9Sni3GVsXdEzGl3dE6ya1M+UlR/f3hSjZs+4sHTsBcb3DIzcj2UAYZE02xlZVMOk7YJM4Nb6+d894i8e7ZXXjnSLqfbhswyNgx+oUNbYha+V++HZVWz3mcOEg4HyxqZjU7HNcr0eqXH6pzqMr/UhH3iV8NPG5ntuxdCGtc0qmlKjXtThV+qghj6WLufD/O6Jj7PeH9sOCNPSWuMfETIg5O3a5bEXbhmnf1oZEyGRkblb16/LC8f6zEem9Zh3jANITopy9hBb0m5PLC5QTa1lC2adfY04P1qSF4/3iVPHGiXobEJCbhw7epChRieqDKgBqc64JXPbKyVPWurZVltyERnhQgyxQ56bx7tkNdPdMlrJ3tlWNtYvuQKw0Bbpp0z+fF/eWiN3L2h9poRnw3W3PcMjskbJ7vl7966KAOj4xLVawsRZIjyr1Pn5abl5XLPhnqzaZNZbht/z2y8fYwd9NrltVOx/Qaov3yqRL96a2w89dhNzXL7uhqp0ftZ6OdIzIZrjP34+LhEIhF56WivHLo8SA+fimL+IEIa00zUhOJ74y8rN4YfIZpLEbgJ7v9s57AcuzIoH5zrlYgq6dk22LDkF2ejms0t5WYf/RV1ISkLFKaxJxLDWB671C/HrwzIkbZhk/d872POfv2e4mL53LZGs2HRfMaeAIQ8H7s6KK9+3GGc4IXafcy9cO+V6ixu0Pte3xSWlSo/1+P45X45erHf1N+g3n++DSu9LcxluWVNtWxoZjWBN6GhiIWGa4w945CkvuEJ04DyjVOoTIpi4wgUKAdkLAZDD9w/u4aNjk2a+kCfLZJbX1BQTyhtFC5RPic0FvLe+eR11MjVhIkqC0GuKEPyUK5tPOArNofizJcn7mFY8983Mm4cmLxGJWlC1jGWQb1vdp1LZE956s7Unzo9BGV5lzbNAHmo0PpjL383nngHrjH2Dnj+hdgrRhtw5UlX82DGxLQxo5BdJWQuBekkoil0MS1UucJHYrfCRIyFOZWQQWIXwN3Sacd9J2InTf1pxVGHhVR/dDA4h/a4EdcZe4vFYrFYLJ/k+n0uFovFYrFYFjTW2FssFovF4nKssbdYLBaLxeVYY2+xWCwWi8uxxt5isVgsFpdjjb3FYrFYLC7HNUvvWLfJbmCczx0Zz/+mOg4lRcVmhy82nPB6WMPs3nWcMzGb6kQnZUQf2fCoEJawspGnX+uCDY58npKC2OTIbAM7MSXDKrtRFh8XEMgv55Oz6U6+1yCz/wxrtNlUJ6JyxU50bNmab7lC9yBXnPYW2w47uQxxT2N6P6a96D0V8q4U3CdyEPCVSDDJo2ypP+qLjba4Vw4rKxS9AEG/12zdy/25UU27xtijLEdUiC50DUp3/1j8av6hUYSDXqkv9xtl4FZBmgkNu3cwIh0DEbnSGzEGjZ0E8w3lX1fuk5qwXyrDvoLY6AjDNTAyrrI7JIP6WEggv0vqQlKhMoyDlE9iG9FMSUd/RDq1jfcMjRljkW+54owBGvW65rC281IpKcEkJg5bzvYNjkmntpWOAtJds0H7KVWZaKwqleaqQPxqYuDUsOkZ99k5oPU3GFW9wFbDyZVXtlhSF1TdEFCDr0FZAeiFTOMaYz8yNqGKMipPHGiTD871yQTBPRYnT+Cf44A0qmFZrcpy15pqWVUfmnffbDeBcT96ZcDUxUvHus0BJmV5NhbDWh/FniJ5aGOt3Li0XJbWhszWpvmmdygq57uG5dlDHXJOHyc0n4XAlApqfYVPHtrcKGsbg1KtzlE+ifWATMqHZ3rl/XO98u6lQZlArtj6LI8M0cOgZfV7ty2VXSsrk27jo2PjcqmjXz483y97T/frPWrZ40AUGDhabAm8vjEsO1dUyQ3LK+KvJAbqGOdsP3V3pkfeuzAog5FxKVfnIR8qkSLGUcM54zCc+zc16H1VSnXIm/f9+rOBa4z90Oi4Ks2I/NnL5+QZVZrRaGyv/HxAQ0cxcab9qtqg3LikTB65sUUbR+WiOfUOD/7tk93y9OF2+e67V8z56dW+/B6w0osW1Ub8R7cvUQNWL2ubywqiUbf1ReTwpQH56zcuyKGLquwLZB9VzilfUhOQ/+G2JbJbjdiyBA45ySa0KbruXzh4VZ493CGPH+3RslK58ubvNEXaeq8GGpP65P99bKN8YVtD0mdgjEaicqG9V1480iXff79T+kfGZVT1V0HpCc3L0NikNFb65YGNdWoY6+S2tdXxF5PjpYNt8rQGZY/r/fbqvdYmORyQKTD2HFbm0/rCifntW5fIA5vrpLmq1Ay7ug33uS8FgPFg488XL+ps0b1iTrpQTZGM9ssmtHBLQhCxdgyrIeoYlK7+SPxq4VEookUXdyq+o8/rkdb6SlnVUCEryrwS0EgTI1RIoopOi0zSgyHSVOGTymCaBpo6w5sh5an++GlfSbGEtNLoHSqEYcZsYo19lmCSjrd4cUTxc4LTg5YopDIoFMuwACCSHoqMS9tARHrV6BcyealW/U2MHzaZnycPnOWerLwzPhzwe6W2rFRW1QbE7y+REW03E+ZLY+8pBDCGHGe7ojakeU1/SMev3+fVR3ObebpP9HOJ/jjzBnjuZlxv7GMNMPcJwfGph+52bzEZZiunXCbzD/XB8wJnZt7zktTgMNeic2hc+tToFzqz3kMWE9B9n6kAvCxQIisbw1KqBnU4buyZCzD9N/ORaC88MLbeVOaX1Y0hqdPHdKAZBvQfDL7DbL+d7bSYcK2xX4yVaXEH+ZZbjJcxYqqIx/WP7uFx6R8tnOWsbqUy6JP1LRVSGcrvRMiZjExMSXd0Qhoq/bKmvlSCavQX0xJit2C78S0WyydBj2syy0T1aefQmPSpwbdkl7BG9MvrQ2YFT7m3xCw1ZLZ4pnoOUoUVEMOaWqsCsq4hLMEkJyBaCgNr7C2WAoNpDvmkSH+/WI1MGZOXVKuz9ruzwMfs3QCzwivCPlldHZDVGkWz8mBQI2p6WJgbkDdUIIvHp2S1OiIbWsrNplSWhYdrjT0KM59Kk5m0rEstkCXTFlhAdZFvgw+odAx/vxr64QLb7KcQwP4Wa0Vlyg6bSb3qYC1RQ7+qJiCekiIT3Ru5zYM8GB2mCizgKZaWMp+0VpZKfZnf5DFjcHt5uDcohDaWS1wf2VOh+UhmC8yJydjuWhbDzDLKdVpozHYPuUxYMbM97fC4jEYKd8x+Zr5zkRxwhjD2zqVpL6VMc0WprK4LSJjNZvjyuMGfLR/ZTKbuVYeV+T2yviEkTWrsGWrI5O5y+jOxxxm/nYtkfndGcjO2G9+SZbQJOdGJZUFxTQFqdDc1HtvqFANg0XKJi3RsNj5/TJmdD1muGCu01GHcfseKatmgjzWlHomMT2oVpPmlKUCvJEsAG2sC8tnNdbK8NiA+T+rbfXMLjgxRTMP6z2ge7suBPBCQDWv59kcnTE+sm3HPdrkaefSPjMnf77ssb5zsMUKVrx30ICZIU9Ja4ZeNjSH5zKZ6Wd9cJn7v4lh7j9I7cKZH66JLfn4ktl1uhUYq+WRA8yAlxfK1HQ1yx+oqVarhzHZJpkj3wJicbB+Wn3x4WU62xbbLzf+0LFXOqtU5oKWna1Q+d0OD/G9fXKdRXay7OR8gU8jRW8c75c1T3bL3/IDZbTB/2+WyYkHlajQ2xPE/379a7t5Qk/aW2PQGnu8clh+8fVE+vjxoNjbyacHnWlTZyLFvfEJuXVkpX93WIMvr1PkoT33JHUYevfzeyW5540SXvHpuwJRdlS8/9Yd5QEd71IHhAJwv7WiU29dUS53eo90ut4BhMgsH4bDd6IXuYeNd5/vGcDbK1DOvDnplRUPICJFHG22edGVOoWF39I3K+a4ROXJ1yIw9ogTzCadsoaA3NYVlWW2p1JSVmhnn+WZY5ZZDXQ6r7HYPxg5CKZRGOa5lxvat65vK5G6N7vJZWhh7jMXZjkG51D0qHVpm/J3vZWDm9D3Nw63qQK6oC6bdxjH2A2rgj18ZlPaBiDGI5utyfZ/ahhm8aaoolTX1AanW9hJWfZYqjrG/0Dkk5zpH5FL/mJnpz5yAfIGOZiMkinZTS7nqhZCE/Pk/4TEbuMbYO4qgWxXAYNzTLgS8JUVmr+yyUq85QcyNpynNBkI1Ghk3dcE6bRpVvhuQ0xWK84XSoj7Mjmd5BrnlKOCeoYh5LCRQ0HQjV4V8sqQ6uVPOMg3VRx1iCNnZj3xps887jlw1lZdKWdCTtvNBmeNAcJ8cDx1hs4M8EtTIm6Al4POY47pThWLi3jiwDAdmiDMF9Bq71xUCNSrjzElAZxeAWsg4rjH2FovFYrFYZsd9AxMWi8VisVg+gTX2FovFYrG4HGvsLRaLxWJxOdbYWywWi8Xicqyxt1gsFovF5Vhjb7FYLBaLy8np0jvWWRbCzmBuJZX1vbZOLNcjGblazPJkNmeJP88WrFPPBdxJttaaL2YZyecGUDk19mx8Q7JkHvalKEly5y5qgq1Zc6VALAsP5CmZHeEWaxuneEpKirKqzGmm45OT5jHbcOJetu5l0cpIkm0p0+TE2FOv7BJ29HK/fHSuz+w4tfiqOvPQYDiCsqHMK61VAVnTWCblQa9pqHOBosC4dwxE5HJPRM52DknvsD2r3PJpcCArA17Z2FImDRWlUqGyNReOXJ1XeYpt8zpmdkjj7IF8KbdcgW5jd8jb1tbIirpQVnZgo51f6R2VN453md3n5mvjqRDT0ZNmp0+29d7UEpYW1SmZxJGRs+1DJl3si+0Yyb0sBhlhJ9VNzWWytCYgtdqecn3LOTH2GCX2rX/qQJt8783zRrCoeEt6sKUmjWVTQ1BuXF4h92xtlGZtoAjVXFDu1MfRKwPywdleef1Ej5zvHpYSt7c2S8LQNHHIS1UJL1F5eviGJtmytNwccToXKHHk6t0TXfLSwaty4OqIdAxFjSzms+syF0S0DXJwyh/ct0ruXF9j7jnTt0w7P3RhQP7ixdNyUY1+kTZxyjVTP0Pd8Rut1QG5YWmF3LelTra2lsdfzQyOjLx9rEudlk7Zd7ZfetVxYdtqtzManZAKdZwf3t4gu1ZVyvrmipw7ODk19t96+6L8h2dPSUDv0mttS9qMqrc4PD4hOxtDcufqKnl41xJZWhuc19gDBv/g+V5541in/Phwp5xoH5agRia2SiwwpvLB8aOVKkcbG0LyW7ctNc5kIsZ+38cd8tyHV+SFc/1yrn9Mwt4S00PgZkbixv4bj26Qh7bWZ6U3g8j+0IV++fMXTstHlwfk6rAaSS1YX4Z+h+33hzSy37msUh7DIKk+WV0fir+aOdA9rxxul+cOXZVnj/RI53DUnNvvdoY0MKsO+eQ3djXLZ9bXyjZ1qFxt7P/76xfk/3z6hDEsPrdrgCxDpUUoV1U0OxsCcpc2zi/vWSbL6kLXNfZw4GyPvHakQ/7xUKccU2NfSpRgq2TRg1yNqVxh7Ov8HtnWHJbfu2Op3LCsQuorEjD2hzvk2fcuybPnB+SMGntONMtwj3NBQXkNadTmUQP/zV/dJI9sbzRj95m+ZU6NPHZ1UL79+nl55VSvHGgfkgotWwx+2nAT+jVT+l13rauR39ndKmuaQtI4T32nw0sH2+TpA5qOdEnnUFSC6hC6PdLgzPyasE9+55ZWuWfDIjD233rjgnzjmZNGAXitsU8ZKmxSJYXjIenK31pbKntWViZt7F9XY//M0W452TFiDb3FyBVHtUYnJ03XdJMqp60tZRrZL5HNrWVSGZ77LPPpxv659y7LK5cG5NxAVPy+YrO+tzjrWib3mHaoeqxvdFzbT1HM2G9ryIqxhwvdI/Lk/nZ56uNOefFUl9SqkQyrLk0Xom3mGVQFPHLfplr5Ta3vqpBfQmkcZzsfGPtnD7XJyyd6pXMwKoEE9NVCZ1T1dG2ZRva7W+ROdag2tebe2Oe8lM39ubDh5xLKsFgLMROVF1UFTbJVYkGuilQSiuLC0FpVKpubwtJQ4ZeARvmJgjSNTqqCUytSWAf2LmzK1HHa2uSXVdVeCauT4cmQteD8fJmalPrSCWkIFEkZx7xmwIlIiBwbvPyS35vNm0uFN2lJHRSyo5RThY/T0GONPXbNsrhBplAKJaqYGsv9srI+aM6y99PVmiCIUlQb+Fj8j0Wlz7NIQI39itpSWVrhkwpPiRp7elTiL6YBwzY4ZQ2hEmkoK5GgOnaZnu1vyT95M/YWi6XwwAlnlnepWpLyoEcq1dAz4SwVivTL6L5P1ym1xCgpUUMcUOerLKhG2Sceje7HJtJfdx/RL5jQOm6pLZfGyrBZC+72FRSLkbwZeytL6TGl5UdKBz6OwiDZ8MviwOTZco3uqoI+Nfg+KU45yiuKyWn8L0t6FKsRLvV7pU4N/YrqUvF6i2XEROXplXCpp1jKA16prw5LZVkg57rZykhuyLmxt5WaPpThpCrSTIyHMlGSZG29xWmbLCOrDnk0eU10b5zBFECJI6PpOqWWGFSD31Nkovq1jQHx+Uti8yK04lLRq/QI8NlyX4k0h/1SXxWS8DyTMLMB+Way8eKQkVgtpVJXmcAuvVugUGmxpXcTsrMhmPLSu3841CnH7dI7izLJpLqJCVlZHZA7VlbKA9sa5aaVVRJUo8IOcfMxfTb+M+9dkifP9cvp/jEp98bGlt0K7XCIHe208Xzz65vlkR1NWZuN73CuY8jsRPrXb12St8/1mm5S9jb0J6lTmZgbmZiSbXUB2bOiQr58y1JZ1RSWYJbXvZuld6Sj3WbjpaA6l25XPYtv6d3bF+Ubz54yxt5rLUvaRCYmzWYNO9TY376qUr64a6ksrUt8U503j3XKT9hUp2NE64ROV1sni5kpFYwI8rSkQr6yo0F2rKqSlQ3h+Kvz4xj79450ygsfXZEXzw+YTXVCKotu9+tHRsaNPvv3X90oD25ryPoWwX1qIM93j8hfv3ZOXj3ZLX3RSWGtRGmyxp5NuVSH3L+8Qu5fVy133tAk9ZWZ3SJ3Juie1460y/OHNR3vMUvvQsz8d7uMjE9JtRr7f3Jzs9y5tlq2aBtztbFnu9y/e/O84MdZW58+zKJnJm1rhV+2tJTJQzuaZYlGZfMZexob9cF2uR+e7ZO3T3XLpZ4ROyHHYoxyqUbiO1dUySM3NZtIJFyaWJTnGPv9p9WJPNohh64Omd3RMHxuN/asoabn4/c/s1L2qCKn/WWzObGtLedZPKtO1Yca4ber8edAq2TLWavL9EzcuaZKbl1dLauby8yyu2zhyMj7Z3rl3dM98oHqn/7RmIy4XftQ1tVhr9y/qc5E9Svqw+409twoBwEcvzogB873xa9a0oVypQGFSz1SX+aXDdpYOawkkYNwOjkIpzciFzVCGBixB+FYMPZF4tcoa0lNUDa1lovPU3Td7nsHR66uqON4rmNYI7YxGY5OmM+7vccIpxvFzZDHsupg1g92wWBi8E+1DcrV3hEZjEzotfiLKbCyLqh1HjArL5ivkS0cGbmseb7YPap5HzWbNyUqYwsdzgBYVR+UpopSqVRHOtfkxNhbLBaLxWLJH9lz4ywWi8VisRQE1thbLBaLxeJyrLG3WCwWi8XlWGNvsVgsFovLscbeYrFYLBaXY429xWKxWCwuxxp7i8VisVhcjjX2FovFYrG4nJxuqtM1OCZX+0bjf1kyha+kyBxeUR32i9/sRX79Haki0QkZiUxI13BURvW5xb04O5cF/R6zexcykupJdtejb2jMtHN2z+NgnWJ20FsEG6TR5hrKS6UsEDslMNf3TP1Gx6fkEjvqjY6b/MyWhxK9yHa+tWV+c8BRLrfJduRwcCQq/ZrH4bEJs/vgYsFTUizVKh/seBrQtkhZUCa52kEwZ8aeOj14sU/ePNGjv7oIWn+uUGmpKi2R5gq/bFpSIRUh37zb5Tp0s11uz6gcbRuSjkG7Xa77QLNibGMGlzPLW6oCsk1lBIPEVriZBkVytm1AjlwckCsDYzLEAS3mUBiXt3dtg2wzvIuDg+KnTub6ltlCFyP/2okuOd8ZP+vC5CGeEayK/l8V9KhTorqitcwEB4noikyBcSOf5zuG5FzHiFzsjaiMaKCxSOxBWJ2rTU0hc35JrTrdk1oWlAlnA+SC3OyNrzcVUa/zh+9elj9/6QxusDX4mQAPSoVlTaVHdi4tk4d3LZMltSGjeK7HEXW83j3VI08d7ZaTXSPxqxbXwGbpY5PiVwVTXe6T+9bXyK6V1bKhpcz0AmVayWNLzEE4J7vktYNtsvfioDn1rojfcXNbR5epwSpXr+qPf2WN3L2xNuun3s3GmOpXziP4q73n5I2TPdLL4Ti84ESN4yoPms/bVlfLXeurZeeaammoCOTU2GNoOFlxnzoke492yqvHeuSq5lPUOXKtjHBb3Ju2x4awT760vVF2r66Ujc3l5mWN7XPWu5ITY48SMOfZv3Ze/o8njkmxNgaijSm9R3ObaApLUkypgExpuU5oI95a65M7NKr4+l2rZEVDeN5T7xw+Ot0jr3zcLj8+1ClH24fiVy0LDuQg/jT2RB1rlQvOLqtVRb5cI811reWxM7SXlEtTVak57CTTCsaJ2jjP/tn3LsmzZ/vlRF/EnO3uWih71WPRyLiE9PGbX9+Sk/PsZ4ODxroHo/Kt18/J01oHH10eMLEAQ3xQpH8U6Xu+dEOjfPHGRtm+vNJ05aOHc405z37/VXn6YKdcHhqTYr9HiuKy6zpoZ1rG6OkmzrO/tVXu2Rg7+S7DTfC65NTYf+uNC/KNZ05KqRp7PMpJvVkqOVbRloTRcqPsOI96LIqxL5U9qyrl0T3LZFm8G/F6HDjbI68f6ZCniew7bGS/UJnSqp6Mm5YinGZta10qE2W+YtldH5D7NtfLXVvqpba8VMIoVVU82dAx0439c2rsX740KOf7oyqL/F42frEAMO2wSPrU2OM8ffNXN8kj2xryYuxhZGxC23S7PHWoQ75/oEOKtT4qvbEjijHqXk+R/OrOZvnijkYzpMPYcT7A2D+r6eUTveZ4Xp+vRIpVftxsByIa2deqsf+NW1rkznU1srk198b++lYhw3B/TkIMyQDOpU1JpHjZkRAYk/R5KjBBxjmic9bfsqkgk1EU+oQHengGohMypgqTSVd7lpXLV7bXy1dvXSK719Wa7tqgz2MUPu/PNujsiP4TMc+KPpV3tyT9P622l2mY6FWvTl1zZanUBDwS8MTOiad9B9X5W1sXlOW1AaljIm8CQ31ZxRRerBxLVE7cbgf0f5WVWPsj5YP81bjqARPVx/+0JEcmekT4uGPszR+WBcOE1teYRgvMwGZODF3ztWGvrK4LyGdWVcrDGtHfvblB1rWUS0gjuFyPzUY1Tzgf/GfJDfQuVKgMNFSUSn3QKyFv8bW5FMzTWFVbKi36Wrm+xsTJQqFY82jtQPYpnBq3WCzzwhwXuo2B5ZJdQ2PSORKVEk+R3KnR/Ne218o/3dMg92+tl/WtFbGlVYQVlkUBomGW4Ia8sqTcLxUM2+g1nxr2cpUFxox5pAcgLkaWRYQ19osY2rtHW71Zc20bf8FCxwvzM0j0wvB3tUZnmxpCcu/6Wnnkhkb5vBr4u9bVyY7lVbK8NiiVqtjNsrf4d+QHJg9Om0BoySoY8FKvR2qCPmmt9JmlXsgLcwjC/mJpriiRcGnuVwpYCgNr7Bc5XlUEXjz9+N+WwoJuWBT2yMSkjI5PSjQ6aZYvragulUe21Mr/et9K+dPPrZUv39wq21fVSm1luQRLfTnbqGM+6IlgAqEVrtzAmDAbJ1WFvdJS4ZeQr1jGVHaKtA7KA8V6rUjKS+Nvtiw6cm7s8fIRwDGNUohQUGY2pZYYEx3SQozq81RhbJU087ttym5C/jHeMxPXzXu0bpg5X1ZaIq3lPtlSWyp3r6yUr97YIH+oBv5371ouD2xrkuX1QbP6gvHagrOpehNFk7HHmffvhgRmSdvMi3mC+mcTJeZotNQEpSzgM9eCnmKpCvmlpaFGwsGAeW++QfeP6D+ji0T3FAI5NfZ4nigl7l3jE/NopNGmlBJdpEaXUqaaEsUIH0KoDzQ6tS+2LnKUqCYS25ay+UrAWyIhf4lGXB6pDHikrswnzVWlsqQmICvqArK2PiA3tITk9lWVcu/6avn8lnr58o1Nct+metm6rFLqymO7oCVR/VmHrDAf8BOb9PHcbemXD6b9mGS0u7mUF9CvLLFsrQlJrcpSyFci9SGvNJUHpKaiTAJ+X/yd+WF68YxrivuCny5bt6UCIKfGnrEj9uUmeVkLrpELE45sSi2VqjatVWPBTOxJdekx/teDxsbsXIy8foV49Du83tjmILP9hk2ZTUVq4P2qgGtCHllW5ZeNDUG5obVMdq+okDtXV8r9G6rlke2N8hU16F+/SR9vqJLHdtbJr96+XO67oUm2rqiSSlXeuZxdnyzkzK/y5Od+9Y/ZysFNaYpwWut1YqpIxrFeeYZ915fVhmRpVUCWVPhla0tYVtcHJd+r7diLYXwyNgxFVoJadsjJYtA9yQRj2SI32+XqLzC56M2T3fLM4bb4VUu6mKV3mupU+a+oDcquNTUaGfrn3fccY0+ju9g1LCevDMqBKwNydXAs/qol2xDRMyGyVI11SB21soDXRPd+dbhY+0xUxvkG1KEG/OIrmjCbn5SVhc1nC0BnzIojVycu9suBU91m97yeyERsB70CzXOmYCtwApev3tgsNywpN/WYz3piKabRtye65cC5XlnTGJLVDSFZ2VCWVyfRkZGjl/rl40sD8vHVQRlYJDIyqfVRpu34tlXVsq45LM3qiOX6lnN2EA6Y045GrGHJBsy8Dpd61WjEltZcDxTU6NiERKLjMj5hT73LB54SjDzLo2JGnMmSOAKFHLVfjwFt4wOLsI1Th7S/gM+Ttx30ZtI/HJXhSFTCAZ+Uql4oFLkajU5KZGxSH6MywdGIi4SSYtXR6tyjo7N16uR85NTYj09Mylgh9HO5EMbqMPiJrqHF+6cqaGxmnNGSczAQHrqA4/VF+zcT7QpDJ6dE1Gz0szjbuFcjetofdVgIUA/o3Fi+CmfJHcOITlpMuof2zjydfO1zkFNjb7FYLBaLJffkecqGxWKxWCyWbGONvcVisVgsLscae4vFYrFYXI419haLxWKxuBxr7C0Wi8VicTnW2FssFovF4nKssbdYLBaLxeVYY2+xWCwWi8uxxt5isVgsFpdjd9CzWCwpwU6n8YOqU6ZQtpa1WNyONfYWiyUlYucrpK4+sPOcDWDtvcWSfayxt1gsSTExMSGRSESOHD0q7777nnR1dcnQ0FD81cSoqqqS1tZWuf3226W5uclG+BZLlrHG3mKxJEU0GpXBwUF58skn5Vvf+pYcP35cOjo64q8mxooVK2Tnzp3yB3/4/5dt27Yt6GN9LZaFgJ2gZ7FYUsLj8UgoFDKPyeLz+SQQDEpJiVVBFksusC3NYrGkRHFxsTH0PCaL81nO+LZYLNnHGnuLxWKxWFyONfYWi8Visbgca+wtFovFYnE51thbLBaLxeJyrLG3WCwWi8XlWGNvsVgsFovLscbeYrFYLBaXY429xWKxWCwuxxp7i8VisVhcjt0b32KxJMX4+Lg5+Oa1116Tn/3sZ3LixAnp7OyMv5oYy5Ytk+3bb5Cv/5Nfl/Xr19u98S2WLGONvcViSQpOvRseHpb33ntPXnzxRWPoBwYG4q8mRk1NjaxYuVI+//lfkRUrVlpjb7FkGWvsLRZLUkxNTZnovrOzSy5dviKjo6P6dzT+amL4/X4Jh8OydOlSKS8rs2faWyxZxhp7i8WSEpNq9CcmU1cfRfpfSbH+aw29xZJ1rLG3WCwpo/Y+Layht1hygzX2FovFYrG4HGvsZ4ExyUTJ9nncJidJhk8L5YzwZMr5ethz0S3ZJmF5VVnMpjQm227c0DZS1RVWL/wSa+xnwEzjSCSSsHAx0cjj8cT/yixmTHRiUsajUZmcnIhfnR+v1ys+ny/+V2ET1fsaGxuL/5U6JVr+Ho9PiotFim3jtmSByclJoxd4nI/i4hLxeH1SUlKUNVlMpt1g7NBRJSUl8SsLC9QwepAJoOjBZCjWezZ1UZy9ulhIFLyxp3Ex85eGxiN/J2qIMXyO8ZvPIGPgaUBaFmYJUV9fn2lM/N71qKqqkoqKCvMbJBpWsVodUrJwX9wfv839Dmt+hoaGZXCg/7qNm9/jXkOhkMlPMBi85ogUgncba7STMqr35JRtf3+/DA4OmrKnDpKF++K+S0sDEgqH9dEvpXrPTp1n0ukhn8w6TwfqlvogUT+ZchIpS9a9U4bXM0ZzgexRno4Mk+aC9/Jbjpwm0yYdqDcMEOVAfSWD01757WTumfvjN7nHQCAwZ7uYeX/UO0sN0Qv87nz4tNzKysrN9wdUHnnk99I1tuTByUtvb69J14My5rfRUegFp255LGQo49HRmL7n+Zgm2t/Q4ICp60Trm7KvqKwSv96vz/dLWzCfbLuZgjf2NDgUWUdHh3R3d18z+IlQVlYm1dXVZk0vy3zmgoaM4Tl37pxcvHhRLl++bH4LAbseK1euNBuE1NXVSW1trfkthCxZBQbcF425p6dHrl69KleuXDGP5IkymA9+r7KyUhoaGqS5udnkiefcdyF49czaHouOy5XLF6Wrs9MoTu6NhOJCkSULyoyGW1VVreVfe62ueaQuUHKZ4uTJk0YuUsUxUNQH9dTa2irl5eXxV9MDB/XMmTNGXhNxUGeDvCEnyAyyTDnOZQy5Fxxj1te3tbWZzybaJh1wdDBAK1asSLoc+G3aK+2DtpvoPSMvtE1kg/Kfq11wf7TDrq4u8xvt7e2m7mmHXJ8PdE6LfjdlWKe/s2TJEiOP/O5c5Xk9cD7a2tpNW7l8+ZKp67Nnz8ZfnRt0AmWLjmppaTF1Sv1msl1kg5huaNM67jP1TMBz9eoVUweUP/WTCNzvqtWrzdJOxxY4OjrVuljIFLyxdxr1q6++Ku+++25Snt2atetlx85dsmnDOmlpatTGHqtgGg8KAqFyGvGFCxfk6NGjcunSJfObKJFEDBCCgwDV19ebBsW64c2bN5tHDBEKJhHIC0qFhnz69Gk5deqUcXBQOBjD60X2KC4UCkJNZE8eVq1aJY2Njcb480jjz6XhxwhggDAI3d095l5Onz5lypt7o5xJKO9UjBQNlnvivjEcRInUB2W/ZEmr1gepxdQPrydaF7Oxd+9e2bdvn1GyiTiBM3GiRfK3fPlyuf/++2XNmjVp97yQF2TlF7/4hZFl5DYVaFMow1/5lV8xsoOxmitf1BXO54EDB+Ttt982v5tIpDkd6gQj9NkHHzSOaaLdrJQjzjDt5M0335Tz588nvHsfcrJx40azc99NO3eaiG/mzzqGne89c+a0OnmnjOPP/SUS2dPmceYwstwjuwOuXbvWtEXKl/aZCE4Z02Yw8seOHTP1jJ4ij+TpeiBb5AeZo/3jeCB7JJws8plKUJINuB/ulYR+OHv2nNbDJfM3ug+HFl2RjGNJm6cOKAPKnXtG1nD0qAvKxemVXQwUvLGnIbMd51/8xV/IP/zDP8SvJsatt98lX3z01+TO22+R9WtXiUeVPWPfCAwNF4WBA0FDOn78uBw5ciRhxTEdp6sMIUKgPve5z8nNN99sFCYKZq7uWsfpwKmgIR86dEg+/PBD80h+yGMqyhujtnXrVqNoaNg33HCDSU53Xra9Whoj94WBv3DhvLkfek1QVETIPGLsUzHw1wMli2JdvnyZphVy0003mXLA6Juuc1Vuqdw9xvTJJ5+U5557zijfRBXOTJAJDM6/+Bf/Qm677TajbFJxQmi0k5NTcuniBXn99dflz/7sz0zZpuKIAGWDUfpX/+pfyZ49e4winEtOHCfu+eeflx/+8Ieyf/9+4yQnw+rVq2TXrt3y//uX/6Ns3bI14R30aDOXL1+RDz74QP7+7/9ePvroQ9OOE4Gyfuihh+TBBx+Szz70OQkGSs14LnXJPRE1fvTRR+Z+cGTQBydOHNfrkesa+Zn4/T5jYDZt2qRtb4fceuutpnwxuOgLnO65ytcxbhg9dBPth/ygE3BEUukFo+2jC3CwNmzYIHfccYdxNqln8pKOI5wKjvPLvZK4N/Q8MowuJODBscbYZwLkm/tGNxAM8EharZE/ZePzlxrHLxXdsFAo+df/+l//7/HnBQnGDq+PrTk//vjj+NXEWLJsuWzYuEWWL1sitTXVJnrAgOK1v/LKK/Lss8/KCy+8YL4XZYUCS7SLaDqO0aaBEsU6XX8YetJsQwh8hkbLe3E4fv7zn8tPfvIT07Bp5HixNALelwpEy+SFhkNeiBIwhHjz8ymaTDAwMKj3ddUYxl/84glTxihR8oKhpJySVZ6JguKmHtvbO4yDQV1z/zhcjKeGw+Xm3lO5fb4bpUSUl2r+kS9khUgLJUOPUCq9LRMTUzI6Nm5k5403XjfGD9lO1Qm55ZZbTFTPI129czmowG8gmyjkw4cPGzmjTpOhrq7eGB8i7Pr6BjU2iVdITL6umLbiDAMlQmlpqTFwpNVr1mpUq/eo7Qsdg5Fh61+cOpwY6pn74jXuN9l26OiEvr5+I39OjxDfRT6INucqY9oJPSb/+I//aNrO+++/bz7PfaIzUtEJ/C6/zz3RLvgNdAK9fkT3uY5uY8FAt9bhYS3v5+Tpp5+Wl156UfXEflMXTtmnoo9ng/vnfvle5PboURy5k8bBK/H4pLpOZVDfl4wcLjQWhbFftnSJlKnB7e3tNl77yy+/bLplUZA0arxHjGOqguU0bAQHpUd+SfyNYcHY07CdLrPIWFT6tOEdPX5K9r37vrz26sumS5K80UXJPfN9qRp6QCngMHBvNHKe830YFgw++cmkN09WKUMiD6IQyveVV142xgiPHYVHHigT7i1b0Ki5d+qBsqQenDIdjYxJkTZmlG1p3JNPFMqL1KPKe3h4RPp6e0x5JltHyBh5RCZwvlpblxi58HiSM/gDg0Nyta1dXnzhOY3s95reEso2WcgDkc799z8g991/nzrGy0zvz3yQ/3SNPU7OUv2tG2+8yTzPqbFfu8ZE2czu7urqlIMHD6rD9IYam5eMnkFeHVnlXlNph3yGukbucMLoyaIdkoA6Z/JYcRFtMPZe7gNDTNshL+SJvHCPGCoczFTyAny/0y5oE7RH2kNxiU+NnVeCodiE0ZIsRviUJW2f3lOcjbfeetvcKz1T6D6M/HQ9kao+ng3Kje90dCL10dnZoeU6bNpzRB3nsTE1/CqH1E0qDnihsyiM/RJVqCWqTI8f/Vh+9tOfyl/91V+ZRkSlZ8PwoAgRaJQI+aerDANLNyL09g/KmQuX5SdPPCuPP/GkvP7qi6q8LpvGkA1QFBhhlDP5oWvRcUAyBctjOjo65Q01PD/+8Y/l29/+liljDG0mG20y0MBRcDRsjNIVLYMhNZIMt9RqZInhT9TEEPkw47+qrknrNyrHjx0x95Wq/PDZQCBootuQKlp6gJKh7eoV+fjQAfn5zx83UWAqhh4Yw2T+wD333ic7dtwkwWDguuPnmTD2DGcsUSfjxhtvzLmxX6eGft26tSqb3Sb/P/rRj0wvH0NofFeqBnUuKC/qhzxj0DD+gWBQ1q3fIF7VS1OsUtHXCTyI5B9//HETkNB2KOdM4+SnvbNLDh49LqXBMq2PBqkoC5t5DNmCtkJAgGGn1++73/2O6WHFwaHceT3TZT8XDIGRF3r+Tp08IUePHJapCZzwkOlxo+fFbbje2K9fv0krMSqnTx6TJ1QxMsmKbnIEK1vGFYF1FCJKbGwsYroqmRTC9QPqBDz33LPylhrGk2o0BnpjqwyyBfnh+x3FwVgiig/ng56HdCJ82uaE3tPJ0+fkrXf2yS+e+LkZR0UJ57LxzoVTF86YLI4PXcgVFeVmlm6iHrwpJ31vUA10cdGUOgl0/w6ZbtpU5CgmGywbjE0ewiHkb35nPrgPjMWHH35kuj9RnERDyYLzwvjt7t27jbFft36d1Dp5iL9nLhzZXojGnnFbHKyamlqNnN+Up59+ynSTM4yHbKRSl4mAHOLgUX/otEBpQFasWKb14Dft5NChg2YSMt3ZRL3cU7byAk5+RkaGJWSWrPqkob5WQsxryWAQAKiA6MSUXNG6+vCDD4xDw70y1wK5IR/50BP8pqMXyUdfX69G/n3qfLOMt9QERG7CtcYepdXY3KwKZbl0dlyRAx99YMbj8CJzCYae/C9TxwOPEW+S6PeJx39qehp6utpV6LLXqKeDUCPcJAw9EW6sCzn1xo2hZ+x437sfyEsvvyIvqBPDpLFCBFnCUGLoK/X+Ga/k3hN1dnAMwhqFoxhRBCwHwtBFo2NJKWaUDD0OfI46wfAlUhd8DoNENIKheuqpp4yx47uShQlLGFomat11110mD/x+IiZ3IRt7IntmaFOWzz77jDGu9HpRrrkAw0Z+cbaQv0AwYLrTX37pJY3mXzJd2k5Xf7Yxk5UjoypYE1rvk0YG0QvBIJN442/KANxzd2+/HFb9/eILz6uhf8XM4UlFbrMB+pD6b29n1VC3yklsVRNymW4wVEi40thTOXTDBDRFx0bk9IkT6i3HJn1QsbmEHfDo9m1qajLCzXj266+/YYQ9m5HEXPB7AwP9ZqyWSWI8ovhTZUTvqadvUF565VUz7+Dq5QvGwSlUUPLIFI/ODP1k7x/5wth3dcWWZLHqAOOXLMgiwz04gRggHufrzuc3iOLfeustU9Z0O9NbkYoMkX8MPatGmJWMIbxer4LDQjX2ODOUM+2OCVrM2WGuQzpj4amCU0cZGhno6JDHH/+Z0Q0EA7kGGSIhe2XlFWafAEQhUXm4Hjgvb2qA87w6VwyXsKSuUAz9dJyufQJCZBydTbtIRz8WEq409ghpSUmx8SiHVNAYD2fclorMdaNGaMgHnjyKnXtwZvqmoqTTBW+eCSl0G2PsUbp4sal6r2z2cVCV7isamRzY/5EMDvTJpN5voUL9Iwcofow9G/JU11QjNAmP3xPhoxhRWHwX47CpRIYoeuQb2SA/1Ad1gSGYTdEyhovsoDBxFolIU5EhjCvL/x544AGzRNNZfpUoC9XYU6Yk5uqg0J0VOLnWCUAZIjP8PvlAv6Gj8gHODgkZqKyulpWr15qJeslOGp0NZNQZo3/zTSYcspQxvZ0oswVygFzTzoB2yGRV2iTtc6FH+O7on5gBDYm1sRhXFDECxyxMjG4+4HcR+BdffMHMsCWayBf0NNDYUCzpLueBS5cuyMvPPyMfH/xQOq5olFTAUT1wnxhYDBSOV5tGyuzul8z9owTw9tm7YNeuXUYZpAMGky55NnXq6Zl7ghjyzHuQIYx+qqxbt04++9nPmqieCXrJGPqFDHJOuRFBx8o6ptTzAc4RE1jpumcogbrNJzityOHHR47J5fYuGcmQQaasmbDLPeKc5UsHJwtywsTNd955x+hrnICFjqsn6MF8ShyFTVcNG+Gwa9jOnTuNAnQ2oeEar6PMiQhwIvCAU4HPmsMcxueejIL3yDIoNoEh4iGxKQx5IQJjFj1REF1LNM5U8wKOp8pkJdZV853JeK5RjUq7+wbM2PGP/+FHJjohT8kQ85yDZqwQAzTznqcnZ1dCol8mOmKgKFNSMobagfvFa29paZbm5hbxal6SMXrIg1Ne3DcOFA5EKnAPfFdtbZ3eW2xzpul1QT3TDn7605/Kz372MzOxKZXoiK57dhZkmR0bP9GzkewqACC/CzGyB2TFSbOBXCBftMHt27df0wc7duwwj1zHQWL4C3mh7imPVCAPfJYenrmMIHVG+TDXYNu2bWZCJWXmtAk2haFNQDLlMBvko6W5WbZs2SSV5WUSvs4SzPkgL2wIRC8UywhTnVsyG+ht2gi6mXunfJxEmdJW0oXvIb+UCe2P1VTIBmmh4npjPxsoahorym7Lli2mUWNgaEg0aowqCQOEAGHsHeOCANAw51IWc8Fn51MKzoQ5GjQKhs1NaNDkjbwwi5j80OWKwKHsUbipdomRfyYGbty4SX93ibnHZIz98MionD4b25zoFz//WVL5cAwlDYh73rp19nuenrh36otJTRgKnBUaIl2hPCYLXeeBQKkq7qWybOkyVSDJn2fA+0nUB3JKBOAo72RwZIPvQi5R7MgbCTFjxv/58+fMjnF0hyarNClv8kjZ7dhxgzzwwP1y++23p6y4yOtCNfZzgTzQBjAgrMFHF9Brg1ziaKMnkEPmN7ALXhnGXh1E7pv6TkUGgXHi2fQCjjD5wbFgyAW9RF7IFzqCa7QJVlRg8Ph9yoHvSkU/8X6MWpN+17o1q82+/rTPZOF7yAu9qUTFGHr22kg1MkZPMP8KpwcnzNEZjqNDoEYQ4CTaEPePQ0D7SaUsgM/RzihT8k4Zo6P5fdoTaaGxKI09DRujwizkBx980GwPSmMiykUhUrEkntOYaHAoAQQJAWCcLVmFez1QLF/60pfknnvuMQ2axozwOvnh9zF2zv7WXKNhp9qdSyNC2XPfK1YsN0KcjLHv7ekxm7nse/stOZFkHmiEGFoU6N13323GjqmDmfc8PXGN+0bZouSYaEV9MPaayuxlIlomxK1bt95s3YoyQS6SxePxSpU6YJ4Sj6kPlEMq3cMoF8aSUfLUMcqKJUATqqjocv7FE08YpYlxSxa+k/Kj5+rLX37UlHsqitzBjcYeGSMvbGF83333yWc+8xljVGn7tDsnisTQLMfALF8h1bX1MjY6ck1HZRKcPuorpqMekt233Cpb1OlYvgwd1WTyQ50iKzgnGEJkmuHKdIYsHYNGO+Q3ksVpA0T1rCxAdlNZGuqAjqLcCQCoE/QkuoJ6or7QXzhjTkJHOA4Ay1oZHqEsyFcq4Lhg2HG8KGPygv5KRlcWCovO2GMkMBYYVaIbFB8NmIgZBYtwOcnMTtVKJtEAEBoiSWdiTyYgP3jsKBgMH1EdjYzfm54f8sLfTl6cZXwoXEf5JgvGcvPmLUahJTNJiwgAz/35556VAwf2J919jSLDaN9++x1aD/eaiInudK7PrIPp949B5v5RSLyX/JMP6gI5SQY+S8SAoSdC4PtS2UiD88vJG6aK8mMuBPJKGSWjYIg+6B0hX5QBu6uFNU9X2zrMpjk/f/xnZsldKhMBuS/knJ6TO+64wxjXVBwbBzcZe8oGg0k+0An08BE10iZoY9QF9evIIX8jh+GyCgnqdXZcYzknvTrUYSpR5Exo/9QXOgHHn+dcw9iw011gWptgKMppN7SNSJSdPAlIBsxE2WTzY+5NE443ZZAM/FRE5YJhJlY6sDEQ5ZJs2wQMLDoJPcG5AiTkl2EU2qsTmCE76FAn8RmGJTHK1TV1UlFdY9oVKx5SAZ1PQt75fhwJ2g7tdKGx8NyTNEGA7733XhNNIjx47dfbHpRGhNChBOhOpzFkCoT2t37rt+SRRx4xvQ0IqTEec3QTIWQoIRSA49WiBJIFj5VZ+USTKMtkDBONB4PGBCOMbbKQ35tv3iV33HmX7LntdmnSSAWlm0jXmDM5jgbvdGvSAJOFnhm8fu49nXFXsozCJ9oiEsNxwXikqgyME/X883L4yDG5dLVDDhw6LPvefc8Y/FQjJPKC/KLAka/ryftigrZGu2NjIdogRoXePK7PBXJaHgrIimWtJvLGYUYnZMoAOMEIkyiJZJuaGs3+DsjZXC2ESPZOzct9D3xebr6VA5bKTVtJFgwz+0ekYqDZRTMSUSfw1GmzWoQdRFNdYUAZ046oj6985avyxS9+0TiqOGPoYJwf9CC6eXqiHKhPIv8vfflR+R//p/9Fbrx5d0K6ZS7QESx35Z64n0z36uaKRWPsMRCrVq1UIdgjDz/8sDEQeMfJCAEeIwoTQ4sgpiNAGDcM1X333S8bN21Rr7Eu/kri4NmiFHhMBbx+IlCEd3xi0jTWRMBRQLHhaND4UE6UJ44TEdtczhBdX0TlbFXKBLFNmzZqNJz6+Fd5RaXsvOU2WbthU/xK4nAPRKM0ZBLlkA4YBwwpDhhdjshWKtBLQcT8zFO/kO/89X+XXzz+Uzl8cH/81eTBmbzzzjtVUd6pcrYprYjebRAFYjgwKMiy01uUKLRhIsuaGo24Vb8k2jM2F/w+Tuydd31G7tWoHoOWTH48+vtLWxpk1fKlmq8Gk6dkwemNRlPbXZRNotiBjj1NGF6jjaUC9cIQype//GU19F8x+oKySRT0Ce2vorxMWutr5Gtffcyc5ojDmw70rL322mtpDUvkk0Vj7PH6YpPfdhnPD6OE55uMoaH73Bk3xvCnaqRQuHzXjh03Gs996bKlJn/JQoRMb4PTLZtsfpyuY5bZsBNegrbe/A75xdAT2ZAwKHjT3A95YjiCcqK8GCahvGLdYMtN9HvTTTeamb/sw56qy4QyW79ho37/kviVxKFrjns3B2GMpH/oBuWPI4MziMGnB4m/k4U8oUze3feOPPvMU/LWG3vl7JnTSXfHIts4XYznEhFtVdnnfP9Uoj23QruhWxjn3Ynmkykf3ksEjXFCtjH+6cD34CgypLBJA4Dy8oqk8oOzUVdbLa3NTdKg95aKsXfaRSrtIaKf6+rsNM4qW5In+x3oFdoR+oJxeXQKvXdOb2ei8D2UG0cYV1WUya237JbHHntMg6tbTORPPaUy5s49vfHmm3Lp8hUZHcv9RkzpsmiMPQ37s5990HjwqWK8RVXgdB+l0xXK5zGGsX26l5ntVzmUJVkQWBoHXi/5SlaR470zmWegf0CmJhMXXIwIxgzj/tWvflX+6I/+SP74j//YpD/4gz8wZ7X/s3/2z+R3f/d35Wtf+5o5OhWHgIbLGP3OnTdrvtM/aMJTUiyV4VIJBdIYfy4qNond7tOF+qBccHgYJsLQpgq9DYx30q3PmHCyoOjJC44tirO+vi6pcfHFAJEzzhk9UjivqTrvGHq+J5noczbIB3KzXJ1/02WfZHbIP0axsrJi3h62+WBsGtlLZQ4Qckr0i7FnTkWyxp5eDIIgdDTd9shvJkBHUra//du/JY8++pjRv1xLFuaHMBfh5Jlz0tnTb3pDFxKuN/Y0AAQoNmt1vdSp0U8VlDkGFaFM1rBOB8OMh8k4Lzu40f2WiprxeH1SGiqT0kBQhdebkrKiq218gu62xI09945SodHgdRO9042PA0OUxNg1XjmzZ+mOfECdrIce+pymh8w1Ivt0oyCgPvzqNISCsUlKyXR5Tidm6FNT9NNxlC2RCZM/idAYYkkmKnFgWIEIywyxpNAdWqlytfvW2+WGHTcapckBJ+nfobvAICK3qTjK08Fp2L79BtMeUoHfRkchK/SGkZ8UmrKB7yIQ4d5SieyJVpG3VKJWDD3L7TD0yG2y3xHUfG+7YYfsuPEm4yin6zw5OO2SIRIcCfRPKvOcuKe+3j5z9kfblUsykeIwRb5YFMaeLmSWyzSoYQqH09vtLBMQRTjj22wqk4qRBox9uFy9VDWcRRqdpvo9mcLxzDEuGH26JHfv2i1333OPPKiG/gtf+ILpDaDRpWqYP4nerxr80rjjkQkHIhOgrOnF2LnzJlm/fp0qrdzKHN25DQ2Ncufd98rW7TcaxZZKJONWaCc4irQ/HNVU51c4NDU1G8cuFQMCtAV0FMY+neEA574wbHxPLidiYtg5rY/T7FKdlFdRUSm799wuO3bebPKfbr1MhzZBeSxdGlt5keowLNuNX710QS5fYE5CevN8cs2iMPY0ajaLoLv8emd1JwINipQqNGaMIp43z1M10iX6sVJvkZSFY5FtuhOEsoLmkS5J1rzS2DJj5GNwoA9j2wf27zerCoiECwHqAUXFhkXs49DYmPx65VQhsiNy2b17l9kcpaYq+XkDboe6YVgPhc84ebqOEMvhauvqxZ+icaLOcFZJGOp0ehnygTPOz1wTtuBOZSY/0DvZVFcr1eosZxp0LPWOQ8b8DOqeYY5kdSb3ytJrhthSnYCYLxaFsacR4SnGurrjL6QI34ehT9VAA0KHcXYadqrfxcc8GFJ1GPjOdByQbMGd4WCxHS2OTaJ5pAeQOQU0KNaWs1ENY2YoEzbq4MQ3Nu14/jnOdP/IzGIvlMZHfeLUMFRzyy23momhPM92HSFPGDEmTt6ye7csaY0t2bJ8EuSQckIn0A7TNa7MPwmXlZmNlVIBmSAfJPJWkE77PDC+T/t09phIZbyf+li9apUsXdIq1VlwUGmT1DO9qgy7OD0fyZY1Oon7ZG8JluymMpExX7je2AOVStdqoRhDGjQNO1NRLoKcjvNRaDDSx+E0Y9Fx06AYA2RDJda6Pvnkk/Ld735X/uN//I/yjW98Q77//e+bwzYKEWSOIQuWGbKOG6czm1EbPVhMyGO+BPMmwsGgyrx75CJT4HRRVvSuFYKTzO/Ty5eu858viOqJdJnYlyo4qMzpWbt2jerG7PVG0YtDvZMw/Mm2R4YrCD64VyY3L6Q196439jQcjCupUBoRjRuPMlP54WsWkn7AO6aRsM6diIDuP5QFJxSyK9q+d96RJ574uXz/7/5Ovv3tb8u3vvUt+c53vmNOocLYszMXW8eyJScediq7yuUC6hhHk1UXGN/t27eZ7sNMgwKjO5oZ4ax6YDlZbW1NVh2LhQzlQhcu5UZbzLdeQE4wPhWamIdTvMAie9oybTidXUVxjGkbOD2ZOFp3LnCompqbpXXJEhPhJzuEg7F3dBcGv1CGDhNhUUT2GPpC6eZGsThpsUADobvL2cDH8Ywx1Gy+gdEmOt+3b5/pmuekrO999zvy3/7bf5U///M/l7/8y780xp4T3zD0dOEz8zefxxYnCoqcyZjMAmaPByYvZjp6Q7ZZbUJUz5p6Z8hgMclYMlAnlE+hOEPkwxj7ikrx+UulpHhhGXvaNe2ZXrhkQUbRyxhdx/nKJgF1JhobOVMgdgZHKsYeA4+xZ55QqvMT8sGiiOzpMmdiBo08n5SUcPhMrJcBIct3fnIB4+h4/Iy3Y9TZcnLv3r0mQn/88cdNtI4x/8//+T+rcf9vJpLHqGPQcQTY0nYhec8zQf6ob6IIdmrDIDMDnIg/UzA8gJFnBQDORCpLriz5Az1ATwMrczxp7CiZL+ipY5w+FceboUy600nIbbaNPWXLrp3M38LhS1YHY+wx9Izbp9ubkWsWRWRPpZLyHdnHPFiMfW682HwxOjYuPX1DcvHyFXMqHwae8XaOw33mmWdM4qjWF1980Vzbu/c1efPNN03XPO89cuSIGadnkw56AdLdyjbfoFDopqR7HWPPhD3+ThcUF4aeeQFsvcxwAd+bbLRiyS+OQ+hTw2d2lFxgHTIYeRzyVNopsorMMk6fyuz4ZKFoKWP2Nkmlh83pxsfIo594vlBYFMa+UGAtPALm9cZOTVpoHnyi9A0Oy4nzbfLW2++ZCP4HP/iBfO973zMT64jcf/jDH8oLL7xgDndh4l1nZ5eJDGhIbgVlzrg63fmMqzMbOF2QHww9ET1OBMMFFkuuofeO7uxUDB96kCGMqqrYhLmF0ttJb0aqDk6+WBTGHkNSKMYEBe0kN4HQ0+XOuPvPfvyP8t//4s/khz/4OxPFY9Q5CtXplmesnYidMT4UBJGBmw09UN8oMjZg2bQ5thc7Bj/d3p2JiXGjbN1efpbCBuOXigzSJnCECYI4LjoWey8MFlqbc7WxdxQsglhICtFNBj82Xhc162uPHz9mIvYf/4NG8n/7X+XJJx433fNE7xwiQbdXpjxhjCRRAcMzmVrCmAvY7a9GjTynkhHRpGPskefYRKFOs6phIU0Wyie0u5hxsR2b+cZpxzFDb8kmrpZ2xoPoGkKpsk1uoTTuXwr4wi9+InQOayGC//a3v2Mm3WHcsw31yqQ3xqkXUvc1J9i99sorcvDggZQOC5kOxv7Klata3kfMkkUmQVquD3qBuQ44ihbLYsH1xp5JH6WlAfOcMfN84hh5v78wJgymAxE9kSRL4N588w155ZWXzbI5JuSxJCUTEH0xa52xbpaWMcGNyW1swMGENA6b4WAdrhe688RwBUMYrDJ44YXn5cyZM8ZRSre3iYlC7FHAASQMlVD2C2nSUD5AVnAW6T4uBOhpQHYXqj4g//SgppJ/5J9eV4ajYo7vwugaX4i9QwvX2iQAApjtTRqSAcFgU4fYbllBk7+FCt3xdB3v379ffvzjf5S33nrbjMln0tDgEDGuvXr1KmPg2Wf+K1/5ivzmb/6m/MZv/IZ8/etfl0cffdQcbBEIJL+MJpdglHGEWHbIPgLsMZApqAdWNTBkwmEkC2k5UD5ASWPsCQAKgYU+rEC+caBSaX8YeGdOVTS6cCbpcs/oJ+ptoeBqYw80JP039keeIS/TU6HkKxUwKCyVw8AcPHjIRJTpTLRjL4R169aZteicf48x/73f+z1zJv7Xv/5P5Mtq1D/72QflM3ffbc5nZ/b5unXrpXXJUqk029AWZmRPDwgTEonkX3vtNWPwmcXL9UyBomTdL44XSxr5DeZHZPI33MYv22BhUGj5SQYnqEqlp2RsLGJ0h7P1bKHLLHXEGn2cm4VWX6439pbMQ6MkMmXtPAafbuRkokkaCYaZLnoi95aWVtMVjxFnD/lHHnlEvva1r5lEJP/www/LvffcIzfv2i1bt24z4/ScQ97Y1Gh2HaOXpBAjI/ye8YlJaWvvlI+PHJM31DFi2CPT0A3KRD02LSLCZ85Euxr/aHRhncplWZhg7OmxxAAmC7qkt7fHGPtcHCxDMIJDQZshpeJc4NQ4zo2N7C2uhpn1jD0zTswpdMnidIFhtDHsf/iHfyh//Md/LL//+78vjz32mBmHZz06O81xGhYTLIPqGPi8JZ84onhKG2pUI4OJAj1XenxySgaHx+T9w8fltXc+NBPpMjWfYTaI5p1NjI4eOSIjpgdhYXSLWhYn4+MTxsgz/4eU7W58nAl+h6Ev2mKyq4MIVAgumEfU2tqakc2xcoU19paEoR1O6j9Xr7bJiRMnzCx8PPJkYSb0zTfvlHvvvceMw99zz93mKFjOYWf9ObPseQ/jqkQMeNAckYuTMLPnbHJyomC7/vq0bE6eOSPvvrNPPnr/vaxv/RuLknqNI0avy4mTJ6VH/7ZYsgkRPQ55KqsbYhP0JoyjyvLdbEf3tD+MPD2TDH0R3ScDxh59hG6qra3L6LbX2cYae0vCTOl/4xNT0qFG69KlSylPxmOp3KOPPmbSAw88YLrw2UGrEMfc04GlcB988L688/qLcuTAuzIWyf4e/0QqsRn/L8i+t9+SSxcvxF+xWLIDDjmrZXDQUwVjT3sheGAOSrbAmUB30TvJ3vap/JYzbFFRUZ6Sg5MvrLG3JExkNCI93V3SoY0ELzxZr5jZz9u3bzfd9Myux+jTcGIRe+qTXTBwzBnI1IY96RKJxCbMvfPWm/KPP/i+nDt7Jqe9D/wWiowTAj/44EPzPJs9CpbFDe2auTeMY6fK0aNHzWRf5rRkczXJqLbNrp4+6e6NnUefrA5DVzkHqxHVpzJPIV9YY29JGJbGDA70qxceayjJdrfRMJyz3VetWmW6/tIBo4aBx5AxDpdsw80G5GloaFBOnjwl77/3rryx91XpVMOfa+jOf++99+Sjjz7UvJw0E/gKdbjDsrBxuvGd5Yyp9NARabNPBKtWCCSygWmbqifaOrukp6dXdcaQXktOh3FvdXV1Zi4Rzk0qyw3zhTX2lqTBqKayJpaGwsQWUiYaCYae8TcMWSFAedAtSDfhq6++YmbH5wvKhklI7Kz36quvXRt2yfYEKMvig7ZMdzYGv6amOuX9C+hiZ58I5gJlGgw9QUFfT7dcOndGerqYP8NSv+TaA/fKkAVHSS+kmfhgjb0lYTAURPOsjY01lOQiRWdyCymdbnsHjBeRQKFsE0v5EKEcOHDATJBjk6FkQZkwHkgPCDsEsp8As36ThbrB8WC1BDsckqeLavDH1Amw9t6SSWjLyC2rZ3bt2mW6uFOB7nt6o9i3g8g71TlBs0GAQo8BvVzvvbvP6AzaSLLOL/e5dPkKWbFqtXB66ULCGntLUjBzFkOPl5yssc80bDfLWB/r/AsBFArRPGOPKC2i6WQhKmJMkD0Hfu3Xfk0eeugh2bhxY8rOEXlgiSSnER4/xoY+Y2ZFhcWSadgUi42vGhoa4leSg0l6tJ19+94xckuknylwfOkxOHjwoNncKpW2SRskml++YrUa+7XiTbEHI19YY2/JGXjRdC+T0u1OHo6My5WObnnv/Q/k9OnT8av5A0VFFE23OWvdU41KUJScd3/bbbeZc+rZCpjliMFgQBVNakMf5OX999+XN996Uy5dvChDWZwAZVm8BMPlUtPQInX1DcZhTWXsHtgU6i//8i/NfhHMxUk3qGDJK7tLfv/735cXX3wx5bk9a9askc9//vOybGmL+DzseBh/YYFgjb0lKZwuOzzcZKNNGq2zmQWediqNGB9hYnJKOrr75fS5ixpJH5e2tvx14ztDG8y+x9CTMPrJLumhLBneoMv+jjvuMAf+rF692nTnE9lv2LBRKitTW9qEcmMsdD+b7Rw9YvJKntN1uCyW6YTCYWloapJly5dLY2NjysaeGfnPPPO06ZHCccZY04uXqMzyHmSengGccCb+vfTSS8bQ0z6T1Tu0TSYh4nTfcced0tzYIJ5iNfbx1xcK1thbEiYm9B4pLfWblGxjHh+PmsZ7+PAhM36WSvTLrnQj0Sk5fvK0fLhfv0edB87TzxcoDoY06F1gqZvZqra9PenoAeeJdcpED3ThNzc3GwXDBkOcF/A7v/M7Zj+CVCCPREgoUSYOUgfZ3rzEsvgIBwOypKlRdmzfbpzUVJelIZu0Ic55+NGPfnRtSCzRFTcYe+c7GOb72c9+Jt/61rfMfJpUoG2yzI5tvbmv8vKFs2vedKyxtyRFzOD74ktskvNtGe/H4NClhtfO5LpEjQ7vYdb9yZMn5KXnnpWXnn9a3n/nDRno681rhMqkIu6HCXmMizMuSFSfbJ5YxrPz5t2yc9ctxsDzN86UE+1j8OnSX7t2rZnAlyyUH8qPcn/rrTdNF2kqux9aLHPBMFM4HJRVa9fJhi3bpWXFGglXJN8bhXNKG2IyHadEPvnkkxrpP6OO6qtmOIp5McgyUTsOAAlZpscKZ5ujtjkj4qmnnpK///u/N/MAaJep7jXBlrgMqdHbhsFPpf0VAtbYWxIGQ+90afl8nHCVnLHH4Fy5ckUNzX6zwxuTZaZvkYmBnJlo+Izx043HDNr3390nP/j778qzv/iJfLjvDTW2+Vt2R97oYkQJkZjxzvr2ZGFYpKKySu646x7Zfettpjt0+rIelA2Tn3bt3m0MfqrjoShHHBMmKJFfFCb3YLFkAs6t8GsQsHT5Slm3ebus2bhDqmob468mB20f+UReicyJ8HnkeOi3335bjh8/oZH6JfMeEpE/W3hj6H/605/KT37yE/nBD34gf/M3f2PaZarQNhmSuPfee+WmnTulprZW/KXJn+5XCFhjb0kYDFBYDRHGB4Mz3SAlAwYeb5sGzESc559/Xo4cOWIid8dTJzG+z/I1DNN3v/td+cY3viF//dd/bbr1Ll++YoYB8mmsiBZQRkQfKJpUYYOh22+/TTZtWi+N9bWfOOxnOmvXb5Q9d9wlGzduMjuWpQrj94xhfvDBB6ZrM5GeFYslEUpKiqWmslzWrWiVW2/aJEua6uKvpAayiaNPLyA64xe/+IX87d/+reqC/yB/+qd/Yg7QIv3Jn/yJ/Pt//++NnkC2cQiQ83RkG0PPfBkmy7LzZ3NTk15buEcRW2NvSRgierqX2RQHY5PqmJzTeGmQTz/9tElMnsFovvHGG9cSRh5HgC48uvLoluMzLLUjSmX8jgggHTg1b0idjMjYaMKKYVzfNzwakVOnT5vucLoVifCThaEQHCfGAW+95RZZsWyplJeF51QmrS0tsnXbdqN42NgjVcgrE/XYQ5+8MxSR7BwDi2U2cFTDwVJpbWqQnTdslS2bNsrSpUtT7vrGmcepJ0BAZzDBjqEoegbRB0888YRJ6AeuEQgwJ4VJskwETjUYIL/slEdPGkNoOOTm/A69v4Vp6q2xtyQBni7Gnq0iGVdOdacsBww2ETGN9b/8l/8i//bf/lv5N//m31xL/E00z7gb5+ZnY4y5t6dbLl84J/29vQmPtY9GotLR0y8HDx42kT3OSyrQS7J27RpzAmBsM5KqeedBhEMBWdbChL1bTLd+OrBXApH9e++9a4ZH6EmxWDIFK0e2b79B7rnnHrn//vuN4VxIENDgVN95551yizri/J1qcFMoWGNvSRgiTsaKMfQYG7aMTGd/eyJpJs0wzk2XOBNyMP5OYoY71/HqiT6z0d08oA7E1atXri3tmQ/cALbXJGI4fGC/GvpYVJ/sxB/Kke1FnYl3mzdvMYcCBfTafFFDiZZ9OBwyS/KYLMTueqnuVoZjQ6REzwSTnujO55odw7dkAmfIb+OmTXLPvffJ7t27ZcWKFSnNNcklBDDsdUHb+uxnP2u68R1Dv1C77x2ssbckDY1h/YYNsmnTZmOkMgHdyBh0xu2dlIgRRXlgOOkOp+sNJZNMo6S3gMg2IWOvhj4SjcqVy5fk/X1vygE19swpSHYJIXnm0BC2F73tttvNkjqcpkQiB2d2Psae0wMp/1QUKOXNZMnDh2Ozl3GsEikDiyURaIIlxUVGxm/dc5vcdddnjMwi94UaIaM7mIvE8lecE47fZm09eqXQnZREsMbekjR4v01NzXLfQ5+XHTt3x6/mHoYVWP/KKXr//J//c7MZDcYvGWXCSgB6Dkg4GPN142PUL2sEzBn1zzzzbEpbbgL5Yxxzg0YN69Zv1Oi8Jv7K9XGcG6J7RxlRBpRFKrS1tZllSozfE92nujzJYpkNxrjLwkFjPD/3uc+Z7Z9xAAoRnGi67B999FGjSxh6WEjn1V8Pa+wtSYNhqagoN2NaNA7GmzGyNIxcecB44HQLMlOWMUHS5s2bTQNNxtgzVk23PGt0ifLn6sami7u9vU2j4L3y+t69ZrMO5hwkC3mjF4Kyu3HHDnWaGiUYSvwccHotiEC4T+5369atZvIQEX8q0JtCdz57BBDhUw52sp4lUxDhl6psrlix3KxVx+DTZjdt2mSWtOGo5gvaEoELQ2FONH/33XebTa34m7yluuKoELHG3pISXm0E9dUVcsdtt8gf/dEfmYaCEUs1wkwWZ1vZf/kv/6XxxDH8zCVgF7pk8oCxx8A5m3TMFdkT9TM+/+1vf9vs7JXoZkAzYYIjjhFKhfF6xunnWmo3HzgNODyUO+XA+Gg6sPqBZUvMm+DeLJZMgVHFGaWN0hv1la98xbTZHersMtk3mWG3TIKeoD2yUdWDDz5o8sTe9zjPDDe4DVcbe6I0uiU5e52tWmNTrNIDY8D3prLki88QNWV6EhTbxUYiye/aBtfuJ/53opgIUxtLgzZWZzLLww8/bLz3TI3jTwfjxkQZolm6Ah977CvyhUceMRNo6jQPwVBYX69N2thz70S3LPNjWR8b+EyHImUv/iMayWMQ6bpnbJtyS6W8UXgYZ7rfY5vjpKboKH/uE0WFwWc8lEgpVTDwTIakS5+VDzg3M8tiJpRdqpP6cJRol6mfwEdbiqbUC0G9cW9unZ9AfaR6f7F6iaZUp/OBvNKGcUqZo8IsfYzrY489ZtozQ3F072e725w2g+OxbNnSaz0NX/jCI/LgQ58zE2VZUszrbhijn0nB35Gj1BACulWSSU53LoJLSkU5z4T8OII722/Ol7gHPse2ktyTfk1aOHkhOWO5s/3ubAmPlvd7PF79rOYl/p3JQuNl/JmT2r7whS+YiJUuOrrG+I3Yfab27dwT5VVWVi71DQ2yRg0b0fAXv/hFeUTT3XffKw0NjWYCjU8bKL9JpIARne2e50rALlskFN10OcGYDA2PyJGPY+vSeX2275grUQbkj+f0fOCsUFbO3veplg3wWXo46MpHca1atfpTv59Moo0wM5/EHIZEJh6SB5TjbN83X/L5VO6KivXzfEf8yxLEeT/ykexvUx+Ue6b0gQPlQJcv+eE3Zvvt2ZLTDjNlXMgH38Uj98n3J5Mf8p/sJNdkwSklqsfIf/nLX5YvfelLZrIpckyggMOeyYl8Tt2gqwgYWltbrk1wRWcR1e/Zc5ssWboko3VRaBSpR585ic8CjKMScbBzElEHnmeiXifjMQg6xgEjgZCluzYcJchGL0Q/nKaUaF4AgUPx33fffSYKZgY2f6cKyphuaNapE3UyqzzRCVaUI3vc33jzLtl9yy1y+549Eg6pcU4x0iQypBucGd7shsf6c8aBT5w4Ht8AJ/koA+VDw79hx02yees2WdraLMuXLZPlGh1j2Mu08aKTEGDu59DBQ2bdOHJCPSUa2VCHo6MjKiN7zJAE343SA8bzz547J08/9ZTW+T7Ti5JMnWNQKBvkEKeIbTdxiHBInN9IF3YaPHDgoOzd+5rZmChVkE/KfMuWLSaPTAKc7WxyHB56Q5A5Tidra2tPeg8E2iIR3qOPPmZ+J1HbQnky5PKxOl/PP/+cmW9AXScCn0Um2JAIfUDC+UoXen56evvk//w//o288fpe065xchOB/CBv6AOiW3pqUjW0+C5RdU5ZIfL2W5wLv89sQkO9JmrAMLAYvN///d83spotqAscafQXskSPGRNEyTubZvGcZaE8Txd0fmUl82RuMOVLVE8vwtKly0wkT1sMqtxT7tlzcfJPwRt7jBeKBOPBmCmNI1GPHAFHeHfsuNEoFCaVIfjpMDg4ZA5bYIemK1cuJ5wXQJhQAihTPFsaVTreK40Fg09EylhrzKgm1q1JORLRr9ByWblytaxZtVKND9FW6uLOd2LYUMYceINx5AhalHF3d4/WY5/JL++bC+oHI4jCpCFibLarsWe9bm11lVSr8S+vqNS8a/1Oyyv1cFkdDZTFUXU2kllGFjP2o6Zr/e577pGKaYYYY893so//xYsXtM4CCStyIF84EsFgSFqXLJXNmzamvSHOTCjTnp5elcvDae0D7kDvCBOUUIizbYbi1DN7IfB7KGscgGQgyqJumdzJ7yUK5ekEALRDdgMkL4nAZ2kfVVXVZlyWeyTKSxeGIgYHh+WnP/mxcW6TGUoiPziCWzXSXLlipZmwmU5UjeNBezt16qTZLvaSGs1kjD3vI+HsMUSWK9Bd1CuOKwEDRh5HBaOPbPE6r1Fe12vX5B/diuNaoboiGAwYXbJVAwbqvaWl2UT4jsOdaNksdAre2NNASSiURBv1dGg4papojWEtiXVvpQObqrDWekyNA0o8FWjcKLt08wKUjbMmneeJwnsRcn9p0Bzs4PdmpuuO78V40iDZLKdXIx4Oq2H2Oo2Xa/PVI2VDQ2S2Opv2EPWgPEOhsOaXIQuU0ez5HItOSGQsIqMjwzKZoKF3IN8MBQRDZeJlmCX+GxhSHAeUDPeVShnx3SUer5ZzQEr9PvFpWWcSvp9ElERe0wW5wFhRF7Sb2Zj+ezxPFsoRI0Q7SLa3jd9jroBTL8n8Pu/16u8Zufd5TV1nggmVjW51DGmHOPCJygn5KSnxqI7S/Kj8+TKQn4mJSdVRGgiofiKlIrMYwnR6HZOFcqB98UgZIluxnssRU8/0on700YfGDlD384Fc4UguX77COCwMn5WVl5nhQGMHtIyRccollbJZqBS8sXdIxKObCxpTsRr6dKLW6eDJT2qDmphIbYkSijTdHobppFU2ca8/U2UzHRolCc+8s7NLU4dpyOR3LigXjAzRHo2UxokxSKS8TL2oM2bqRZ8nS5ExcloeRgnErlGu8+U3UXBSSlAy8XHqbJCpvDpQ5vNFqOn+nmPwU4msMAz8djKG3mG2ek4X8uFMVkz2fiiHYvKjDmYm2iFFQn6on8nJ1PTC9eo+mzhy5QQN6A9WzLAnBM+5Nh+Ufyyqr9CIvk6dKJ9xwBi2zKQdWGgsGGNvsVgsFoslNRbHYIXFYrFYLIsYa+wtFovFYnE51thbLBaLxeJyrLG3WCwWi8XlWGNvsVgsFovLKZpKZe2KxWKxWCyWBYON7C0Wi8VicTUi/x+W14/u/PSlUAAAAABJRU5ErkJggg==;" vertex="1" parent="1">
          <mxGeometry x="479.46" y="244" width="33.69" height="20" as="geometry" />
        </mxCell>
        <mxCell id="9cRQzBxTq97ZNu037ttA-2" value="" style="sketch=0;aspect=fixed;html=1;points=[];align=center;image;fontSize=12;image=img/lib/mscae/OpenShift.svg;" vertex="1" parent="1">
          <mxGeometry x="150" y="140" width="50" height="46" as="geometry" />
        </mxCell>
        <mxCell id="9cRQzBxTq97ZNu037ttA-5" value="" style="rounded=1;arcSize=10;dashed=1;fillColor=none;gradientColor=none;dashPattern=1 1;strokeWidth=2;" vertex="1" parent="1">
          <mxGeometry x="220" y="205" width="160" height="150" as="geometry" />
        </mxCell>
        <mxCell id="9cRQzBxTq97ZNu037ttA-8" value="" style="shape=image;verticalLabelPosition=bottom;labelBackgroundColor=default;verticalAlign=top;aspect=fixed;imageAspect=0;image=data:image/png,iVBORw0KGgoAAAANSUhEUgAAAfsAAAEtCAYAAAAP7MngAAAAAXNSR0IArs4c6QAAAARnQU1BAACxjwv8YQUAAAAJcEhZcwAAFiUAABYlAUlSJPAAAI+NSURBVHhe7f0HlKTXeZgJv91doSt0zmFyzoMBBjPAIBGRACkQJAFSIq0se+XfXkn/nl2t9xxLZ71rH5u7x7s+lGzZsgKTKJISAwgiZwziIE7C5Bw751BdHfZ9btU3bDS6eypX9df3Ae5U9Vfpfve+9w03Fk0pYrFYLBaLxbUUxx8tFovFYrG4lKKRkREb2VssFovF4mJsZG+xWCwWi8uxxt5isVgsFpdjjb3FYrFYLC7HGnuLxWKxWFyONfYWi8Visbgca+wtFovFYnE51thbLBaLxeJyrLG3WCwWi8XlWGNvsVgsFovLscbeYrFYLBaXk9Ptcicmp0wyP2g36c0IFGORpmJ12zz6TxF/JMDk1JRMTsYe7VFIOUDrhaqhfor4b1o9OdeuYf5emEzSxpEtlSnkaqHeRzYoKSnSNur+EnF0C3Jg9fwvoZ0Xa/0jAsWJKuoMkhNjT51T8T0DEbnaFzEKAWVgSY8JLcOo/lPqKZLyYIm0VAWl1FcSf3V++oaj0jMUlcHRqETHbWVkG9PA9Z9Sb7GpI7+nWFT3G7yeEvFoAt6HQcB5y4dCSJfeoTHp1HbePzKpsjkpXr3JhXcX2aGxyi915aVa75909twEhn5wZFzrf0y6BseNrrfE8Kiergl7pbzUK+GAN341d+TE2CMAGJQPzvXJq8c6jJGyMpA+OFAY+8aQV1bUBWX3qmqpDvuMUZkLip1TjS91jcjJq4NytH1IOtXoW7ILCr5U7XnA55GQ36MGv1h8agjNdW+J/u0xhjGgzkBQXwv49RpOQNzwlxRNid/rueYUFCK087MqU4cv9MnJrlHpHh1XR6Z40Rt748BpKexcUSk7llVIqFTrWsvFbaDTR8Ym5JTKwMm2QTmuuiVq9XycKSnXNr59aYWsbghKc3Uw5+0iJ8aervtRrfW/eeOC/LunTxDiaIq/aEkdWpemLQ0huX1VpXx19xJZXhtUozB34aKQqY8jqpDfOt4lPzrYIYfbhmMaabFr5SziVaMe1jIOqJInqvdqHWHYy/hbjX1Qo/3KQInUquPWUOaXmnK/VIZ8ElajH/BOSaBkQqorwlIWCsS/sbBQsZLxyUl5/0invPDhFXn2bJ+c6IuolVPnZJHLlU/rPqR1//Wbm+TRG5uktSYoYTX4bmNMA7quwTF56qOr8pLKwRtnemUUwXChY5M045PSrIHYr+9ukc+sr5VtavRz3buTM2M/MjYpf/X6Bfm3Tx7X9l+8ILsoCwotPgz3uArRtvqg3LG6Sr66Z6ksrwuZruK5oO3xuUPnemXv0Q750f4OOdoxHB9LtHWSFbRYicd9+kg5E81P6t/4vH79x8NYriYi+ZBG9SGNAMoDHgmr8afLv1yNfYUa+5a6CmmoCktV2Cu1OASaCgXHidx3uEOeee+SPHlao/v+MQmqs7LYY/tJjerGtWy+sLlOvrStXm5cWSX1FaWu04FDkXG53DMqf7v3vLxyrEtOd4+o7BdJser7xT52PzExqU68T377lla5e0OtbHW7sf+WRvb/1zMnpVQrfzFMVMkmCApd+CMqRFtrS2XPykr58p5lsuw6xt7hwNke2XukQ352qFNOdoyYiJPvxBmwZBanUTtly0NEnTQzgWkOfNpG6Ob3aL2UqbGv9UxKS22ZtNaGpLkmJCu0nlc1hqTc7zG9AsXqNORaeUznU8b+bL+c0yivViNYnJvFrOyHtY12Rydlz9IyuX9NlTx4Q5OsrA+Lz2URb89gRE5cHZJvvnhW3j7dI1GVB0eOF7teiagM4KD/xu5muXNdjWxqzb2xz6u0cbM2pZayxWy/ZVN6yWH6NZ+HSL54zuQ4wxPq0A1GpuTycJEcuDoqzx3rlb98+7L8h+fPyP/+0+Oy92ib9A4OqqGdMO8vGDT/U5omzQ1/8t4XW2IIJ6QGr61/TD66PCRtfRENfsZdZwA7B6NmnP5Sf0QGoxPinxbUzSyTxZYKAXe5lhbLAoC2T7SLIpwr6f8GZjOPqR0fHBfpGh6XS72jckoV6sEL/fL2yR55Zn+7PPVhu7yjz0/r9f6RqIyNT5pIO+/oPU7pfSzyoE7rWiSgZTE4OiEXtP6u9ozIwFBEy8VdJXO+e1TePddnVvog3yXT5NiSf6yxt1gKGKKC6cmr2rPaV2Im9o2rQf/xB+3yH548K9/Ze0FeP9YlV9SYDI2y5Mka2ULBLLnU+mLctm8oKlc6B6WrZ1SmmLjhIo53DMlLKoOj6p0yvGQNfWFhjb3FssBAhxrjr48+Nfwj+vjelUF5/ECHmRfz5EdX5YPT3dLZN2oUryW/OPUFYxNTcq43KhcHxszEPTcwOhaVtq5eudozIB3qzDCXyBr6wsMae4tlgYIBCRJBadR4Vg372+d65an97fLswXaN8jvl8MV+uYrBj06YyXOW/MLse2blX+iLyKX+qGvqJBKJyuXOfmlXWRtS5zK62GfjFSjW2FssCxwmgFV5S8wksHGNqg5fHZKnPu6S7711SV450imXuobNZieW/GLmYujjpf4xuTIQMRFwQcytSJPhcZHzPVPSMyJmUua1iZmWgiKnS+/++vUL8u+eOmGEngkcRdbVSAuihPHopOxoYJ19YkvvqGx20DtwpldeO9IuPz7YKcc6h8Wb56VblvQxDVn/IbJix7Yqf7FsaimXm5ZXyM7llbK2MSi1ZaVmn4tM1/Vs6+xPDYyZ3QKZoGZFK1Y/RfpPiZYVa63/pwdWSmtVQCqCud86NVNQ78cZQtI6f/Z4j7xzcUDCqn+8KmPF+polBssQG8I++W021dG637LE5evs/+tr5+VPnjgWu8idogUsqTMxiRTJrS1huWdddULG3lHKH53ulVePdsgP97fLofZhWxduQ+u4SGUDh7os4JVfv6FeHtxcLzetrjHbtTJTOpN8wti/q8b+aLcc6R0VwZBl+LcWNFpGMhyVW1dUyT+9e7nctLJSVteH4i8uPOhJek8Dhz9//rS8f7FfzvZHYrrERg6fROu9pcwvv3dLq9y3sU52qAPuSmOPg0cU+s7pHnnu43ZVNOyphUDoi1YmUofZvFq4S8p9sqo2KJuXVUpFyDuvIqeyiezbVBGf7RiRA5cHpG1wzNaD24hVtHnKxiZr6wLGqKxqCJtd+TJt7B25Os+e6Kr0T3SOSldkXBW/ehtWtn4JBaVOeku53+yixvbWdRWFsxNisuDkXewekTeOd8tVNfQDGtRZvT4LWu8V6mTvWFopq+oD0lRZmvMiyomxd+hRo8IkjhK6eKy3nzE49S7gLZEyjaLook0EDiYa1civf3RMIvpocT8BNfJVIZ/Z0Sxb7W9YDTwnKXIWBg6+ZXYYyiz1Fkm41GsmWS5khiMT0jkYMVG+ZW7YEru81GcOufKrzs41OTX24+rRclgC3RfW1GeOIi1QbLzpMUmwYAn68MpRyFNWKS8KMPAoHOQlW+2PTYCMTKlIEelbZoc6wN8yG89kyfHKFdQ5kw1tfc9PTE/H6jsfVZ5TY2+xWCwWiyX3JNbna7FYLBaLZcFijb3FYrFYLC7HGnuLxWKxWFyONfYWi8Visbgca+wtFovFYnE5OZ+Nb1dnZIEi839KmOqwdWKZThry5GDlKjkSXTJbSFhdniQZaFfpkON19rH1mJbMEltjH1u/magwxbY3jW1lbButZTrIki/FTT+QK87Sd9baW64Php4yZ5fZhbLm3ury5KGefZ7ivO0enRNjT6NHCVyOb9FqyQyqT41SLS9lZzSPNFYEJOgvSUiY+oaj0j08Jt0D4zJsT0SzTANZWlIdMDvuoZwShXbeMxiRjoGIytaE2aHRHHi1MOxX3jBGQD32Si33hnJ/0uWeS9AV7f2j0jU4Lr0j4+LRzC8Q/ySvjKsDjAO9tMYv1UGfOZ8i1+TE2BM9RqJT8vzhdvnR25fiVy3pEtEQalClaGVVQLa2lMkD2xqkubJU/PMchONw9MqAfHC2Tz482yuXeyLxqxaLyJYlYXloS4O01gSkuiyxfdsx9OMqjwdUnt441iEfXhmWrqGohNga21r7eSnW5kqb3aJt+O4NddKqjlZVmS/+amFxvmtYnt5/VQ5cGpQz3SNav+qYWGt/XYYnJiUc8MjDW2KH4KysL8u5E5wzY8+pdz/ad1n+84un41ct6TKi5Tqgxn57fVBuW1EhX9y1RJbWBuc99c7hwPk+Vcqd8vTRLjndMSw+lTzbZBc3nJAwplZ7Y2NYPruhRm5ZUyPrm1UpqTK/nmzEhoWmZN/RTnlejcEr5/vlQt+YlHlL7IGK1wEFPKlltE2N/a9srpUdK6tlZUM49mIBMaJR/UeqN/78lXPy8dVB6R6OSpk6c35r7K8LQVllyCu/fnOz3LmuRja3uvyI22+9cUG+8cxJa1QyRERrblA9xt0NQblnVWLn2TscONsjrx3pkL870CHH2ocllIBCt7gbBnOGta0uqfDLLS3l8qgqpttVMflUnq4XnV8z9s559mf75VR/xBj7wuyQLhwo96HohKyrC8pn11bKr+xolZtWVcVeLBDouensH5WXj3fJnz51Ss73jpp5BuiNwuyDKCyG1dhXh33yu/Ejbm9YtgiM/f+lxt6rAsKpT5bUmVRJGVNDH9G0vS4gd6xM3tjvVWP/84+75ETHiDAfy9bI4gZFMK7/BFR+qohCdrXIg1vqpL6iVGWqJPamOfiUsT8/IGcGxqTKVxKTraxrmYXJlLbjcS27UTUGFf4SaakslT+4d4V8bmuDcbBybRDmgsNujlwZkBcOdcg3XzgjvRrlh4Ne8epr80uGBUa0fmvLfPJbu1vlrvU1smVJ7o19XpxuJu1g7G1KL+E0ebUsU21syBoTbLz6xHHAbFq8CRko1TQxMSVt/WNyuXdEOnojMqaKKhXo/i8uiZ30Ndvv2UQSM+YdKC6WkeikHO8clvPdo9I9OGbmQBQKauvlYtewnGsfNKdkIifBkmKT99nvy6bpyehqrWNWTunTvJC3Hja6hSypU6wFmG60xMejE5Px4ylj1ywWorhIdEK61eC39Y3IuBohS3agDaOEfeoU0TPSPTwu5zCqHcMyOlZIxn5KTl/qleOXeqTEUyR+hmfQQfHXLYVP3oy9JX0y0dCw8dbOWxycrkVkom9kXNoHxmRQDT/rqi3ZwRS5/kOX/oQ+XuqJyMn2IRnVci8EeoeicvzqgBzuGJUz/eMypRGqt0CXBlrmxtbYAiYT6pdpefnqVrIUJhh8FENvZFyuqLHvV6MfSbEr35IgWuhsqIMRvdo/KifbBmVIy59elnzTMzQmxy4PysnuiFwdVTnQvNIdbVlY5K3KnAjCkhpM0JtKswz5ON2HjCfZ+rA4MDGsVI1Omxr6Y+0j0tY3JsNqeCzZo2hqSgLaDms8JdI7OGYmzXb0F0a5D4yOy6XOIZlQhy+gVp7tYOyEy4VHTmfj/83rF+TfPXVCvPFJO5bUoMJMl9/EpGmAW2r9ctvKKvnVO5bL8vrwvLPxzWdVsRw62yt7j3bI44e75Gj7sDX2lmsYhaD/MDa7si4ov3/bUtm1slKW1gTN67Mx69I7dRZCZja+OpP6umV+nHKH1fVB+YPPLJedKyqkpXrucs8m1Cc75r1+vEsef++yvH9xQC70R8xEM6u+k4O5UQ1hv/zWLS3ymQ21eZmNn1Nj/19fOy9/+otjGjoUW+OSBqbCKD/WSY1PyJYar9y1ukp+4+41sqqxbF5j7yjlw+d65XU19t/7qEMOtA0RzpmvtFgchUAbXamG5g9vb5U711bLmqby+Cuf5lPG/lSvHOmLSBFL9vR7bCR4fa4VkZYju2L+0z2t8pl1NbJ1aUX8hdzCJjpXekflF/vb5DtvX5JLauj7IhMsp7K6IkmmNChrYZ29Os73b3LxOnsUwZgapucOtcsP3rkU0yKW9CFaUsWwrMonm1rCctemRmmoCIiXhc1zQGWzdOZM+6B8fKFfXj/dIxfYLtfWiWUW6su9ct+GOtncWibLakPxq5/GyJXK45HzffL+iS45cGVILg9GjRNpSRItx5qQV25eWSXbl5abKDAfMEGwUw38e2d65NWjXdI/OmHWi1tdkQJap9UBDco0qt+mdbq6IexOY49Nwus/cWVADp3vjV+1ZIrKsN9sfLK8LijhUk9CQyQ04ss9o3K5e1gGRlQpWyyzEPB5ZGldSJqqSqWu/Pr75F/tHZHzHcPSofJlx/lTx+cpkYqQT8s+ICvr87N1blQN+8DwmFzsGpGzHYN0IsoEytySEqW+EllWF5bGSm1LFf6c947kxNgDMkLjZ4apJbN4WArjLZYA+5DTHZ+AFNGQmWHNemocMYtlNsxkvfgpbImcxIZMjY5NyLg+WsOQOjRhL/vOa9lzCl4+oKeGJZdE+BGtU2rT1mjq0JbYn4BDj/JxqmHOjL3FYrFYLJb8kLeldxaLxWKxWHKDNfYWi8Visbgca+wtFovFYnE51thbLBaLxeJyrLG3WCwWi8XlWGNvsVgsFovLscbeYrFYChxOv2M/DLtO2pIqrllnz/4dbMs7ODpuNoqJNQv2cM71PkUO5GBKPEXF4vEUxzYmKVlcZwKMRWN1MRyd1JIoUs8yvzdPfeDdBvxsbFEiHuoj9lJeYeOS6LiWU2RCxifjR8mqoBTCDuSUGe0q6PVIRcgbv5ofaNFs9MKe7WMqUxwu4rRyN8M9juu9sjFmqNQjpSq7md6Uhd/AoYhouXL4zaTKIXUfK1u3lm9MR3OPxcXFElQdzYY3HDXsxjt2jbGPqsJEUI9eGZBL3cMypcqziErz5Gn3KbxwzQONszrslyW1QfNYskgOkUApd/cPyuWuETndEZFxvWtvnnYCc+AwCk/RlKxsLJOmylIpD/pMw843bFfcPRCRU1cHpX94zFxDbosK4NBwDMCYOiEr60Ny0+rq+NX8gNOBY3S+c0iu9oxKz2BEJlHVediNLKeoho5Exo2RX671gOzWJrB1cTJoNRv9ebmXs/SHtM6jMjGhOhQ5LIA2kg0cHV2i9+jzeWV1Q0iatWyNwXfhLbvG2LNF55BG9Y/vb5N9Z3rVOx032xP6SvJjYNgqdEwFqbnCJxvqw7JrTbXZ4xqPfDFE9+YshIs98uHZHnn5RJ+MTrA3NCdh5w+iZ5/ahQe31suOZRXSXB3S6D7/lYGhP9sxLM8dapNznSMa3WuT5GRITfmGI5RHhsbkMxtr5Z/etzJ+NT8gU0TzH5xWuTrXKwcuDUpEjT/7yLub2FGz1UGP3LaqWrYtK5d1zXOfQJgKBEu9Q1F5/1yfvHikXXqHx802uX4tW/SoG8F5jKhOwImq1LK9d0NML1SGvOYYdrfhGmOPoe8disj/8+JZ+en+dulRT7hE7yyYJxeNo2WGVDFtqAvJHdo4H7mxRW5YXqkGb3GcBU2341tHO+Xpg23yvffbZEiVFWeb55NhVV44W3901zJ5aGuDrG0uy8se1TNp64vIoYsD8t9ePSf7L/TFThYrEMY12hvqjchv3L5U/ux3t8Wv5geM/ZiWzQsHr8qzhzrk8Y+7jBEMuT2yVwb1vpvK/PLlLbVy/+YG2bO+NqNBA0Mjl3pG5OkD7fI3b16UtuGoDOtvoj/z66JnD05pGVaZCmkk36QG/nf2LJXPbq6T5qpS4wC4Dde1khJtAYGSYqlSj7RcU6k+v5ZUKXzi75nXeD7zPdf7zGx/a6KRhPTRvwgM+7wgYVo+Hm1Qs5YlievTX5vtfde7lsDrzJ0QfV6I3hY5YojHO9t9kBK4v0+8lsg1ns98j3Mtfp1DWILlPinVyKfg0HqkzD6RfydNv6+Z95jMtelp5uv8Pf3azL/nuzbf3zOv6fOgJnM0ddeoXOob1ah7MqMHWNGb1DU4Lj1q5DnECP1VqfoTHTZfvq6l6e+ZmWZ7feb3TH8tkWsZ+Az3hp2oUsMe1kdvAeqFTOI6Y099qV0xBr9UFYFHLziJyqR7Zq5r5nn8+myvz3aNx099Rq8xGS+gz32aFjd6/1oGReqEzVaWprziySm72cpzvmvO8+nfPfMaz5mEY4x9IVYJxaR55NRC5x7mupfZrs18fbZrs34m/tq190xL+r95b025X8ryPDnvU1CHKlN0MU/Pv7mH6fc5454/9fo812am6a9fe//0a/H0qc/Mdm3G93zi9WnXnOfoM2YhX+xVY898haExc8JgJtCvNRMe2/tH1eDr9+pzr5ZrcEbeZsuXk5z3zEyJ3h+PM1+f79rM12e7Nt9nePRpCmgKatn69VH/dzWuM/YzUZm9lhzmuuYw1+uzXXOY+TqPfhUiBMvySaaXlVNeMPP5bK/Pdm06M1+HmX8vBJz7mO1eZrvm4Lw+27XpzPb6zPeYuQN6sVEj+5pggRn7aUzP/8x7mP7nrK/Pc21mcpj+3GHm67N9ZrZrDtd7HePEn12DUdPdfrFzSEZGM3NcOGPXI9FxM7GZIaXRiVivwfQ8zZUvh5nvdZLDXNemM/N1mOuag/P6bNemM/P1xYhrjf1sFZ5L+GknWSzJUCjKKKK2nrknVWroKwJuHbldGCAS+F7M5+geGperGuGPRCdiL6YJ853a+sbkZKcae43sfcWLY17RYsOdxt4KqmWBUkhRR1QjvqjmpyLokbJSt894L3xYzjqmUXff8Jhc7ho2RpqlkekyoN9jltx1jEjHgBp7urSttXcd7jT26cu/xZIXGD8tJBiGqtSoPuzC2ckLla6BUTl6sUeudA+bPRrSnag3NBSRzq5B01vQq4Z/SuvcqlD34Tpjj9yT8ILzqTj5bdbaT9hWUzgWjHyYFP+7wCBKi8lufouMPDBeT2zHLPCakFfKAoU7Zr9YcESiazgqhzuG5LSmjv5RmUhRyZh61s+e6RyWQ5cGpE+/N5Mz/Asd2hg6Oqr3zH4NbtfVrjP2TuU59eYozlwn8hEZn4pNclrMUBiUgT46ZZOvZISiQFs0+UNWpsvLzPznKqHwGRtmlL5cI/q6cr+UF+LSuziz3YMbk0PH2JQc6JmQw21Dcr5j2HTtp4Kp5+ikvHdxUF481Sejqq9YklZk2uunf99tyWyqo/pgSGV9cHzC2A0347pNdf5q7wV58UiX2dSFCs0XNCSEaFVNQHYuLZMHtjbJ5iUVi2hTnSl591S3vHCkQ370YbuMRyeksjS/BmNwbEKKNVL9Z3ta5d6NtWZHQ9a15xt20Dt2ZUj++97z8vHlgbxPOUEJIr8lqviXq/z++i0t8R0Hg/F35AfyFNU2tfdoh7ys6ZnjvRLROsUhWQzQW4ldH9AyiOjzL2+qkfs31MqutbVSFvSaZYjJwA55gyPj8n8/e0p+9sFVCWo5Mut/sYzXO+Xp9RRJ0F8iv3pzi9yt5enWTXVcY+yHI+NmX/HHP2yTd8+oElCP1TlTJB+MqyANqyQtq/TLtuaQ7F5XJ6sbyly77/JMUMwHL/TLW6d75LmPO2VCy6LMk98GNKoCgQF7dEej7FpZKS1qvAphu1zGXc91Dss/vHtZTl4djl/NPzimS2pK5eFtjbKqISQVIV/8lfyAExLV6PPAmR5t4z2y90yfWWseKIBthXPJkEahI+pM37myXG5ZUSU3rKw2xj5ZIz2iOpPJfn+pAdILH3dJfchrlgsvNsyae9XLD2ypl50rKqWhIrY/vttwjbEnkmdXqRNXB+VS76hMqaH/ZWd+7lG9ZHqMy9RjrA97pbUmKJVh36LxmlHMV3pG5EpvROsjYox/voNozYIpf3PghTbosqAn6WgoG7AFbP9wVI5cHpSe+EE4hQA7jrHsblldUCr0kZMC8wmtmV3kugbG5ErfqJzvGTWRfgH4azmFaJRhwmqtk4ZynyytC5kT25LVLcgdJy1+rHJ3oXtY/Frfi0Q9fQI2/EINrNRy5CCccKmnIIKATOMaY49xIZLv1yiJfZ4LBYSG3ZmCpd6C2Ic9V+DsDEWi5oCiMfV6+LsQ4ASvkM9jtoE1G5UUQJt2IlYMfqrjr9mAJVjILAcYUVaFcEIgjGlZ0QVNbx5O5GKG+ikPeE1XdLKOK2VHWVKOlOdiJ+SP6wWXOj2uMfYOGJVCuiFHZgrBqOQaUw/xyiiUOink+rCymziObBVSeeUDqibd+ik0ucsXmSjLQsZ1xt5isVgsFssnWXyzMSwWi8ViWWRYY2+xWCwWi8uxxt5isVgsFpdjjb3FYrFYLC7HGnuLxWKxWFyO62bjs+yWbRALDdbAunlZx2w4S3oKsT4snwTZVAldEDJaqG28EDAbxJjH2N8zsWU3NwupDaSC64w922cW2v4QyI7fU+TKXZnmg007zOEuWh9WvRQ27PfEcbbswlboyo6tsPV/ywyoNlOPqmfm2k2PTXTY5MryaRZSG0gF1xj76MSkORTj/fP9crpzxBiafN9YkWagIsB2uT5Z3RiWhnK/awVpJuwK19EzLOe7RuVw27A5UcqzCPfdLnSI8th5cmNTSNbWh6Q8VLg7PRKQ0q5Ptw/K2Y4RudgXMXJVKDv70d5hKg/Z4bepttYKvznPYFldSAOMkmu6JqIR0MDIuHx8ZUhOdQ6b45Qpz3zlFfLx2zMhL+wOyWl/65tDsrQ6YI5zttvlFjDOqXd/9vI5efpwR/63aNXf5qjIVXUB2bG0TB7a1ixbF9Gpdxx8c+Bkp7x0pEP+7sNOGdRQLFxaEnPAXCFx7gBjP6Vt5ddubpYv3NAgS2pDZm/wQiS2veukvHDwqrx0uFNePNEjAypXBXFoCe1dy5KmPYmFzXEb57eDarB2Ly+XO9fVyH1bG6V82uE4PYNj5jjc779/WZ491CHjGuFPaqZNXnNMsfEy8lNO08HQU25hX4lUBjzy1V0t8hl76l3h4xj7//TiWfnFQTX2qhTwXh0YM/eq4HOAhL5k9v12jC5dzfRs8TqY8/BpuPHP8C1R0/U189qkPi/WBsWnUEZ8Vq/pBS7x+qraoOxYUiYP72iR7csW0xG3k/LusU557uN2+d4H7TIanZIKNfaUI3VgyS9UwajWUWulX/YsrZD7ttTLrlXVGtV4CuLY39mYbuyfV4P15NFuGdKINVASP+dA3zOz7QLXCNToogX90wQD3GaJvo/X6YkC2jNv45q+dO07+Mz07+E5+XHg9wJxp4Mz4nkfhhZ55xvIH/AJc03/5LvNMFf8e3g/1/hussNz3gfTr5mzFOKfMXpNvxtdx/ONjUG5fXW1fPGmJqmvKJWgP+a4Xekdkf3n+9XYX5UXjnZKmO/W62P6uU/oMP1ao9f0Aq/Hfjf2W9OvzSxP55pzz055Ot3i0++ZJ3zn9PfNpUf5hV/mIXav06/NVs+z5kHfx+sz65mjuHEWywMl8pu3LpH7N9W51tgXZqtOA6qS+uR0LFOv11Ks0ZkuJPMG/VsfnGQkNn6dz5rP6KPx1uPXP30t9l3XviN+zXk/Dxg2M6TAH4sMDR4kovceofFSDtqwaFw82pT7RNmTRtVgcvwyp5wtrw7KXeuqZV1TyESCC2WoRUVKxlSmjKHUx2tt0vyt/8evm3aozz/R1uPXzd98mfmbx+nPY4+f/lz8ORkw1/Spfj+JU+iqQ95rBvyXnyHN+B79fOz5tDTtmtEX+v+1z5jf0+/Uh098hmv6yNv5zfbBqFzuj0i3PjKsCbzGYTdt3YMmIGJek4pBjGnfEfsd/WfaNfNh88jrXNMn8fc4n5l57ZOf0UfNOzqQ5yE1ouXq9JerU8m9xHRj7DPO9zmfn/l7sfd88tr0ep4vD3PVs+nd0OfO17gZ1xl7vDomw3E8Z0ATjySfKjE8Obw8/uZ9eJokrqH4uEZyPmOOfLzONcZ2rn2PPucar+Flcza043UuXvT+KQNNU5p88bqxKQ9JIxi/r1jGVTanNG1tCctda6vklnW10lIdkpK4LC8YVJ5wTrg30+Y00T6d++XatXaqj9wbafo1/d/oBuczscltsWu+aZ/RQPBae+ZvegavfUavcX1jQ8ikqD6PaPZi8v5L3WO+RxPfw+f5m8853+Nc43d5j/5v/nZ+b6YOI/E+rvE9pN7RCbkyMCZtAxEZUmOP/SLgGB6OSHt7t0wMj0hQ36fN8JflEP9dkqPDTNnE79n5rell7JQDafo1/f8Tn7lW7pqPgMpeY7lPVlcHZJWmoMqjR19ET8+pR+PfPVsepl8jzZcHrn2inrkWv7+Q/l2meeGzbkZv111QXSSMLXU3PQHCxPP4n4bp10jTP3O9azw6TL/mCC7PFz3xQihW1cPT6WVpU+4SEQxzJ0KqdFfXBuSONTWyc0W1VIZ9pitT37JwMJmN5Zh74xlp+v1Ov0ZbdJh5beZnnGvzfYZH87cxyDFj01LllxVarrVBj5nwxWAfb5/+PcDfM79ntu+ezvRrc32Gp0zE6xmKyoXOIfPI3JkRjerbB6LycfuYOgOTJm/oR95vvsN8Q4zp15zn135r+us8iTPzGo/XPhO/BmV+j6ypDcoSLacaLSO66fmw890OPHeuOc+vfd91rs2XB+dv5xqXSZQF3fxcdzOuM/bgVK6lgFBDc607zZJziPBYrjakyr825JWdGtXfsaZWNrWWayTlSjWQdShTJplNqlBj8GvK/NJaHZTmMp+Uq/Nkut5zDMM0fcNROd85LN2DEbPUbmg0qtF+VA52qSMwGuslyIdhqwh4ZHVdQJo1ug/5Yz0Xltxhi9ticTEsb5rQxIQ0uodXqkG6a1WVPLy9SZbU+M2winXA0mNMrf6QOrM+X4nUlXlNF3VFqceMjTsTwnLJyNiEnO+JSPfwuIxppN/eNSyXOgelfXBMhshTjqMhfo1JnyEtk9qKUimNTxq05BZXGnunffGAsstHwqlnrIyJH5YYs5WTTdlNyB+zmxmjbNSIc/eyCrlVjf32ZeVSHfKZ7mc3kOu27kBvFZPzzKz2EpGq0hJZWumXcjVs49r+r+miWb4jG4n6jGg0f743ZuyZjHmqfUjOdIyYlQzopNk+l7VEGekjKxWI7GvDHn2uF6aR67q7lmI/v2hwdWRPZca62XKfmAcb0WiK5R4WZZYysin7CfljGSTLHjc3l8kXb2yWHcsrpTzoc1X3PRMOZ7v/bCWMhf5v1oybGeIsFStiPoRIQ9grYf8vl27FjMvs35PJxIRAlqZR3xc0su8dUWMfnZIPLw/J0faRa5MFYbbPZyOh/RgPL/eVSG2gWOrDYsrIwehozfdsn812ok4WU7eW69bZ/z/Pn5HH97fLCF5s/LW8gJKNTMiq2oDsVOXKutebVlRJWL1bt0RT84HCef3jDnn6YJt8/4M2s/lJqTZ4Sw5RI8RsY5aE3bm6Svasrpbd+lgd9ktomjFaKDjr7J/+6Io8faBdnjrSJcPRCSNXRnHnkOm/xhI3v7bp//TV9bJ7RYUcujgo//hhuzxxuCM2G11TrpQs+ZrSMhrXPP3Ktka5dU2VPP7+VTl8dUAGNfggL8xmzxkqgwGtm3U1pXLfphr5+p4W2Xe6T1483CUvHu2WtuGolORRL7DxWdhbYiYM/tZtS+X+zXadfcFDcyIhyGZTG5IKWd6S5oMxUpI62/G1uHmYsZM3UHKxSKJSE8t9Zi0nm7KTtAZIVepcrqoLyu3ramXP2mppqgosSEMPelsmFU+Tq4Am5GzWMshiYkIehrPIU2KWNFbpY8Dnk1CgVBorA1Jd7jNj0yUaTfPe2b4jG8n8lioc9M6FriF560S3XOoeNvMHvGrA6M2Z7XPZTIzX14W90lhWKlVlYfFrOaGfyaN3lvfnMpk61EcVKqOzCcT4z424JrIfjYzJ8MiIvHCsTw5eHv7EeFle4MfVwDeV+WWFKtvNS8vNTF2zK5Q7ZekTEIWdvDooRy8PyIGL/TLEVHBtSJZcofKn/7dWlsrq+pCsb+ZshljEslDlj+aM03zkcr/K1aA+DuRfrvhpzRNOxyM7mmR1Y0hGIhPy/rk+Tb2mh5Hd3HJKXPcwbyCgUXOvRs8RJm6wsDznTJmlfkxa3NhSJtuWV8mJqwNyWHXC8bYh6deyymv9aVmxPj+oztqetbWyqSUsZVpurPV3G64x9uPj4xKJRORcz7h0Do3Hr+afMo2iqkIeqVWvtlD3HM8G6Bv24+4aGpNOfcy5wrMYmB3eVO6XYGnhHnCTDEiRI1ddA1EZw4gVAHTX41RVh2MD0h0Do3K1N2K2znW2w12sUDZVQSbn+aRGZbFX6w+d0KN62jgheYY5BfR4tFaXmjzSE+HGuMQ1xh7YYpKIspDalukh0n9Ml5ELBWg+nG0oicYs+cHIntp40+0cv7bQKVS5IhqkvCGmh/Lcu1hAxHQgnQtFsfpTG5+PZYnzQRc++XOrmnaVsbdYLBaLxfJpFn6/nsVisVgslnmxxt5isVgsFpdjjb3FYrFYLC7HGnuLxWKxWFyONfYWi8Visbgca+wtFovFYnE51thbLBaLxeJy3LOD3sSkRKKT0jYQkd6hcZmYnDSb7OQbticNlpZIbchvdtArKXHvpg3Toez7B0elZ3hMOgYntD7Us7SuZc5A9Cnz6rBX6st8Eg4s/B30uCc2YunQNt49OCYDIxNGzvItV2wQw6Yxy+uCZge9mW2cw3sGR6LSrvnuGRyPb3IUf9FlcOd+b7FUBj1SVx5QmYvtNw/UH/XVFd8BcTgyYfR2vuGsBfLYUOGTqqDP5N/ZHMlNuMbYO6fevXmqT45cGZDRSNSc3ZxX9Odry/zSWhOU7UsrZZk+lvrcuRXjTHC2Tl3slI8v9Mm+C6PmuF+PNnxLbmB3uWhUZHNrmdy8skqWqSGqmH626AKEXemiahzeO9MrBy/0y9n2IRlXOcu3XE2Mq2yzN/6NLbJ1WYU5GGd6G+9Tw3auc1j2neqRQ5cGxOvBwLiwLai+Y2vcuqBX1jSVy641NVKmz/3x+sFRG1c98NH5PjmgeoEDejD4+Y5+fBxm5PPKrasqZXNLWCo1MGPLXLfhOmP/vbcuy8vHu6V3NJq/Pakd4VXBXl4dkK2tYfnsliZVvOWLxtjjsb93okP2Hu2Upw52S59GN8Wctmbc+/ibLNlBo5Ip/W9S5a9KDfySqoA8tLlOblpeIUvV4eTM84WIMfYqR68d7ZDXjnXJ66d6pX9sQopRzPmSK23Mk5qHsEaH/+oLa+XeTXWfOuyqbziqhm1Evv/uZXnyQLsZOy3iH33fgm8P3Cj3iq7VewlqXdy+slJuW1sjt62vk6C2+U9E9vrfG6oTXtU6fPNEr7Rr2QhH3Oa6HMgSedd8B70lUlnqka/sbJI719VIfXmpie7dhuuM/X964Yw8/lG79KrHOIYAxmURQZqKydysFF3n9dmY8zMIN6WqimldbUBuVm//sV2t5jz7xWTsXzvcIU8faJMfvHdFeqMagXEQkFEKs5dbMnVg3pbA+/lOSPh785iHjOXVEbB4WYdUmT68pU7u21Bnzjev1GhrIZ7XjbGnS/yFg1fl2YPt8vjhLulRQ+tBMcfvdTayVqf6nikt6wnVNWX6+M1f32JOvpvZjT8UGZeO/jH5qzfOy/ffuSw9auCiatw81MEsRi6pPCiZep9DouXFW7h/81zLf0pThcra125qlAc318suNfj+WeTspYNt8vT+q/Lk/g65NBSVouAv9YLD9fKQaB4dPvX+aW2kTB2U2oBXfu+OpfLg1nrXnmfvOmP/zZfPydMHOySiSmBCr0+p91akDYqqnZzubk/jl6+bv/jnupjz8xEgfc5vfAL+1BdoACuqS2VbS1geualVdiyvXFTG/s0jauwPt8v3PuxQJT0h5fEGNGuZ6dXiucpzFhKtM94HiXxn6nmY/72J5iGZvDq/jQKLPZuG86e5ETUqeoEx1B1LK+SRGxpkU2uZOW55ofEJY3+oQx4/2i2j+ne5iQzjb/oU2ZerwbFxc3LaN391kzyyvfFTxp6u60h0Ql441K6R/VV5+Uy/dKvBryLf+saZ9ZdKHuYj0feB+W3KS9863/t/mcfYe4r1b34FR/K3b2mRezbUyKrGMtPLMROM/bOaXjzWI21aDl4tB37TwfnuWWXbkIE65UG/AB0d1t+vDnjka7e0yt0ba11r7F3XV0EdYkwRMp8+mZ78erczr5mkjZNH/8zriaT4Zz+RVADVppvnjGG56cSxZDD3TUL5mTKJpdnK+dq12cpznpRInfGeOet+Wko9D0l89xyJ70jkXq6l+fJIWTvlre9jQhjR5MdXBuT5wx3y0fl+6RqIGMO5YKFB6T2ikq/d6ywp9Tqd/frMxJCImczlpFmgG7tUDUqrGpENjWGpVscrke9P9D3zyV9KcuWk2V53Uvx1vt/LbavhpCt8md7jstqg1JWVGgdoTvSlYv0OL98xs/6u89vX7ud6eXTStbxOu2Z+85flFqvHeN5cit6u+3BkjAc8TqcO8R75e2ZyvMq5Xp8tXf8zsdctszOzvJKtg+vVqZMSfR8p23mY7TUnXfvt67zPSYnmle8j+opqBHOhe1SePNghb53slvOdwzISGTe9yAud2e7bSYmWk5OSrdNEQB9h8GvKfLJUDWGNGsUAlkV/Y7bfSTYP872P18x7NM32+sx07f3X++1p76P7nnPpy0pLZFWNGvuagDm3PtFJiPN998zXEnl9Zpr7/bHriwVXGnuLxRJHFVqJKjaiGwwOSvngxQF56kCbnGoflqHRqCsM/kKAWd7LakKyotwjtX4xdZG3ScQZZFxvYUjvozzkk1UNYQkxN8dScLjS2FvlVZjYask9xFYkj4aXau9N2zjdNSJ7T/XKfpY/9YyY5Wu2brJPyO+Rhgq/rNDot0GjfOYguMDWG4ji6/Te1jWVSZnep6XwsJG9JTeosWHmbjIzaC2ZhbHl0pJis1Ll484Ree1Ej3x0rl9Go2rs3WJ1ChiPeltlGvWuaCiX5uqwK9ba4zwy5l3lKZaVVUHZ1FIu5QFv/FVLIeE6Y89GOoxP0kUWGecxP2lkfFL6NY3o80UN2kDrYlITE8LG8lgniz2xFJW2wS5mY9EJOXCxX/ae6JZ9J7rkskb4bMSzYKSVjBq5mv1ec5EoS0JzMyaMnJPmgbF7jxrFuvJSqdbInkmrdOPP9t0LImlbHtA2HdV7qwl5TWKXUJya60FR8R2j6OmZ35vDNKaJPAxzH9Sni3GVsXdEzGl3dE6ya1M+UlR/f3hSjZs+4sHTsBcb3DIzcj2UAYZE02xlZVMOk7YJM4Nb6+d894i8e7ZXXjnSLqfbhswyNgx+oUNbYha+V++HZVWz3mcOEg4HyxqZjU7HNcr0eqXH6pzqMr/UhH3iV8NPG5ntuxdCGtc0qmlKjXtThV+qghj6WLufD/O6Jj7PeH9sOCNPSWuMfETIg5O3a5bEXbhmnf1oZEyGRkblb16/LC8f6zEem9Zh3jANITopy9hBb0m5PLC5QTa1lC2adfY04P1qSF4/3iVPHGiXobEJCbhw7epChRieqDKgBqc64JXPbKyVPWurZVltyERnhQgyxQ56bx7tkNdPdMlrJ3tlWNtYvuQKw0Bbpp0z+fF/eWiN3L2h9poRnw3W3PcMjskbJ7vl7966KAOj4xLVawsRZIjyr1Pn5abl5XLPhnqzaZNZbht/z2y8fYwd9NrltVOx/Qaov3yqRL96a2w89dhNzXL7uhqp0ftZ6OdIzIZrjP34+LhEIhF56WivHLo8SA+fimL+IEIa00zUhOJ74y8rN4YfIZpLEbgJ7v9s57AcuzIoH5zrlYgq6dk22LDkF2ejms0t5WYf/RV1ISkLFKaxJxLDWB671C/HrwzIkbZhk/d872POfv2e4mL53LZGs2HRfMaeAIQ8H7s6KK9+3GGc4IXafcy9cO+V6ixu0Pte3xSWlSo/1+P45X45erHf1N+g3n++DSu9LcxluWVNtWxoZjWBN6GhiIWGa4w945CkvuEJ04DyjVOoTIpi4wgUKAdkLAZDD9w/u4aNjk2a+kCfLZJbX1BQTyhtFC5RPic0FvLe+eR11MjVhIkqC0GuKEPyUK5tPOArNofizJcn7mFY8983Mm4cmLxGJWlC1jGWQb1vdp1LZE956s7Unzo9BGV5lzbNAHmo0PpjL383nngHrjH2Dnj+hdgrRhtw5UlX82DGxLQxo5BdJWQuBekkoil0MS1UucJHYrfCRIyFOZWQQWIXwN3Sacd9J2InTf1pxVGHhVR/dDA4h/a4EdcZe4vFYrFYLJ/k+n0uFovFYrFYFjTW2FssFovF4nKssbdYLBaLxeVYY2+xWCwWi8uxxt5isVgsFpdjjb3FYrFYLC7HNUvvWLfJbmCczx0Zz/+mOg4lRcVmhy82nPB6WMPs3nWcMzGb6kQnZUQf2fCoEJawspGnX+uCDY58npKC2OTIbAM7MSXDKrtRFh8XEMgv55Oz6U6+1yCz/wxrtNlUJ6JyxU50bNmab7lC9yBXnPYW2w47uQxxT2N6P6a96D0V8q4U3CdyEPCVSDDJo2ypP+qLjba4Vw4rKxS9AEG/12zdy/25UU27xtijLEdUiC50DUp3/1j8av6hUYSDXqkv9xtl4FZBmgkNu3cwIh0DEbnSGzEGjZ0E8w3lX1fuk5qwXyrDvoLY6AjDNTAyrrI7JIP6WEggv0vqQlKhMoyDlE9iG9FMSUd/RDq1jfcMjRljkW+54owBGvW65rC281IpKcEkJg5bzvYNjkmntpWOAtJds0H7KVWZaKwqleaqQPxqYuDUsOkZ99k5oPU3GFW9wFbDyZVXtlhSF1TdEFCDr0FZAeiFTOMaYz8yNqGKMipPHGiTD871yQTBPRYnT+Cf44A0qmFZrcpy15pqWVUfmnffbDeBcT96ZcDUxUvHus0BJmV5NhbDWh/FniJ5aGOt3Li0XJbWhszWpvmmdygq57uG5dlDHXJOHyc0n4XAlApqfYVPHtrcKGsbg1KtzlE+ifWATMqHZ3rl/XO98u6lQZlArtj6LI8M0cOgZfV7ty2VXSsrk27jo2PjcqmjXz483y97T/frPWrZ40AUGDhabAm8vjEsO1dUyQ3LK+KvJAbqGOdsP3V3pkfeuzAog5FxKVfnIR8qkSLGUcM54zCc+zc16H1VSnXIm/f9+rOBa4z90Oi4Ks2I/NnL5+QZVZrRaGyv/HxAQ0cxcab9qtqg3LikTB65sUUbR+WiOfUOD/7tk93y9OF2+e67V8z56dW+/B6w0osW1Ub8R7cvUQNWL2ubywqiUbf1ReTwpQH56zcuyKGLquwLZB9VzilfUhOQ/+G2JbJbjdiyBA45ySa0KbruXzh4VZ493CGPH+3RslK58ubvNEXaeq8GGpP65P99bKN8YVtD0mdgjEaicqG9V1480iXff79T+kfGZVT1V0HpCc3L0NikNFb65YGNdWoY6+S2tdXxF5PjpYNt8rQGZY/r/fbqvdYmORyQKTD2HFbm0/rCifntW5fIA5vrpLmq1Ay7ug33uS8FgPFg488XL+ps0b1iTrpQTZGM9ssmtHBLQhCxdgyrIeoYlK7+SPxq4VEookUXdyq+o8/rkdb6SlnVUCEryrwS0EgTI1RIoopOi0zSgyHSVOGTymCaBpo6w5sh5an++GlfSbGEtNLoHSqEYcZsYo19lmCSjrd4cUTxc4LTg5YopDIoFMuwACCSHoqMS9tARHrV6BcyealW/U2MHzaZnycPnOWerLwzPhzwe6W2rFRW1QbE7y+REW03E+ZLY+8pBDCGHGe7ojakeU1/SMev3+fVR3ObebpP9HOJ/jjzBnjuZlxv7GMNMPcJwfGph+52bzEZZiunXCbzD/XB8wJnZt7zktTgMNeic2hc+tToFzqz3kMWE9B9n6kAvCxQIisbw1KqBnU4buyZCzD9N/ORaC88MLbeVOaX1Y0hqdPHdKAZBvQfDL7DbL+d7bSYcK2xX4yVaXEH+ZZbjJcxYqqIx/WP7uFx6R8tnOWsbqUy6JP1LRVSGcrvRMiZjExMSXd0Qhoq/bKmvlSCavQX0xJit2C78S0WyydBj2syy0T1aefQmPSpwbdkl7BG9MvrQ2YFT7m3xCw1ZLZ4pnoOUoUVEMOaWqsCsq4hLMEkJyBaCgNr7C2WAoNpDvmkSH+/WI1MGZOXVKuz9ruzwMfs3QCzwivCPlldHZDVGkWz8mBQI2p6WJgbkDdUIIvHp2S1OiIbWsrNplSWhYdrjT0KM59Kk5m0rEstkCXTFlhAdZFvgw+odAx/vxr64QLb7KcQwP4Wa0Vlyg6bSb3qYC1RQ7+qJiCekiIT3Ru5zYM8GB2mCizgKZaWMp+0VpZKfZnf5DFjcHt5uDcohDaWS1wf2VOh+UhmC8yJydjuWhbDzDLKdVpozHYPuUxYMbM97fC4jEYKd8x+Zr5zkRxwhjD2zqVpL6VMc0WprK4LSJjNZvjyuMGfLR/ZTKbuVYeV+T2yviEkTWrsGWrI5O5y+jOxxxm/nYtkfndGcjO2G9+SZbQJOdGJZUFxTQFqdDc1HtvqFANg0XKJi3RsNj5/TJmdD1muGCu01GHcfseKatmgjzWlHomMT2oVpPmlKUCvJEsAG2sC8tnNdbK8NiA+T+rbfXMLjgxRTMP6z2ge7suBPBCQDWv59kcnTE+sm3HPdrkaefSPjMnf77ssb5zsMUKVrx30ICZIU9Ja4ZeNjSH5zKZ6Wd9cJn7v4lh7j9I7cKZH66JLfn4ktl1uhUYq+WRA8yAlxfK1HQ1yx+oqVarhzHZJpkj3wJicbB+Wn3x4WU62xbbLzf+0LFXOqtU5oKWna1Q+d0OD/G9fXKdRXay7OR8gU8jRW8c75c1T3bL3/IDZbTB/2+WyYkHlajQ2xPE/379a7t5Qk/aW2PQGnu8clh+8fVE+vjxoNjbyacHnWlTZyLFvfEJuXVkpX93WIMvr1PkoT33JHUYevfzeyW5540SXvHpuwJRdlS8/9Yd5QEd71IHhAJwv7WiU29dUS53eo90ut4BhMgsH4bDd6IXuYeNd5/vGcDbK1DOvDnplRUPICJFHG22edGVOoWF39I3K+a4ROXJ1yIw9ogTzCadsoaA3NYVlWW2p1JSVmhnn+WZY5ZZDXQ6r7HYPxg5CKZRGOa5lxvat65vK5G6N7vJZWhh7jMXZjkG51D0qHVpm/J3vZWDm9D3Nw63qQK6oC6bdxjH2A2rgj18ZlPaBiDGI5utyfZ/ahhm8aaoolTX1AanW9hJWfZYqjrG/0Dkk5zpH5FL/mJnpz5yAfIGOZiMkinZTS7nqhZCE/Pk/4TEbuMbYO4qgWxXAYNzTLgS8JUVmr+yyUq85QcyNpynNBkI1Ghk3dcE6bRpVvhuQ0xWK84XSoj7Mjmd5BrnlKOCeoYh5LCRQ0HQjV4V8sqQ6uVPOMg3VRx1iCNnZj3xps887jlw1lZdKWdCTtvNBmeNAcJ8cDx1hs4M8EtTIm6Al4POY47pThWLi3jiwDAdmiDMF9Bq71xUCNSrjzElAZxeAWsg4rjH2FovFYrFYZsd9AxMWi8VisVg+gTX2FovFYrG4HGvsLRaLxWJxOdbYWywWi8Xicqyxt1gsFovF5Vhjb7FYLBaLy8np0jvWWRbCzmBuJZX1vbZOLNcjGblazPJkNmeJP88WrFPPBdxJttaaL2YZyecGUDk19mx8Q7JkHvalKEly5y5qgq1Zc6VALAsP5CmZHeEWaxuneEpKirKqzGmm45OT5jHbcOJetu5l0cpIkm0p0+TE2FOv7BJ29HK/fHSuz+w4tfiqOvPQYDiCsqHMK61VAVnTWCblQa9pqHOBosC4dwxE5HJPRM52DknvsD2r3PJpcCArA17Z2FImDRWlUqGyNReOXJ1XeYpt8zpmdkjj7IF8KbdcgW5jd8jb1tbIirpQVnZgo51f6R2VN453md3n5mvjqRDT0ZNmp0+29d7UEpYW1SmZxJGRs+1DJl3si+0Yyb0sBhlhJ9VNzWWytCYgtdqecn3LOTH2GCX2rX/qQJt8783zRrCoeEt6sKUmjWVTQ1BuXF4h92xtlGZtoAjVXFDu1MfRKwPywdleef1Ej5zvHpYSt7c2S8LQNHHIS1UJL1F5eviGJtmytNwccToXKHHk6t0TXfLSwaty4OqIdAxFjSzms+syF0S0DXJwyh/ct0ruXF9j7jnTt0w7P3RhQP7ixdNyUY1+kTZxyjVTP0Pd8Rut1QG5YWmF3LelTra2lsdfzQyOjLx9rEudlk7Zd7ZfetVxYdtqtzManZAKdZwf3t4gu1ZVyvrmipw7ODk19t96+6L8h2dPSUDv0mttS9qMqrc4PD4hOxtDcufqKnl41xJZWhuc19gDBv/g+V5541in/Phwp5xoH5agRia2SiwwpvLB8aOVKkcbG0LyW7ctNc5kIsZ+38cd8tyHV+SFc/1yrn9Mwt4S00PgZkbixv4bj26Qh7bWZ6U3g8j+0IV++fMXTstHlwfk6rAaSS1YX4Z+h+33hzSy37msUh7DIKk+WV0fir+aOdA9rxxul+cOXZVnj/RI53DUnNvvdoY0MKsO+eQ3djXLZ9bXyjZ1qFxt7P/76xfk/3z6hDEsPrdrgCxDpUUoV1U0OxsCcpc2zi/vWSbL6kLXNfZw4GyPvHakQ/7xUKccU2NfSpRgq2TRg1yNqVxh7Ov8HtnWHJbfu2Op3LCsQuorEjD2hzvk2fcuybPnB+SMGntONMtwj3NBQXkNadTmUQP/zV/dJI9sbzRj95m+ZU6NPHZ1UL79+nl55VSvHGgfkgotWwx+2nAT+jVT+l13rauR39ndKmuaQtI4T32nw0sH2+TpA5qOdEnnUFSC6hC6PdLgzPyasE9+55ZWuWfDIjD233rjgnzjmZNGAXitsU8ZKmxSJYXjIenK31pbKntWViZt7F9XY//M0W452TFiDb3FyBVHtUYnJ03XdJMqp60tZRrZL5HNrWVSGZ77LPPpxv659y7LK5cG5NxAVPy+YrO+tzjrWib3mHaoeqxvdFzbT1HM2G9ryIqxhwvdI/Lk/nZ56uNOefFUl9SqkQyrLk0Xom3mGVQFPHLfplr5Ta3vqpBfQmkcZzsfGPtnD7XJyyd6pXMwKoEE9NVCZ1T1dG2ZRva7W+ROdag2tebe2Oe8lM39ubDh5xLKsFgLMROVF1UFTbJVYkGuilQSiuLC0FpVKpubwtJQ4ZeARvmJgjSNTqqCUytSWAf2LmzK1HHa2uSXVdVeCauT4cmQteD8fJmalPrSCWkIFEkZx7xmwIlIiBwbvPyS35vNm0uFN2lJHRSyo5RThY/T0GONPXbNsrhBplAKJaqYGsv9srI+aM6y99PVmiCIUlQb+Fj8j0Wlz7NIQI39itpSWVrhkwpPiRp7elTiL6YBwzY4ZQ2hEmkoK5GgOnaZnu1vyT95M/YWi6XwwAlnlnepWpLyoEcq1dAz4SwVivTL6L5P1ym1xCgpUUMcUOerLKhG2Sceje7HJtJfdx/RL5jQOm6pLZfGyrBZC+72FRSLkbwZeytL6TGl5UdKBz6OwiDZ8MviwOTZco3uqoI+Nfg+KU45yiuKyWn8L0t6FKsRLvV7pU4N/YrqUvF6i2XEROXplXCpp1jKA16prw5LZVkg57rZykhuyLmxt5WaPpThpCrSTIyHMlGSZG29xWmbLCOrDnk0eU10b5zBFECJI6PpOqWWGFSD31Nkovq1jQHx+Uti8yK04lLRq/QI8NlyX4k0h/1SXxWS8DyTMLMB+Way8eKQkVgtpVJXmcAuvVugUGmxpXcTsrMhmPLSu3841CnH7dI7izLJpLqJCVlZHZA7VlbKA9sa5aaVVRJUo8IOcfMxfTb+M+9dkifP9cvp/jEp98bGlt0K7XCIHe208Xzz65vlkR1NWZuN73CuY8jsRPrXb12St8/1mm5S9jb0J6lTmZgbmZiSbXUB2bOiQr58y1JZ1RSWYJbXvZuld6Sj3WbjpaA6l25XPYtv6d3bF+Ubz54yxt5rLUvaRCYmzWYNO9TY376qUr64a6ksrUt8U503j3XKT9hUp2NE64ROV1sni5kpFYwI8rSkQr6yo0F2rKqSlQ3h+Kvz4xj79450ygsfXZEXzw+YTXVCKotu9+tHRsaNPvv3X90oD25ryPoWwX1qIM93j8hfv3ZOXj3ZLX3RSWGtRGmyxp5NuVSH3L+8Qu5fVy133tAk9ZWZ3SJ3Juie1460y/OHNR3vMUvvQsz8d7uMjE9JtRr7f3Jzs9y5tlq2aBtztbFnu9y/e/O84MdZW58+zKJnJm1rhV+2tJTJQzuaZYlGZfMZexob9cF2uR+e7ZO3T3XLpZ4ROyHHYoxyqUbiO1dUySM3NZtIJFyaWJTnGPv9p9WJPNohh64Omd3RMHxuN/asoabn4/c/s1L2qCKn/WWzObGtLedZPKtO1Yca4ber8edAq2TLWavL9EzcuaZKbl1dLauby8yyu2zhyMj7Z3rl3dM98oHqn/7RmIy4XftQ1tVhr9y/qc5E9Svqw+409twoBwEcvzogB873xa9a0oVypQGFSz1SX+aXDdpYOawkkYNwOjkIpzciFzVCGBixB+FYMPZF4tcoa0lNUDa1lovPU3Td7nsHR66uqON4rmNYI7YxGY5OmM+7vccIpxvFzZDHsupg1g92wWBi8E+1DcrV3hEZjEzotfiLKbCyLqh1HjArL5ivkS0cGbmseb7YPap5HzWbNyUqYwsdzgBYVR+UpopSqVRHOtfkxNhbLBaLxWLJH9lz4ywWi8VisRQE1thbLBaLxeJyrLG3WCwWi8XlWGNvsVgsFovLscbeYrFYLBaXY429xWKxWCwuxxp7i8VisVhcjjX2FovFYrG4nJxuqtM1OCZX+0bjf1kyha+kyBxeUR32i9/sRX79Haki0QkZiUxI13BURvW5xb04O5cF/R6zexcykupJdtejb2jMtHN2z+NgnWJ20FsEG6TR5hrKS6UsEDslMNf3TP1Gx6fkEjvqjY6b/MyWhxK9yHa+tWV+c8BRLrfJduRwcCQq/ZrH4bEJs/vgYsFTUizVKh/seBrQtkhZUCa52kEwZ8aeOj14sU/ePNGjv7oIWn+uUGmpKi2R5gq/bFpSIRUh37zb5Tp0s11uz6gcbRuSjkG7Xa77QLNibGMGlzPLW6oCsk1lBIPEVriZBkVytm1AjlwckCsDYzLEAS3mUBiXt3dtg2wzvIuDg+KnTub6ltlCFyP/2okuOd8ZP+vC5CGeEayK/l8V9KhTorqitcwEB4noikyBcSOf5zuG5FzHiFzsjaiMaKCxSOxBWJ2rTU0hc35JrTrdk1oWlAlnA+SC3OyNrzcVUa/zh+9elj9/6QxusDX4mQAPSoVlTaVHdi4tk4d3LZMltSGjeK7HEXW83j3VI08d7ZaTXSPxqxbXwGbpY5PiVwVTXe6T+9bXyK6V1bKhpcz0AmVayWNLzEE4J7vktYNtsvfioDn1rojfcXNbR5epwSpXr+qPf2WN3L2xNuun3s3GmOpXziP4q73n5I2TPdLL4Ti84ESN4yoPms/bVlfLXeurZeeaammoCOTU2GNoOFlxnzoke492yqvHeuSq5lPUOXKtjHBb3Ju2x4awT760vVF2r66Ujc3l5mWN7XPWu5ITY48SMOfZv3Ze/o8njkmxNgaijSm9R3ObaApLUkypgExpuU5oI95a65M7NKr4+l2rZEVDeN5T7xw+Ot0jr3zcLj8+1ClH24fiVy0LDuQg/jT2RB1rlQvOLqtVRb5cI811reWxM7SXlEtTVak57CTTCsaJ2jjP/tn3LsmzZ/vlRF/EnO3uWih71WPRyLiE9PGbX9+Sk/PsZ4ODxroHo/Kt18/J01oHH10eMLEAQ3xQpH8U6Xu+dEOjfPHGRtm+vNJ05aOHc405z37/VXn6YKdcHhqTYr9HiuKy6zpoZ1rG6OkmzrO/tVXu2Rg7+S7DTfC65NTYf+uNC/KNZ05KqRp7PMpJvVkqOVbRloTRcqPsOI96LIqxL5U9qyrl0T3LZFm8G/F6HDjbI68f6ZCniew7bGS/UJnSqp6Mm5YinGZta10qE2W+YtldH5D7NtfLXVvqpba8VMIoVVU82dAx0439c2rsX740KOf7oyqL/F42frEAMO2wSPrU2OM8ffNXN8kj2xryYuxhZGxC23S7PHWoQ75/oEOKtT4qvbEjijHqXk+R/OrOZvnijkYzpMPYcT7A2D+r6eUTveZ4Xp+vRIpVftxsByIa2deqsf+NW1rkznU1srk198b++lYhw3B/TkIMyQDOpU1JpHjZkRAYk/R5KjBBxjmic9bfsqkgk1EU+oQHengGohMypgqTSVd7lpXLV7bXy1dvXSK719Wa7tqgz2MUPu/PNujsiP4TMc+KPpV3tyT9P622l2mY6FWvTl1zZanUBDwS8MTOiad9B9X5W1sXlOW1AaljIm8CQ31ZxRRerBxLVE7cbgf0f5WVWPsj5YP81bjqARPVx/+0JEcmekT4uGPszR+WBcOE1teYRgvMwGZODF3ztWGvrK4LyGdWVcrDGtHfvblB1rWUS0gjuFyPzUY1Tzgf/GfJDfQuVKgMNFSUSn3QKyFv8bW5FMzTWFVbKi36Wrm+xsTJQqFY82jtQPYpnBq3WCzzwhwXuo2B5ZJdQ2PSORKVEk+R3KnR/Ne218o/3dMg92+tl/WtFbGlVYQVlkUBomGW4Ia8sqTcLxUM2+g1nxr2cpUFxox5pAcgLkaWRYQ19osY2rtHW71Zc20bf8FCxwvzM0j0wvB3tUZnmxpCcu/6Wnnkhkb5vBr4u9bVyY7lVbK8NiiVqtjNsrf4d+QHJg9Om0BoySoY8FKvR2qCPmmt9JmlXsgLcwjC/mJpriiRcGnuVwpYCgNr7Bc5XlUEXjz9+N+WwoJuWBT2yMSkjI5PSjQ6aZYvragulUe21Mr/et9K+dPPrZUv39wq21fVSm1luQRLfTnbqGM+6IlgAqEVrtzAmDAbJ1WFvdJS4ZeQr1jGVHaKtA7KA8V6rUjKS+Nvtiw6cm7s8fIRwDGNUohQUGY2pZYYEx3SQozq81RhbJU087ttym5C/jHeMxPXzXu0bpg5X1ZaIq3lPtlSWyp3r6yUr97YIH+oBv5371ouD2xrkuX1QbP6gvHagrOpehNFk7HHmffvhgRmSdvMi3mC+mcTJeZotNQEpSzgM9eCnmKpCvmlpaFGwsGAeW++QfeP6D+ji0T3FAI5NfZ4nigl7l3jE/NopNGmlBJdpEaXUqaaEsUIH0KoDzQ6tS+2LnKUqCYS25ay+UrAWyIhf4lGXB6pDHikrswnzVWlsqQmICvqArK2PiA3tITk9lWVcu/6avn8lnr58o1Nct+metm6rFLqymO7oCVR/VmHrDAf8BOb9PHcbemXD6b9mGS0u7mUF9CvLLFsrQlJrcpSyFci9SGvNJUHpKaiTAJ+X/yd+WF68YxrivuCny5bt6UCIKfGnrEj9uUmeVkLrpELE45sSi2VqjatVWPBTOxJdekx/teDxsbsXIy8foV49Du83tjmILP9hk2ZTUVq4P2qgGtCHllW5ZeNDUG5obVMdq+okDtXV8r9G6rlke2N8hU16F+/SR9vqJLHdtbJr96+XO67oUm2rqiSSlXeuZxdnyzkzK/y5Od+9Y/ZysFNaYpwWut1YqpIxrFeeYZ915fVhmRpVUCWVPhla0tYVtcHJd+r7diLYXwyNgxFVoJadsjJYtA9yQRj2SI32+XqLzC56M2T3fLM4bb4VUu6mKV3mupU+a+oDcquNTUaGfrn3fccY0+ju9g1LCevDMqBKwNydXAs/qol2xDRMyGyVI11SB21soDXRPd+dbhY+0xUxvkG1KEG/OIrmjCbn5SVhc1nC0BnzIojVycu9suBU91m97yeyERsB70CzXOmYCtwApev3tgsNywpN/WYz3piKabRtye65cC5XlnTGJLVDSFZ2VCWVyfRkZGjl/rl40sD8vHVQRlYJDIyqfVRpu34tlXVsq45LM3qiOX6lnN2EA6Y045GrGHJBsy8Dpd61WjEltZcDxTU6NiERKLjMj5hT73LB54SjDzLo2JGnMmSOAKFHLVfjwFt4wOLsI1Th7S/gM+Ttx30ZtI/HJXhSFTCAZ+Uql4oFLkajU5KZGxSH6MywdGIi4SSYtXR6tyjo7N16uR85NTYj09Mylgh9HO5EMbqMPiJrqHF+6cqaGxmnNGSczAQHrqA4/VF+zcT7QpDJ6dE1Gz0szjbuFcjetofdVgIUA/o3Fi+CmfJHcOITlpMuof2zjydfO1zkFNjb7FYLBaLJffkecqGxWKxWCyWbGONvcVisVgsLscae4vFYrFYXI419haLxWKxuBxr7C0Wi8VicTnW2FssFovF4nKssbdYLBaLxeVYY2+xWCwWi8uxxt5isVgsFpdjd9CzWCwpwU6n8YOqU6ZQtpa1WNyONfYWiyUlYucrpK4+sPOcDWDtvcWSfayxt1gsSTExMSGRSESOHD0q7777nnR1dcnQ0FD81cSoqqqS1tZWuf3226W5uclG+BZLlrHG3mKxJEU0GpXBwUF58skn5Vvf+pYcP35cOjo64q8mxooVK2Tnzp3yB3/4/5dt27Yt6GN9LZaFgJ2gZ7FYUsLj8UgoFDKPyeLz+SQQDEpJiVVBFksusC3NYrGkRHFxsTH0PCaL81nO+LZYLNnHGnuLxWKxWFyONfYWi8Visbgca+wtFovFYnE51thbLBaLxeJyrLG3WCwWi8XlWGNvsVgsFovLscbeYrFYLBaXY429xWKxWCwuxxp7i8VisVhcjt0b32KxJMX4+Lg5+Oa1116Tn/3sZ3LixAnp7OyMv5oYy5Ytk+3bb5Cv/5Nfl/Xr19u98S2WLGONvcViSQpOvRseHpb33ntPXnzxRWPoBwYG4q8mRk1NjaxYuVI+//lfkRUrVlpjb7FkGWvsLRZLUkxNTZnovrOzSy5dviKjo6P6dzT+amL4/X4Jh8OydOlSKS8rs2faWyxZxhp7i8WSEpNq9CcmU1cfRfpfSbH+aw29xZJ1rLG3WCwpo/Y+Layht1hygzX2FovFYrG4HGvsZ4ExyUTJ9nncJidJhk8L5YzwZMr5ethz0S3ZJmF5VVnMpjQm227c0DZS1RVWL/wSa+xnwEzjSCSSsHAx0cjj8cT/yixmTHRiUsajUZmcnIhfnR+v1ys+ny/+V2ET1fsaGxuL/5U6JVr+Ho9PiotFim3jtmSByclJoxd4nI/i4hLxeH1SUlKUNVlMpt1g7NBRJSUl8SsLC9QwepAJoOjBZCjWezZ1UZy9ulhIFLyxp3Ex85eGxiN/J2qIMXyO8ZvPIGPgaUBaFmYJUV9fn2lM/N71qKqqkoqKCvMbJBpWsVodUrJwX9wfv839Dmt+hoaGZXCg/7qNm9/jXkOhkMlPMBi85ogUgncba7STMqr35JRtf3+/DA4OmrKnDpKF++K+S0sDEgqH9dEvpXrPTp1n0ukhn8w6TwfqlvogUT+ZchIpS9a9U4bXM0ZzgexRno4Mk+aC9/Jbjpwm0yYdqDcMEOVAfSWD01757WTumfvjN7nHQCAwZ7uYeX/UO0sN0Qv87nz4tNzKysrN9wdUHnnk99I1tuTByUtvb69J14My5rfRUegFp255LGQo49HRmL7n+Zgm2t/Q4ICp60Trm7KvqKwSv96vz/dLWzCfbLuZgjf2NDgUWUdHh3R3d18z+IlQVlYm1dXVZk0vy3zmgoaM4Tl37pxcvHhRLl++bH4LAbseK1euNBuE1NXVSW1trfkthCxZBQbcF425p6dHrl69KleuXDGP5IkymA9+r7KyUhoaGqS5udnkiefcdyF49czaHouOy5XLF6Wrs9MoTu6NhOJCkSULyoyGW1VVreVfe62ueaQuUHKZ4uTJk0YuUsUxUNQH9dTa2irl5eXxV9MDB/XMmTNGXhNxUGeDvCEnyAyyTDnOZQy5Fxxj1te3tbWZzybaJh1wdDBAK1asSLoc+G3aK+2DtpvoPSMvtE1kg/Kfq11wf7TDrq4u8xvt7e2m7mmHXJ8PdE6LfjdlWKe/s2TJEiOP/O5c5Xk9cD7a2tpNW7l8+ZKp67Nnz8ZfnRt0AmWLjmppaTF1Sv1msl1kg5huaNM67jP1TMBz9eoVUweUP/WTCNzvqtWrzdJOxxY4OjrVuljIFLyxdxr1q6++Ku+++25Snt2atetlx85dsmnDOmlpatTGHqtgGg8KAqFyGvGFCxfk6NGjcunSJfObKJFEDBCCgwDV19ebBsW64c2bN5tHDBEKJhHIC0qFhnz69Gk5deqUcXBQOBjD60X2KC4UCkJNZE8eVq1aJY2Njcb480jjz6XhxwhggDAI3d095l5Onz5lypt7o5xJKO9UjBQNlnvivjEcRInUB2W/ZEmr1gepxdQPrydaF7Oxd+9e2bdvn1GyiTiBM3GiRfK3fPlyuf/++2XNmjVp97yQF2TlF7/4hZFl5DYVaFMow1/5lV8xsoOxmitf1BXO54EDB+Ttt982v5tIpDkd6gQj9NkHHzSOaaLdrJQjzjDt5M0335Tz588nvHsfcrJx40azc99NO3eaiG/mzzqGne89c+a0OnmnjOPP/SUS2dPmceYwstwjuwOuXbvWtEXKl/aZCE4Z02Yw8seOHTP1jJ4ij+TpeiBb5AeZo/3jeCB7JJws8plKUJINuB/ulYR+OHv2nNbDJfM3ug+HFl2RjGNJm6cOKAPKnXtG1nD0qAvKxemVXQwUvLGnIbMd51/8xV/IP/zDP8SvJsatt98lX3z01+TO22+R9WtXiUeVPWPfCAwNF4WBA0FDOn78uBw5ciRhxTEdp6sMIUKgPve5z8nNN99sFCYKZq7uWsfpwKmgIR86dEg+/PBD80h+yGMqyhujtnXrVqNoaNg33HCDSU53Xra9Whoj94WBv3DhvLkfek1QVETIPGLsUzHw1wMli2JdvnyZphVy0003mXLA6Juuc1Vuqdw9xvTJJ5+U5557zijfRBXOTJAJDM6/+Bf/Qm677TajbFJxQmi0k5NTcuniBXn99dflz/7sz0zZpuKIAGWDUfpX/+pfyZ49e4winEtOHCfu+eeflx/+8Ieyf/9+4yQnw+rVq2TXrt3y//uX/6Ns3bI14R30aDOXL1+RDz74QP7+7/9ePvroQ9OOE4Gyfuihh+TBBx+Szz70OQkGSs14LnXJPRE1fvTRR+Z+cGTQBydOHNfrkesa+Zn4/T5jYDZt2qRtb4fceuutpnwxuOgLnO65ytcxbhg9dBPth/ygE3BEUukFo+2jC3CwNmzYIHfccYdxNqln8pKOI5wKjvPLvZK4N/Q8MowuJODBscbYZwLkm/tGNxAM8EharZE/ZePzlxrHLxXdsFAo+df/+l//7/HnBQnGDq+PrTk//vjj+NXEWLJsuWzYuEWWL1sitTXVJnrAgOK1v/LKK/Lss8/KCy+8YL4XZYUCS7SLaDqO0aaBEsU6XX8YetJsQwh8hkbLe3E4fv7zn8tPfvIT07Bp5HixNALelwpEy+SFhkNeiBIwhHjz8ymaTDAwMKj3ddUYxl/84glTxihR8oKhpJySVZ6JguKmHtvbO4yDQV1z/zhcjKeGw+Xm3lO5fb4bpUSUl2r+kS9khUgLJUOPUCq9LRMTUzI6Nm5k5403XjfGD9lO1Qm55ZZbTFTPI129czmowG8gmyjkw4cPGzmjTpOhrq7eGB8i7Pr6BjU2iVdITL6umLbiDAMlQmlpqTFwpNVr1mpUq/eo7Qsdg5Fh61+cOpwY6pn74jXuN9l26OiEvr5+I39OjxDfRT6INucqY9oJPSb/+I//aNrO+++/bz7PfaIzUtEJ/C6/zz3RLvgNdAK9fkT3uY5uY8FAt9bhYS3v5+Tpp5+Wl156UfXEflMXTtmnoo9ng/vnfvle5PboURy5k8bBK/H4pLpOZVDfl4wcLjQWhbFftnSJlKnB7e3tNl77yy+/bLplUZA0arxHjGOqguU0bAQHpUd+SfyNYcHY07CdLrPIWFT6tOEdPX5K9r37vrz26sumS5K80UXJPfN9qRp6QCngMHBvNHKe830YFgw++cmkN09WKUMiD6IQyveVV142xgiPHYVHHigT7i1b0Ki5d+qBsqQenDIdjYxJkTZmlG1p3JNPFMqL1KPKe3h4RPp6e0x5JltHyBh5RCZwvlpblxi58HiSM/gDg0Nyta1dXnzhOY3s95reEso2WcgDkc799z8g991/nzrGy0zvz3yQ/3SNPU7OUv2tG2+8yTzPqbFfu8ZE2czu7urqlIMHD6rD9IYam5eMnkFeHVnlXlNph3yGukbucMLoyaIdkoA6Z/JYcRFtMPZe7gNDTNshL+SJvHCPGCoczFTyAny/0y5oE7RH2kNxiU+NnVeCodiE0ZIsRviUJW2f3lOcjbfeetvcKz1T6D6M/HQ9kao+ng3Kje90dCL10dnZoeU6bNpzRB3nsTE1/CqH1E0qDnihsyiM/RJVqCWqTI8f/Vh+9tOfyl/91V+ZRkSlZ8PwoAgRaJQI+aerDANLNyL09g/KmQuX5SdPPCuPP/GkvP7qi6q8LpvGkA1QFBhhlDP5oWvRcUAyBctjOjo65Q01PD/+8Y/l29/+liljDG0mG20y0MBRcDRsjNIVLYMhNZIMt9RqZInhT9TEEPkw47+qrknrNyrHjx0x95Wq/PDZQCBootuQKlp6gJKh7eoV+fjQAfn5zx83UWAqhh4Yw2T+wD333ic7dtwkwWDguuPnmTD2DGcsUSfjxhtvzLmxX6eGft26tSqb3Sb/P/rRj0wvH0NofFeqBnUuKC/qhzxj0DD+gWBQ1q3fIF7VS1OsUtHXCTyI5B9//HETkNB2KOdM4+SnvbNLDh49LqXBMq2PBqkoC5t5DNmCtkJAgGGn1++73/2O6WHFwaHceT3TZT8XDIGRF3r+Tp08IUePHJapCZzwkOlxo+fFbbje2K9fv0krMSqnTx6TJ1QxMsmKbnIEK1vGFYF1FCJKbGwsYroqmRTC9QPqBDz33LPylhrGk2o0BnpjqwyyBfnh+x3FwVgiig/ng56HdCJ82uaE3tPJ0+fkrXf2yS+e+LkZR0UJ57LxzoVTF86YLI4PXcgVFeVmlm6iHrwpJ31vUA10cdGUOgl0/w6ZbtpU5CgmGywbjE0ewiHkb35nPrgPjMWHH35kuj9RnERDyYLzwvjt7t27jbFft36d1Dp5iL9nLhzZXojGnnFbHKyamlqNnN+Up59+ynSTM4yHbKRSl4mAHOLgUX/otEBpQFasWKb14Dft5NChg2YSMt3ZRL3cU7byAk5+RkaGJWSWrPqkob5WQsxryWAQAKiA6MSUXNG6+vCDD4xDw70y1wK5IR/50BP8pqMXyUdfX69G/n3qfLOMt9QERG7CtcYepdXY3KwKZbl0dlyRAx99YMbj8CJzCYae/C9TxwOPEW+S6PeJx39qehp6utpV6LLXqKeDUCPcJAw9EW6sCzn1xo2hZ+x437sfyEsvvyIvqBPDpLFCBFnCUGLoK/X+Ga/k3hN1dnAMwhqFoxhRBCwHwtBFo2NJKWaUDD0OfI46wfAlUhd8DoNENIKheuqpp4yx47uShQlLGFomat11110mD/x+IiZ3IRt7IntmaFOWzz77jDGu9HpRrrkAw0Z+cbaQv0AwYLrTX37pJY3mXzJd2k5Xf7Yxk5UjoypYE1rvk0YG0QvBIJN442/KANxzd2+/HFb9/eILz6uhf8XM4UlFbrMB+pD6b29n1VC3yklsVRNymW4wVEi40thTOXTDBDRFx0bk9IkT6i3HJn1QsbmEHfDo9m1qajLCzXj266+/YYQ9m5HEXPB7AwP9ZqyWSWI8ovhTZUTvqadvUF565VUz7+Dq5QvGwSlUUPLIFI/ODP1k7x/5wth3dcWWZLHqAOOXLMgiwz04gRggHufrzuc3iOLfeustU9Z0O9NbkYoMkX8MPatGmJWMIbxer4LDQjX2ODOUM+2OCVrM2WGuQzpj4amCU0cZGhno6JDHH/+Z0Q0EA7kGGSIhe2XlFWafAEQhUXm4Hjgvb2qA87w6VwyXsKSuUAz9dJyufQJCZBydTbtIRz8WEq409ghpSUmx8SiHVNAYD2fclorMdaNGaMgHnjyKnXtwZvqmoqTTBW+eCSl0G2PsUbp4sal6r2z2cVCV7isamRzY/5EMDvTJpN5voUL9Iwcofow9G/JU11QjNAmP3xPhoxhRWHwX47CpRIYoeuQb2SA/1Ad1gSGYTdEyhovsoDBxFolIU5EhjCvL/x544AGzRNNZfpUoC9XYU6Yk5uqg0J0VOLnWCUAZIjP8PvlAv6Gj8gHODgkZqKyulpWr15qJeslOGp0NZNQZo3/zTSYcspQxvZ0oswVygFzTzoB2yGRV2iTtc6FH+O7on5gBDYm1sRhXFDECxyxMjG4+4HcR+BdffMHMsCWayBf0NNDYUCzpLueBS5cuyMvPPyMfH/xQOq5olFTAUT1wnxhYDBSOV5tGyuzul8z9owTw9tm7YNeuXUYZpAMGky55NnXq6Zl7ghjyzHuQIYx+qqxbt04++9nPmqieCXrJGPqFDHJOuRFBx8o6ptTzAc4RE1jpumcogbrNJzityOHHR47J5fYuGcmQQaasmbDLPeKc5UsHJwtywsTNd955x+hrnICFjqsn6MF8ShyFTVcNG+Gwa9jOnTuNAnQ2oeEar6PMiQhwIvCAU4HPmsMcxueejIL3yDIoNoEh4iGxKQx5IQJjFj1REF1LNM5U8wKOp8pkJdZV853JeK5RjUq7+wbM2PGP/+FHJjohT8kQ85yDZqwQAzTznqcnZ1dCol8mOmKgKFNSMobagfvFa29paZbm5hbxal6SMXrIg1Ne3DcOFA5EKnAPfFdtbZ3eW2xzpul1QT3TDn7605/Kz372MzOxKZXoiK57dhZkmR0bP9GzkewqACC/CzGyB2TFSbOBXCBftMHt27df0wc7duwwj1zHQWL4C3mh7imPVCAPfJYenrmMIHVG+TDXYNu2bWZCJWXmtAk2haFNQDLlMBvko6W5WbZs2SSV5WUSvs4SzPkgL2wIRC8UywhTnVsyG+ht2gi6mXunfJxEmdJW0oXvIb+UCe2P1VTIBmmh4npjPxsoahorym7Lli2mUWNgaEg0aowqCQOEAGHsHeOCANAw51IWc8Fn51MKzoQ5GjQKhs1NaNDkjbwwi5j80OWKwKHsUbipdomRfyYGbty4SX93ibnHZIz98MionD4b25zoFz//WVL5cAwlDYh73rp19nuenrh36otJTRgKnBUaIl2hPCYLXeeBQKkq7qWybOkyVSDJn2fA+0nUB3JKBOAo72RwZIPvQi5R7MgbCTFjxv/58+fMjnF0hyarNClv8kjZ7dhxgzzwwP1y++23p6y4yOtCNfZzgTzQBjAgrMFHF9Brg1ziaKMnkEPmN7ALXhnGXh1E7pv6TkUGgXHi2fQCjjD5wbFgyAW9RF7IFzqCa7QJVlRg8Ph9yoHvSkU/8X6MWpN+17o1q82+/rTPZOF7yAu9qUTFGHr22kg1MkZPMP8KpwcnzNEZjqNDoEYQ4CTaEPePQ0D7SaUsgM/RzihT8k4Zo6P5fdoTaaGxKI09DRujwizkBx980GwPSmMiykUhUrEkntOYaHAoAQQJAWCcLVmFez1QLF/60pfknnvuMQ2axozwOvnh9zF2zv7WXKNhp9qdSyNC2XPfK1YsN0KcjLHv7ekxm7nse/stOZFkHmiEGFoU6N13323GjqmDmfc8PXGN+0bZouSYaEV9MPaayuxlIlomxK1bt95s3YoyQS6SxePxSpU6YJ4Sj6kPlEMq3cMoF8aSUfLUMcqKJUATqqjocv7FE08YpYlxSxa+k/Kj5+rLX37UlHsqitzBjcYeGSMvbGF83333yWc+8xljVGn7tDsnisTQLMfALF8h1bX1MjY6ck1HZRKcPuorpqMekt233Cpb1OlYvgwd1WTyQ50iKzgnGEJkmuHKdIYsHYNGO+Q3ksVpA0T1rCxAdlNZGuqAjqLcCQCoE/QkuoJ6or7QXzhjTkJHOA4Ay1oZHqEsyFcq4Lhg2HG8KGPygv5KRlcWCovO2GMkMBYYVaIbFB8NmIgZBYtwOcnMTtVKJtEAEBoiSWdiTyYgP3jsKBgMH1EdjYzfm54f8sLfTl6cZXwoXEf5JgvGcvPmLUahJTNJiwgAz/35556VAwf2J919jSLDaN9++x1aD/eaiInudK7PrIPp949B5v5RSLyX/JMP6gI5SQY+S8SAoSdC4PtS2UiD88vJG6aK8mMuBPJKGSWjYIg+6B0hX5QBu6uFNU9X2zrMpjk/f/xnZsldKhMBuS/knJ6TO+64wxjXVBwbBzcZe8oGg0k+0An08BE10iZoY9QF9evIIX8jh+GyCgnqdXZcYzknvTrUYSpR5Exo/9QXOgHHn+dcw9iw011gWptgKMppN7SNSJSdPAlIBsxE2WTzY+5NE443ZZAM/FRE5YJhJlY6sDEQ5ZJs2wQMLDoJPcG5AiTkl2EU2qsTmCE76FAn8RmGJTHK1TV1UlFdY9oVKx5SAZ1PQt75fhwJ2g7tdKGx8NyTNEGA7733XhNNIjx47dfbHpRGhNChBOhOpzFkCoT2t37rt+SRRx4xvQ0IqTEec3QTIWQoIRSA49WiBJIFj5VZ+USTKMtkDBONB4PGBCOMbbKQ35tv3iV33HmX7LntdmnSSAWlm0jXmDM5jgbvdGvSAJOFnhm8fu49nXFXsozCJ9oiEsNxwXikqgyME/X883L4yDG5dLVDDhw6LPvefc8Y/FQjJPKC/KLAka/ryftigrZGu2NjIdogRoXePK7PBXJaHgrIimWtJvLGYUYnZMoAOMEIkyiJZJuaGs3+DsjZXC2ESPZOzct9D3xebr6VA5bKTVtJFgwz+0ekYqDZRTMSUSfw1GmzWoQdRFNdYUAZ046oj6985avyxS9+0TiqOGPoYJwf9CC6eXqiHKhPIv8vfflR+R//p/9Fbrx5d0K6ZS7QESx35Z64n0z36uaKRWPsMRCrVq1UIdgjDz/8sDEQeMfJCAEeIwoTQ4sgpiNAGDcM1X333S8bN21Rr7Eu/kri4NmiFHhMBbx+IlCEd3xi0jTWRMBRQLHhaND4UE6UJ44TEdtczhBdX0TlbFXKBLFNmzZqNJz6+Fd5RaXsvOU2WbthU/xK4nAPRKM0ZBLlkA4YBwwpDhhdjshWKtBLQcT8zFO/kO/89X+XXzz+Uzl8cH/81eTBmbzzzjtVUd6pcrYprYjebRAFYjgwKMiy01uUKLRhIsuaGo24Vb8k2jM2F/w+Tuydd31G7tWoHoOWTH48+vtLWxpk1fKlmq8Gk6dkwemNRlPbXZRNotiBjj1NGF6jjaUC9cIQype//GU19F8x+oKySRT0Ce2vorxMWutr5Gtffcyc5ojDmw70rL322mtpDUvkk0Vj7PH6YpPfdhnPD6OE55uMoaH73Bk3xvCnaqRQuHzXjh03Gs996bKlJn/JQoRMb4PTLZtsfpyuY5bZsBNegrbe/A75xdAT2ZAwKHjT3A95YjiCcqK8GCahvGLdYMtN9HvTTTeamb/sw56qy4QyW79ho37/kviVxKFrjns3B2GMpH/oBuWPI4MziMGnB4m/k4U8oUze3feOPPvMU/LWG3vl7JnTSXfHIts4XYznEhFtVdnnfP9Uoj23QruhWxjn3Ynmkykf3ksEjXFCtjH+6cD34CgypLBJA4Dy8oqk8oOzUVdbLa3NTdKg95aKsXfaRSrtIaKf6+rsNM4qW5In+x3oFdoR+oJxeXQKvXdOb2ei8D2UG0cYV1WUya237JbHHntMg6tbTORPPaUy5s49vfHmm3Lp8hUZHcv9RkzpsmiMPQ37s5990HjwqWK8RVXgdB+l0xXK5zGGsX26l5ntVzmUJVkQWBoHXi/5SlaR470zmWegf0CmJhMXXIwIxgzj/tWvflX+6I/+SP74j//YpD/4gz8wZ7X/s3/2z+R3f/d35Wtf+5o5OhWHgIbLGP3OnTdrvtM/aMJTUiyV4VIJBdIYfy4qNond7tOF+qBccHgYJsLQpgq9DYx30q3PmHCyoOjJC44tirO+vi6pcfHFAJEzzhk9UjivqTrvGHq+J5noczbIB3KzXJ1/02WfZHbIP0axsrJi3h62+WBsGtlLZQ4Qckr0i7FnTkWyxp5eDIIgdDTd9shvJkBHUra//du/JY8++pjRv1xLFuaHMBfh5Jlz0tnTb3pDFxKuN/Y0AAQoNmt1vdSp0U8VlDkGFaFM1rBOB8OMh8k4Lzu40f2WiprxeH1SGiqT0kBQhdebkrKiq218gu62xI09945SodHgdRO9042PA0OUxNg1XjmzZ+mOfECdrIce+pymh8w1Ivt0oyCgPvzqNISCsUlKyXR5Tidm6FNT9NNxlC2RCZM/idAYYkkmKnFgWIEIywyxpNAdWqlytfvW2+WGHTcapckBJ+nfobvAICK3qTjK08Fp2L79BtMeUoHfRkchK/SGkZ8UmrKB7yIQ4d5SieyJVpG3VKJWDD3L7TD0yG2y3xHUfG+7YYfsuPEm4yin6zw5OO2SIRIcCfRPKvOcuKe+3j5z9kfblUsykeIwRb5YFMaeLmSWyzSoYQqH09vtLBMQRTjj22wqk4qRBox9uFy9VDWcRRqdpvo9mcLxzDEuGH26JHfv2i1333OPPKiG/gtf+ILpDaDRpWqYP4nerxr80rjjkQkHIhOgrOnF2LnzJlm/fp0qrdzKHN25DQ2Ncufd98rW7TcaxZZKJONWaCc4irQ/HNVU51c4NDU1G8cuFQMCtAV0FMY+neEA574wbHxPLidiYtg5rY/T7FKdlFdRUSm799wuO3bebPKfbr1MhzZBeSxdGlt5keowLNuNX710QS5fYE5CevN8cs2iMPY0ajaLoLv8emd1JwINipQqNGaMIp43z1M10iX6sVJvkZSFY5FtuhOEsoLmkS5J1rzS2DJj5GNwoA9j2wf27zerCoiECwHqAUXFhkXs49DYmPx65VQhsiNy2b17l9kcpaYq+XkDboe6YVgPhc84ebqOEMvhauvqxZ+icaLOcFZJGOp0ehnygTPOz1wTtuBOZSY/0DvZVFcr1eosZxp0LPWOQ8b8DOqeYY5kdSb3ytJrhthSnYCYLxaFsacR4SnGurrjL6QI34ehT9VAA0KHcXYadqrfxcc8GFJ1GPjOdByQbMGd4WCxHS2OTaJ5pAeQOQU0KNaWs1ENY2YoEzbq4MQ3Nu14/jnOdP/IzGIvlMZHfeLUMFRzyy23momhPM92HSFPGDEmTt6ye7csaY0t2bJ8EuSQckIn0A7TNa7MPwmXlZmNlVIBmSAfJPJWkE77PDC+T/t09phIZbyf+li9apUsXdIq1VlwUGmT1DO9qgy7OD0fyZY1Oon7ZG8JluymMpExX7je2AOVStdqoRhDGjQNO1NRLoKcjvNRaDDSx+E0Y9Fx06AYA2RDJda6Pvnkk/Ld735X/uN//I/yjW98Q77//e+bwzYKEWSOIQuWGbKOG6czm1EbPVhMyGO+BPMmwsGgyrx75CJT4HRRVvSuFYKTzO/Ty5eu858viOqJdJnYlyo4qMzpWbt2jerG7PVG0YtDvZMw/Mm2R4YrCD64VyY3L6Q196439jQcjCupUBoRjRuPMlP54WsWkn7AO6aRsM6diIDuP5QFJxSyK9q+d96RJ574uXz/7/5Ovv3tb8u3vvUt+c53vmNOocLYszMXW8eyJScediq7yuUC6hhHk1UXGN/t27eZ7sNMgwKjO5oZ4ax6YDlZbW1NVh2LhQzlQhcu5UZbzLdeQE4wPhWamIdTvMAie9oybTidXUVxjGkbOD2ZOFp3LnCompqbpXXJEhPhJzuEg7F3dBcGv1CGDhNhUUT2GPpC6eZGsThpsUADobvL2cDH8Ywx1Gy+gdEmOt+3b5/pmuekrO999zvy3/7bf5U///M/l7/8y780xp4T3zD0dOEz8zefxxYnCoqcyZjMAmaPByYvZjp6Q7ZZbUJUz5p6Z8hgMclYMlAnlE+hOEPkwxj7ikrx+UulpHhhGXvaNe2ZXrhkQUbRyxhdx/nKJgF1JhobOVMgdgZHKsYeA4+xZ55QqvMT8sGiiOzpMmdiBo08n5SUcPhMrJcBIct3fnIB4+h4/Iy3Y9TZcnLv3r0mQn/88cdNtI4x/8//+T+rcf9vJpLHqGPQcQTY0nYhec8zQf6ob6IIdmrDIDMDnIg/UzA8gJFnBQDORCpLriz5Az1ATwMrczxp7CiZL+ipY5w+FceboUy600nIbbaNPWXLrp3M38LhS1YHY+wx9Izbp9ubkWsWRWRPpZLyHdnHPFiMfW682HwxOjYuPX1DcvHyFXMqHwae8XaOw33mmWdM4qjWF1980Vzbu/c1efPNN03XPO89cuSIGadnkw56AdLdyjbfoFDopqR7HWPPhD3+ThcUF4aeeQFsvcxwAd+bbLRiyS+OQ+hTw2d2lFxgHTIYeRzyVNopsorMMk6fyuz4ZKFoKWP2Nkmlh83pxsfIo594vlBYFMa+UGAtPALm9cZOTVpoHnyi9A0Oy4nzbfLW2++ZCP4HP/iBfO973zMT64jcf/jDH8oLL7xgDndh4l1nZ5eJDGhIbgVlzrg63fmMqzMbOF2QHww9ET1OBMMFFkuuofeO7uxUDB96kCGMqqrYhLmF0ttJb0aqDk6+WBTGHkNSKMYEBe0kN4HQ0+XOuPvPfvyP8t//4s/khz/4OxPFY9Q5CtXplmesnYidMT4UBJGBmw09UN8oMjZg2bQ5thc7Bj/d3p2JiXGjbN1efpbCBuOXigzSJnCECYI4LjoWey8MFlqbc7WxdxQsglhICtFNBj82Xhc162uPHz9mIvYf/4NG8n/7X+XJJx433fNE7xwiQbdXpjxhjCRRAcMzmVrCmAvY7a9GjTynkhHRpGPskefYRKFOs6phIU0Wyie0u5hxsR2b+cZpxzFDb8kmrpZ2xoPoGkKpsk1uoTTuXwr4wi9+InQOayGC//a3v2Mm3WHcsw31yqQ3xqkXUvc1J9i99sorcvDggZQOC5kOxv7Klata3kfMkkUmQVquD3qBuQ44ihbLYsH1xp5JH6WlAfOcMfN84hh5v78wJgymAxE9kSRL4N588w155ZWXzbI5JuSxJCUTEH0xa52xbpaWMcGNyW1swMGENA6b4WAdrhe688RwBUMYrDJ44YXn5cyZM8ZRSre3iYlC7FHAASQMlVD2C2nSUD5AVnAW6T4uBOhpQHYXqj4g//SgppJ/5J9eV4ajYo7vwugaX4i9QwvX2iQAApjtTRqSAcFgU4fYbllBk7+FCt3xdB3v379ffvzjf5S33nrbjMln0tDgEDGuvXr1KmPg2Wf+K1/5ivzmb/6m/MZv/IZ8/etfl0cffdQcbBEIJL+MJpdglHGEWHbIPgLsMZApqAdWNTBkwmEkC2k5UD5ASWPsCQAKgYU+rEC+caBSaX8YeGdOVTS6cCbpcs/oJ+ptoeBqYw80JP039keeIS/TU6HkKxUwKCyVw8AcPHjIRJTpTLRjL4R169aZteicf48x/73f+z1zJv7Xv/5P5Mtq1D/72QflM3ffbc5nZ/b5unXrpXXJUqk029AWZmRPDwgTEonkX3vtNWPwmcXL9UyBomTdL44XSxr5DeZHZPI33MYv22BhUGj5SQYnqEqlp2RsLGJ0h7P1bKHLLHXEGn2cm4VWX6439pbMQ6MkMmXtPAafbuRkokkaCYaZLnoi95aWVtMVjxFnD/lHHnlEvva1r5lEJP/www/LvffcIzfv2i1bt24z4/ScQ97Y1Gh2HaOXpBAjI/ye8YlJaWvvlI+PHJM31DFi2CPT0A3KRD02LSLCZ85Euxr/aHRhncplWZhg7OmxxAAmC7qkt7fHGPtcHCxDMIJDQZshpeJc4NQ4zo2N7C2uhpn1jD0zTswpdMnidIFhtDHsf/iHfyh//Md/LL//+78vjz32mBmHZz06O81xGhYTLIPqGPi8JZ84onhKG2pUI4OJAj1XenxySgaHx+T9w8fltXc+NBPpMjWfYTaI5p1NjI4eOSIjpgdhYXSLWhYn4+MTxsgz/4eU7W58nAl+h6Ev2mKyq4MIVAgumEfU2tqakc2xcoU19paEoR1O6j9Xr7bJiRMnzCx8PPJkYSb0zTfvlHvvvceMw99zz93mKFjOYWf9ObPseQ/jqkQMeNAckYuTMLPnbHJyomC7/vq0bE6eOSPvvrNPPnr/vaxv/RuLknqNI0avy4mTJ6VH/7ZYsgkRPQ55KqsbYhP0JoyjyvLdbEf3tD+MPD2TDH0R3ScDxh59hG6qra3L6LbX2cYae0vCTOl/4xNT0qFG69KlSylPxmOp3KOPPmbSAw88YLrw2UGrEMfc04GlcB988L688/qLcuTAuzIWyf4e/0QqsRn/L8i+t9+SSxcvxF+xWLIDDjmrZXDQUwVjT3sheGAOSrbAmUB30TvJ3vap/JYzbFFRUZ6Sg5MvrLG3JExkNCI93V3SoY0ELzxZr5jZz9u3bzfd9Myux+jTcGIRe+qTXTBwzBnI1IY96RKJxCbMvfPWm/KPP/i+nDt7Jqe9D/wWiowTAj/44EPzPJs9CpbFDe2auTeMY6fK0aNHzWRf5rRkczXJqLbNrp4+6e6NnUefrA5DVzkHqxHVpzJPIV9YY29JGJbGDA70qxceayjJdrfRMJyz3VetWmW6/tIBo4aBx5AxDpdsw80G5GloaFBOnjwl77/3rryx91XpVMOfa+jOf++99+Sjjz7UvJw0E/gKdbjDsrBxuvGd5Yyp9NARabNPBKtWCCSygWmbqifaOrukp6dXdcaQXktOh3FvdXV1Zi4Rzk0qyw3zhTX2lqTBqKayJpaGwsQWUiYaCYae8TcMWSFAedAtSDfhq6++YmbH5wvKhklI7Kz36quvXRt2yfYEKMvig7ZMdzYGv6amOuX9C+hiZ58I5gJlGgw9QUFfT7dcOndGerqYP8NSv+TaA/fKkAVHSS+kmfhgjb0lYTAURPOsjY01lOQiRWdyCymdbnsHjBeRQKFsE0v5EKEcOHDATJBjk6FkQZkwHkgPCDsEsp8As36ThbrB8WC1BDsckqeLavDH1Amw9t6SSWjLyC2rZ3bt2mW6uFOB7nt6o9i3g8g71TlBs0GAQo8BvVzvvbvP6AzaSLLOL/e5dPkKWbFqtXB66ULCGntLUjBzFkOPl5yssc80bDfLWB/r/AsBFArRPGOPKC2i6WQhKmJMkD0Hfu3Xfk0eeugh2bhxY8rOEXlgiSSnER4/xoY+Y2ZFhcWSadgUi42vGhoa4leSg0l6tJ19+94xckuknylwfOkxOHjwoNncKpW2SRskml++YrUa+7XiTbEHI19YY2/JGXjRdC+T0u1OHo6My5WObnnv/Q/k9OnT8av5A0VFFE23OWvdU41KUJScd3/bbbeZc+rZCpjliMFgQBVNakMf5OX999+XN996Uy5dvChDWZwAZVm8BMPlUtPQInX1DcZhTWXsHtgU6i//8i/NfhHMxUk3qGDJK7tLfv/735cXX3wx5bk9a9askc9//vOybGmL+DzseBh/YYFgjb0lKZwuOzzcZKNNGq2zmQWediqNGB9hYnJKOrr75fS5ixpJH5e2tvx14ztDG8y+x9CTMPrJLumhLBneoMv+jjvuMAf+rF692nTnE9lv2LBRKitTW9qEcmMsdD+b7Rw9YvJKntN1uCyW6YTCYWloapJly5dLY2NjysaeGfnPPPO06ZHCccZY04uXqMzyHmSengGccCb+vfTSS8bQ0z6T1Tu0TSYh4nTfcced0tzYIJ5iNfbx1xcK1thbEiYm9B4pLfWblGxjHh+PmsZ7+PAhM36WSvTLrnQj0Sk5fvK0fLhfv0edB87TzxcoDoY06F1gqZvZqra9PenoAeeJdcpED3ThNzc3GwXDBkOcF/A7v/M7Zj+CVCCPREgoUSYOUgfZ3rzEsvgIBwOypKlRdmzfbpzUVJelIZu0Ic55+NGPfnRtSCzRFTcYe+c7GOb72c9+Jt/61rfMfJpUoG2yzI5tvbmv8vKFs2vedKyxtyRFzOD74ktskvNtGe/H4NClhtfO5LpEjQ7vYdb9yZMn5KXnnpWXnn9a3n/nDRno681rhMqkIu6HCXmMizMuSFSfbJ5YxrPz5t2yc9ctxsDzN86UE+1j8OnSX7t2rZnAlyyUH8qPcn/rrTdNF2kqux9aLHPBMFM4HJRVa9fJhi3bpWXFGglXJN8bhXNKG2IyHadEPvnkkxrpP6OO6qtmOIp5McgyUTsOAAlZpscKZ5ujtjkj4qmnnpK///u/N/MAaJep7jXBlrgMqdHbhsFPpf0VAtbYWxIGQ+90afl8nHCVnLHH4Fy5ckUNzX6zwxuTZaZvkYmBnJlo+Izx043HDNr3390nP/j778qzv/iJfLjvDTW2+Vt2R97oYkQJkZjxzvr2ZGFYpKKySu646x7Zfettpjt0+rIelA2Tn3bt3m0MfqrjoShHHBMmKJFfFCb3YLFkAs6t8GsQsHT5Slm3ebus2bhDqmob468mB20f+UReicyJ8HnkeOi3335bjh8/oZH6JfMeEpE/W3hj6H/605/KT37yE/nBD34gf/M3f2PaZarQNhmSuPfee+WmnTulprZW/KXJn+5XCFhjb0kYDFBYDRHGB4Mz3SAlAwYeb5sGzESc559/Xo4cOWIid8dTJzG+z/I1DNN3v/td+cY3viF//dd/bbr1Ll++YoYB8mmsiBZQRkQfKJpUYYOh22+/TTZtWi+N9bWfOOxnOmvXb5Q9d9wlGzduMjuWpQrj94xhfvDBB6ZrM5GeFYslEUpKiqWmslzWrWiVW2/aJEua6uKvpAayiaNPLyA64xe/+IX87d/+reqC/yB/+qd/Yg7QIv3Jn/yJ/Pt//++NnkC2cQiQ83RkG0PPfBkmy7LzZ3NTk15buEcRW2NvSRgierqX2RQHY5PqmJzTeGmQTz/9tElMnsFovvHGG9cSRh5HgC48uvLoluMzLLUjSmX8jgggHTg1b0idjMjYaMKKYVzfNzwakVOnT5vucLoVifCThaEQHCfGAW+95RZZsWyplJeF51QmrS0tsnXbdqN42NgjVcgrE/XYQ5+8MxSR7BwDi2U2cFTDwVJpbWqQnTdslS2bNsrSpUtT7vrGmcepJ0BAZzDBjqEoegbRB0888YRJ6AeuEQgwJ4VJskwETjUYIL/slEdPGkNoOOTm/A69v4Vp6q2xtyQBni7Gnq0iGVdOdacsBww2ETGN9b/8l/8i//bf/lv5N//m31xL/E00z7gb5+ZnY4y5t6dbLl84J/29vQmPtY9GotLR0y8HDx42kT3OSyrQS7J27RpzAmBsM5KqeedBhEMBWdbChL1bTLd+OrBXApH9e++9a4ZH6EmxWDIFK0e2b79B7rnnHrn//vuN4VxIENDgVN95551yizri/J1qcFMoWGNvSRgiTsaKMfQYG7aMTGd/eyJpJs0wzk2XOBNyMP5OYoY71/HqiT6z0d08oA7E1atXri3tmQ/cALbXJGI4fGC/GvpYVJ/sxB/Kke1FnYl3mzdvMYcCBfTafFFDiZZ9OBwyS/KYLMTueqnuVoZjQ6REzwSTnujO55odw7dkAmfIb+OmTXLPvffJ7t27ZcWKFSnNNcklBDDsdUHb+uxnP2u68R1Dv1C77x2ssbckDY1h/YYNsmnTZmOkMgHdyBh0xu2dlIgRRXlgOOkOp+sNJZNMo6S3gMg2IWOvhj4SjcqVy5fk/X1vygE19swpSHYJIXnm0BC2F73tttvNkjqcpkQiB2d2Psae0wMp/1QUKOXNZMnDh2Ozl3GsEikDiyURaIIlxUVGxm/dc5vcdddnjMwi94UaIaM7mIvE8lecE47fZm09eqXQnZREsMbekjR4v01NzXLfQ5+XHTt3x6/mHoYVWP/KKXr//J//c7MZDcYvGWXCSgB6Dkg4GPN142PUL2sEzBn1zzzzbEpbbgL5Yxxzg0YN69Zv1Oi8Jv7K9XGcG6J7RxlRBpRFKrS1tZllSozfE92nujzJYpkNxrjLwkFjPD/3uc+Z7Z9xAAoRnGi67B999FGjSxh6WEjn1V8Pa+wtSYNhqagoN2NaNA7GmzGyNIxcecB44HQLMlOWMUHS5s2bTQNNxtgzVk23PGt0ifLn6sami7u9vU2j4L3y+t69ZrMO5hwkC3mjF4Kyu3HHDnWaGiUYSvwccHotiEC4T+5369atZvIQEX8q0JtCdz57BBDhUw52sp4lUxDhl6psrlix3KxVx+DTZjdt2mSWtOGo5gvaEoELQ2FONH/33XebTa34m7yluuKoELHG3pISXm0E9dUVcsdtt8gf/dEfmYaCEUs1wkwWZ1vZf/kv/6XxxDH8zCVgF7pk8oCxx8A5m3TMFdkT9TM+/+1vf9vs7JXoZkAzYYIjjhFKhfF6xunnWmo3HzgNODyUO+XA+Gg6sPqBZUvMm+DeLJZMgVHFGaWN0hv1la98xbTZHersMtk3mWG3TIKeoD2yUdWDDz5o8sTe9zjPDDe4DVcbe6I0uiU5e52tWmNTrNIDY8D3prLki88QNWV6EhTbxUYiye/aBtfuJ/53opgIUxtLgzZWZzLLww8/bLz3TI3jTwfjxkQZolm6Ah977CvyhUceMRNo6jQPwVBYX69N2thz70S3LPNjWR8b+EyHImUv/iMayWMQ6bpnbJtyS6W8UXgYZ7rfY5vjpKboKH/uE0WFwWc8lEgpVTDwTIakS5+VDzg3M8tiJpRdqpP6cJRol6mfwEdbiqbUC0G9cW9unZ9AfaR6f7F6iaZUp/OBvNKGcUqZo8IsfYzrY489ZtozQ3F072e725w2g+OxbNnSaz0NX/jCI/LgQ58zE2VZUszrbhijn0nB35Gj1BACulWSSU53LoJLSkU5z4T8OII722/Ol7gHPse2ktyTfk1aOHkhOWO5s/3ubAmPlvd7PF79rOYl/p3JQuNl/JmT2r7whS+YiJUuOrrG+I3Yfab27dwT5VVWVi71DQ2yRg0b0fAXv/hFeUTT3XffKw0NjWYCjU8bKL9JpIARne2e50rALlskFN10OcGYDA2PyJGPY+vSeX2275grUQbkj+f0fOCsUFbO3veplg3wWXo46MpHca1atfpTv59Moo0wM5/EHIZEJh6SB5TjbN83X/L5VO6KivXzfEf8yxLEeT/ykexvUx+Ue6b0gQPlQJcv+eE3Zvvt2ZLTDjNlXMgH38Uj98n3J5Mf8p/sJNdkwSklqsfIf/nLX5YvfelLZrIpckyggMOeyYl8Tt2gqwgYWltbrk1wRWcR1e/Zc5ssWboko3VRaBSpR585ic8CjKMScbBzElEHnmeiXifjMQg6xgEjgZCluzYcJchGL0Q/nKaUaF4AgUPx33fffSYKZgY2f6cKyphuaNapE3UyqzzRCVaUI3vc33jzLtl9yy1y+549Eg6pcU4x0iQypBucGd7shsf6c8aBT5w4Ht8AJ/koA+VDw79hx02yees2WdraLMuXLZPlGh1j2Mu08aKTEGDu59DBQ2bdOHJCPSUa2VCHo6MjKiN7zJAE343SA8bzz547J08/9ZTW+T7Ti5JMnWNQKBvkEKeIbTdxiHBInN9IF3YaPHDgoOzd+5rZmChVkE/KfMuWLSaPTAKc7WxyHB56Q5A5Tidra2tPeg8E2iIR3qOPPmZ+J1HbQnky5PKxOl/PP/+cmW9AXScCn0Um2JAIfUDC+UoXen56evvk//w//o288fpe065xchOB/CBv6AOiW3pqUjW0+C5RdU5ZIfL2W5wLv89sQkO9JmrAMLAYvN///d83spotqAscafQXskSPGRNEyTubZvGcZaE8Txd0fmUl82RuMOVLVE8vwtKly0wkT1sMqtxT7tlzcfJPwRt7jBeKBOPBmCmNI1GPHAFHeHfsuNEoFCaVIfjpMDg4ZA5bYIemK1cuJ5wXQJhQAihTPFsaVTreK40Fg09EylhrzKgm1q1JORLRr9ByWblytaxZtVKND9FW6uLOd2LYUMYceINx5AhalHF3d4/WY5/JL++bC+oHI4jCpCFibLarsWe9bm11lVSr8S+vqNS8a/1Oyyv1cFkdDZTFUXU2kllGFjP2o6Zr/e577pGKaYYYY893so//xYsXtM4CCStyIF84EsFgSFqXLJXNmzamvSHOTCjTnp5elcvDae0D7kDvCBOUUIizbYbi1DN7IfB7KGscgGQgyqJumdzJ7yUK5ekEALRDdgMkL4nAZ2kfVVXVZlyWeyTKSxeGIgYHh+WnP/mxcW6TGUoiPziCWzXSXLlipZmwmU5UjeNBezt16qTZLvaSGs1kjD3vI+HsMUSWK9Bd1CuOKwEDRh5HBaOPbPE6r1Fe12vX5B/diuNaoboiGAwYXbJVAwbqvaWl2UT4jsOdaNksdAre2NNASSiURBv1dGg4papojWEtiXVvpQObqrDWekyNA0o8FWjcKLt08wKUjbMmneeJwnsRcn9p0Bzs4PdmpuuO78V40iDZLKdXIx4Oq2H2Oo2Xa/PVI2VDQ2S2Opv2EPWgPEOhsOaXIQuU0ez5HItOSGQsIqMjwzKZoKF3IN8MBQRDZeJlmCX+GxhSHAeUDPeVShnx3SUer5ZzQEr9PvFpWWcSvp9ElERe0wW5wFhRF7Sb2Zj+ezxPFsoRI0Q7SLa3jd9jroBTL8n8Pu/16u8Zufd5TV1nggmVjW51DGmHOPCJygn5KSnxqI7S/Kj8+TKQn4mJSdVRGgiofiKlIrMYwnR6HZOFcqB98UgZIluxnssRU8/0on700YfGDlD384Fc4UguX77COCwMn5WVl5nhQGMHtIyRccollbJZqBS8sXdIxKObCxpTsRr6dKLW6eDJT2qDmphIbYkSijTdHobppFU2ca8/U2UzHRolCc+8s7NLU4dpyOR3LigXjAzRHo2UxokxSKS8TL2oM2bqRZ8nS5ExcloeRgnErlGu8+U3UXBSSlAy8XHqbJCpvDpQ5vNFqOn+nmPwU4msMAz8djKG3mG2ek4X8uFMVkz2fiiHYvKjDmYm2iFFQn6on8nJ1PTC9eo+mzhy5QQN6A9WzLAnBM+5Nh+Ufyyqr9CIvk6dKJ9xwBi2zKQdWGgsGGNvsVgsFoslNRbHYIXFYrFYLIsYa+wtFovFYnE51thbLBaLxeJyrLG3WCwWi8XlWGNvsVgsFovLKZpKZe2KxWKxWCyWBYON7C0Wi8VicTUi/x+W14/u/PSlUAAAAABJRU5ErkJggg==;" vertex="1" parent="1">
          <mxGeometry x="546.84" y="244" width="33.69" height="20" as="geometry" />
        </mxCell>
        <mxCell id="9cRQzBxTq97ZNu037ttA-9" value="" style="shape=image;verticalLabelPosition=bottom;labelBackgroundColor=default;verticalAlign=top;aspect=fixed;imageAspect=0;image=data:image/png,iVBORw0KGgoAAAANSUhEUgAAAfsAAAEtCAYAAAAP7MngAAAAAXNSR0IArs4c6QAAAARnQU1BAACxjwv8YQUAAAAJcEhZcwAAFiUAABYlAUlSJPAAAI+NSURBVHhe7f0HlKTXeZgJv91doSt0zmFyzoMBBjPAIBGRACkQJAFSIq0se+XfXkn/nl2t9xxLZ71rH5u7x7s+lGzZsgKTKJISAwgiZwziIE7C5Bw751BdHfZ9btU3bDS6eypX9df3Ae5U9Vfpfve+9w03Fk0pYrFYLBaLxbUUxx8tFovFYrG4lKKRkREb2VssFovF4mJsZG+xWCwWi8uxxt5isVgsFpdjjb3FYrFYLC7HGnuLxWKxWFyONfYWi8Visbgca+wtFovFYnE51thbLBaLxeJyrLG3WCwWi8XlWGNvsVgsFovLscbeYrFYLBaXk9Ptcicmp0wyP2g36c0IFGORpmJ12zz6TxF/JMDk1JRMTsYe7VFIOUDrhaqhfor4b1o9OdeuYf5emEzSxpEtlSnkaqHeRzYoKSnSNur+EnF0C3Jg9fwvoZ0Xa/0jAsWJKuoMkhNjT51T8T0DEbnaFzEKAWVgSY8JLcOo/lPqKZLyYIm0VAWl1FcSf3V++oaj0jMUlcHRqETHbWVkG9PA9Z9Sb7GpI7+nWFT3G7yeEvFoAt6HQcB5y4dCSJfeoTHp1HbePzKpsjkpXr3JhXcX2aGxyi915aVa75909twEhn5wZFzrf0y6BseNrrfE8Kiergl7pbzUK+GAN341d+TE2CMAGJQPzvXJq8c6jJGyMpA+OFAY+8aQV1bUBWX3qmqpDvuMUZkLip1TjS91jcjJq4NytH1IOtXoW7ILCr5U7XnA55GQ36MGv1h8agjNdW+J/u0xhjGgzkBQXwv49RpOQNzwlxRNid/rueYUFCK087MqU4cv9MnJrlHpHh1XR6Z40Rt748BpKexcUSk7llVIqFTrWsvFbaDTR8Ym5JTKwMm2QTmuuiVq9XycKSnXNr59aYWsbghKc3Uw5+0iJ8aervtRrfW/eeOC/LunTxDiaIq/aEkdWpemLQ0huX1VpXx19xJZXhtUozB34aKQqY8jqpDfOt4lPzrYIYfbhmMaabFr5SziVaMe1jIOqJInqvdqHWHYy/hbjX1Qo/3KQInUquPWUOaXmnK/VIZ8ElajH/BOSaBkQqorwlIWCsS/sbBQsZLxyUl5/0invPDhFXn2bJ+c6IuolVPnZJHLlU/rPqR1//Wbm+TRG5uktSYoYTX4bmNMA7quwTF56qOr8pLKwRtnemUUwXChY5M045PSrIHYr+9ukc+sr5VtavRz3buTM2M/MjYpf/X6Bfm3Tx7X9l+8ILsoCwotPgz3uArRtvqg3LG6Sr66Z6ksrwuZruK5oO3xuUPnemXv0Q750f4OOdoxHB9LtHWSFbRYicd9+kg5E81P6t/4vH79x8NYriYi+ZBG9SGNAMoDHgmr8afLv1yNfYUa+5a6CmmoCktV2Cu1OASaCgXHidx3uEOeee+SPHlao/v+MQmqs7LYY/tJjerGtWy+sLlOvrStXm5cWSX1FaWu04FDkXG53DMqf7v3vLxyrEtOd4+o7BdJser7xT52PzExqU68T377lla5e0OtbHW7sf+WRvb/1zMnpVQrfzFMVMkmCApd+CMqRFtrS2XPykr58p5lsuw6xt7hwNke2XukQ352qFNOdoyYiJPvxBmwZBanUTtly0NEnTQzgWkOfNpG6Ob3aL2UqbGv9UxKS22ZtNaGpLkmJCu0nlc1hqTc7zG9AsXqNORaeUznU8b+bL+c0yivViNYnJvFrOyHtY12Rydlz9IyuX9NlTx4Q5OsrA+Lz2URb89gRE5cHZJvvnhW3j7dI1GVB0eOF7teiagM4KD/xu5muXNdjWxqzb2xz6u0cbM2pZayxWy/ZVN6yWH6NZ+HSL54zuQ4wxPq0A1GpuTycJEcuDoqzx3rlb98+7L8h+fPyP/+0+Oy92ib9A4OqqGdMO8vGDT/U5omzQ1/8t4XW2IIJ6QGr61/TD66PCRtfRENfsZdZwA7B6NmnP5Sf0QGoxPinxbUzSyTxZYKAXe5lhbLAoC2T7SLIpwr6f8GZjOPqR0fHBfpGh6XS72jckoV6sEL/fL2yR55Zn+7PPVhu7yjz0/r9f6RqIyNT5pIO+/oPU7pfSzyoE7rWiSgZTE4OiEXtP6u9ozIwFBEy8VdJXO+e1TePddnVvog3yXT5NiSf6yxt1gKGKKC6cmr2rPaV2Im9o2rQf/xB+3yH548K9/Ze0FeP9YlV9SYDI2y5Mka2ULBLLnU+mLctm8oKlc6B6WrZ1SmmLjhIo53DMlLKoOj6p0yvGQNfWFhjb3FssBAhxrjr48+Nfwj+vjelUF5/ECHmRfz5EdX5YPT3dLZN2oUryW/OPUFYxNTcq43KhcHxszEPTcwOhaVtq5eudozIB3qzDCXyBr6wsMae4tlgYIBCRJBadR4Vg372+d65an97fLswXaN8jvl8MV+uYrBj06YyXOW/MLse2blX+iLyKX+qGvqJBKJyuXOfmlXWRtS5zK62GfjFSjW2FssCxwmgFV5S8wksHGNqg5fHZKnPu6S7711SV450imXuobNZieW/GLmYujjpf4xuTIQMRFwQcytSJPhcZHzPVPSMyJmUua1iZmWgiKnS+/++vUL8u+eOmGEngkcRdbVSAuihPHopOxoYJ19YkvvqGx20DtwpldeO9IuPz7YKcc6h8Wb56VblvQxDVn/IbJix7Yqf7FsaimXm5ZXyM7llbK2MSi1ZaVmn4tM1/Vs6+xPDYyZ3QKZoGZFK1Y/RfpPiZYVa63/pwdWSmtVQCqCud86NVNQ78cZQtI6f/Z4j7xzcUDCqn+8KmPF+polBssQG8I++W021dG637LE5evs/+tr5+VPnjgWu8idogUsqTMxiRTJrS1huWdddULG3lHKH53ulVePdsgP97fLofZhWxduQ+u4SGUDh7os4JVfv6FeHtxcLzetrjHbtTJTOpN8wti/q8b+aLcc6R0VwZBl+LcWNFpGMhyVW1dUyT+9e7nctLJSVteH4i8uPOhJek8Dhz9//rS8f7FfzvZHYrrERg6fROu9pcwvv3dLq9y3sU52qAPuSmOPg0cU+s7pHnnu43ZVNOyphUDoi1YmUofZvFq4S8p9sqo2KJuXVUpFyDuvIqeyiezbVBGf7RiRA5cHpG1wzNaD24hVtHnKxiZr6wLGqKxqCJtd+TJt7B25Os+e6Kr0T3SOSldkXBW/ehtWtn4JBaVOeku53+yixvbWdRWFsxNisuDkXewekTeOd8tVNfQDGtRZvT4LWu8V6mTvWFopq+oD0lRZmvMiyomxd+hRo8IkjhK6eKy3nzE49S7gLZEyjaLook0EDiYa1civf3RMIvpocT8BNfJVIZ/Z0Sxb7W9YDTwnKXIWBg6+ZXYYyiz1Fkm41GsmWS5khiMT0jkYMVG+ZW7YEru81GcOufKrzs41OTX24+rRclgC3RfW1GeOIi1QbLzpMUmwYAn68MpRyFNWKS8KMPAoHOQlW+2PTYCMTKlIEelbZoc6wN8yG89kyfHKFdQ5kw1tfc9PTE/H6jsfVZ5TY2+xWCwWiyX3JNbna7FYLBaLZcFijb3FYrFYLC7HGnuLxWKxWFyONfYWi8Visbgca+wtFovFYnE5OZ+Nb1dnZIEi839KmOqwdWKZThry5GDlKjkSXTJbSFhdniQZaFfpkON19rH1mJbMEltjH1u/magwxbY3jW1lbButZTrIki/FTT+QK87Sd9baW64Php4yZ5fZhbLm3ury5KGefZ7ivO0enRNjT6NHCVyOb9FqyQyqT41SLS9lZzSPNFYEJOgvSUiY+oaj0j08Jt0D4zJsT0SzTANZWlIdMDvuoZwShXbeMxiRjoGIytaE2aHRHHi1MOxX3jBGQD32Si33hnJ/0uWeS9AV7f2j0jU4Lr0j4+LRzC8Q/ySvjKsDjAO9tMYv1UGfOZ8i1+TE2BM9RqJT8vzhdvnR25fiVy3pEtEQalClaGVVQLa2lMkD2xqkubJU/PMchONw9MqAfHC2Tz482yuXeyLxqxaLyJYlYXloS4O01gSkuiyxfdsx9OMqjwdUnt441iEfXhmWrqGohNga21r7eSnW5kqb3aJt+O4NddKqjlZVmS/+amFxvmtYnt5/VQ5cGpQz3SNav+qYWGt/XYYnJiUc8MjDW2KH4KysL8u5E5wzY8+pdz/ad1n+84un41ct6TKi5Tqgxn57fVBuW1EhX9y1RJbWBuc99c7hwPk+Vcqd8vTRLjndMSw+lTzbZBc3nJAwplZ7Y2NYPruhRm5ZUyPrm1UpqTK/nmzEhoWmZN/RTnlejcEr5/vlQt+YlHlL7IGK1wEFPKlltE2N/a9srpUdK6tlZUM49mIBMaJR/UeqN/78lXPy8dVB6R6OSpk6c35r7K8LQVllyCu/fnOz3LmuRja3uvyI22+9cUG+8cxJa1QyRERrblA9xt0NQblnVWLn2TscONsjrx3pkL870CHH2ocllIBCt7gbBnOGta0uqfDLLS3l8qgqpttVMflUnq4XnV8z9s559mf75VR/xBj7wuyQLhwo96HohKyrC8pn11bKr+xolZtWVcVeLBDouensH5WXj3fJnz51Ss73jpp5BuiNwuyDKCyG1dhXh33yu/Ejbm9YtgiM/f+lxt6rAsKpT5bUmVRJGVNDH9G0vS4gd6xM3tjvVWP/84+75ETHiDAfy9bI4gZFMK7/BFR+qohCdrXIg1vqpL6iVGWqJPamOfiUsT8/IGcGxqTKVxKTraxrmYXJlLbjcS27UTUGFf4SaakslT+4d4V8bmuDcbBybRDmgsNujlwZkBcOdcg3XzgjvRrlh4Ne8epr80uGBUa0fmvLfPJbu1vlrvU1smVJ7o19XpxuJu1g7G1KL+E0ebUsU21syBoTbLz6xHHAbFq8CRko1TQxMSVt/WNyuXdEOnojMqaKKhXo/i8uiZ30Ndvv2UQSM+YdKC6WkeikHO8clvPdo9I9OGbmQBQKauvlYtewnGsfNKdkIifBkmKT99nvy6bpyehqrWNWTunTvJC3Hja6hSypU6wFmG60xMejE5Px4ylj1ywWorhIdEK61eC39Y3IuBohS3agDaOEfeoU0TPSPTwu5zCqHcMyOlZIxn5KTl/qleOXeqTEUyR+hmfQQfHXLYVP3oy9JX0y0dCw8dbOWxycrkVkom9kXNoHxmRQDT/rqi3ZwRS5/kOX/oQ+XuqJyMn2IRnVci8EeoeicvzqgBzuGJUz/eMypRGqt0CXBlrmxtbYAiYT6pdpefnqVrIUJhh8FENvZFyuqLHvV6MfSbEr35IgWuhsqIMRvdo/KifbBmVIy59elnzTMzQmxy4PysnuiFwdVTnQvNIdbVlY5K3KnAjCkhpM0JtKswz5ON2HjCfZ+rA4MDGsVI1Omxr6Y+0j0tY3JsNqeCzZo2hqSgLaDms8JdI7OGYmzXb0F0a5D4yOy6XOIZlQhy+gVp7tYOyEy4VHTmfj/83rF+TfPXVCvPFJO5bUoMJMl9/EpGmAW2r9ctvKKvnVO5bL8vrwvLPxzWdVsRw62yt7j3bI44e75Gj7sDX2lmsYhaD/MDa7si4ov3/bUtm1slKW1gTN67Mx69I7dRZCZja+OpP6umV+nHKH1fVB+YPPLJedKyqkpXrucs8m1Cc75r1+vEsef++yvH9xQC70R8xEM6u+k4O5UQ1hv/zWLS3ymQ21eZmNn1Nj/19fOy9/+otjGjoUW+OSBqbCKD/WSY1PyJYar9y1ukp+4+41sqqxbF5j7yjlw+d65XU19t/7qEMOtA0RzpmvtFgchUAbXamG5g9vb5U711bLmqby+Cuf5lPG/lSvHOmLSBFL9vR7bCR4fa4VkZYju2L+0z2t8pl1NbJ1aUX8hdzCJjpXekflF/vb5DtvX5JLauj7IhMsp7K6IkmmNChrYZ29Os73b3LxOnsUwZgapucOtcsP3rkU0yKW9CFaUsWwrMonm1rCctemRmmoCIiXhc1zQGWzdOZM+6B8fKFfXj/dIxfYLtfWiWUW6su9ct+GOtncWibLakPxq5/GyJXK45HzffL+iS45cGVILg9GjRNpSRItx5qQV25eWSXbl5abKDAfMEGwUw38e2d65NWjXdI/OmHWi1tdkQJap9UBDco0qt+mdbq6IexOY49Nwus/cWVADp3vjV+1ZIrKsN9sfLK8LijhUk9CQyQ04ss9o3K5e1gGRlQpWyyzEPB5ZGldSJqqSqWu/Pr75F/tHZHzHcPSofJlx/lTx+cpkYqQT8s+ICvr87N1blQN+8DwmFzsGpGzHYN0IsoEytySEqW+EllWF5bGSm1LFf6c947kxNgDMkLjZ4apJbN4WArjLZYA+5DTHZ+AFNGQmWHNemocMYtlNsxkvfgpbImcxIZMjY5NyLg+WsOQOjRhL/vOa9lzCl4+oKeGJZdE+BGtU2rT1mjq0JbYn4BDj/JxqmHOjL3FYrFYLJb8kLeldxaLxWKxWHKDNfYWi8Visbgca+wtFovFYnE51thbLBaLxeJyrLG3WCwWi8XlWGNvsVgsFovLscbeYrFYChxOv2M/DLtO2pIqrllnz/4dbMs7ODpuNoqJNQv2cM71PkUO5GBKPEXF4vEUxzYmKVlcZwKMRWN1MRyd1JIoUs8yvzdPfeDdBvxsbFEiHuoj9lJeYeOS6LiWU2RCxifjR8mqoBTCDuSUGe0q6PVIRcgbv5ofaNFs9MKe7WMqUxwu4rRyN8M9juu9sjFmqNQjpSq7md6Uhd/AoYhouXL4zaTKIXUfK1u3lm9MR3OPxcXFElQdzYY3HDXsxjt2jbGPqsJEUI9eGZBL3cMypcqziErz5Gn3KbxwzQONszrslyW1QfNYskgOkUApd/cPyuWuETndEZFxvWtvnnYCc+AwCk/RlKxsLJOmylIpD/pMw843bFfcPRCRU1cHpX94zFxDbosK4NBwDMCYOiEr60Ny0+rq+NX8gNOBY3S+c0iu9oxKz2BEJlHVediNLKeoho5Exo2RX671gOzWJrB1cTJoNRv9ebmXs/SHtM6jMjGhOhQ5LIA2kg0cHV2i9+jzeWV1Q0iatWyNwXfhLbvG2LNF55BG9Y/vb5N9Z3rVOx032xP6SvJjYNgqdEwFqbnCJxvqw7JrTbXZ4xqPfDFE9+YshIs98uHZHnn5RJ+MTrA3NCdh5w+iZ5/ahQe31suOZRXSXB3S6D7/lYGhP9sxLM8dapNznSMa3WuT5GRITfmGI5RHhsbkMxtr5Z/etzJ+NT8gU0TzH5xWuTrXKwcuDUpEjT/7yLub2FGz1UGP3LaqWrYtK5d1zXOfQJgKBEu9Q1F5/1yfvHikXXqHx802uX4tW/SoG8F5jKhOwImq1LK9d0NML1SGvOYYdrfhGmOPoe8disj/8+JZ+en+dulRT7hE7yyYJxeNo2WGVDFtqAvJHdo4H7mxRW5YXqkGb3GcBU2341tHO+Xpg23yvffbZEiVFWeb55NhVV44W3901zJ5aGuDrG0uy8se1TNp64vIoYsD8t9ePSf7L/TFThYrEMY12hvqjchv3L5U/ux3t8Wv5geM/ZiWzQsHr8qzhzrk8Y+7jBEMuT2yVwb1vpvK/PLlLbVy/+YG2bO+NqNBA0Mjl3pG5OkD7fI3b16UtuGoDOtvoj/z66JnD05pGVaZCmkk36QG/nf2LJXPbq6T5qpS4wC4Dde1khJtAYGSYqlSj7RcU6k+v5ZUKXzi75nXeD7zPdf7zGx/a6KRhPTRvwgM+7wgYVo+Hm1Qs5YlievTX5vtfde7lsDrzJ0QfV6I3hY5YojHO9t9kBK4v0+8lsg1ns98j3Mtfp1DWILlPinVyKfg0HqkzD6RfydNv6+Z95jMtelp5uv8Pf3azL/nuzbf3zOv6fOgJnM0ddeoXOob1ah7MqMHWNGb1DU4Lj1q5DnECP1VqfoTHTZfvq6l6e+ZmWZ7feb3TH8tkWsZ+Az3hp2oUsMe1kdvAeqFTOI6Y099qV0xBr9UFYFHLziJyqR7Zq5r5nn8+myvz3aNx099Rq8xGS+gz32aFjd6/1oGReqEzVaWprziySm72cpzvmvO8+nfPfMaz5mEY4x9IVYJxaR55NRC5x7mupfZrs18fbZrs34m/tq190xL+r95b025X8ryPDnvU1CHKlN0MU/Pv7mH6fc5454/9fo812am6a9fe//0a/H0qc/Mdm3G93zi9WnXnOfoM2YhX+xVY898haExc8JgJtCvNRMe2/tH1eDr9+pzr5ZrcEbeZsuXk5z3zEyJ3h+PM1+f79rM12e7Nt9nePRpCmgKatn69VH/dzWuM/YzUZm9lhzmuuYw1+uzXXOY+TqPfhUiBMvySaaXlVNeMPP5bK/Pdm06M1+HmX8vBJz7mO1eZrvm4Lw+27XpzPb6zPeYuQN6sVEj+5pggRn7aUzP/8x7mP7nrK/Pc21mcpj+3GHm67N9ZrZrDtd7HePEn12DUdPdfrFzSEZGM3NcOGPXI9FxM7GZIaXRiVivwfQ8zZUvh5nvdZLDXNemM/N1mOuag/P6bNemM/P1xYhrjf1sFZ5L+GknWSzJUCjKKKK2nrknVWroKwJuHbldGCAS+F7M5+geGperGuGPRCdiL6YJ853a+sbkZKcae43sfcWLY17RYsOdxt4KqmWBUkhRR1QjvqjmpyLokbJSt894L3xYzjqmUXff8Jhc7ho2RpqlkekyoN9jltx1jEjHgBp7urSttXcd7jT26cu/xZIXGD8tJBiGqtSoPuzC2ckLla6BUTl6sUeudA+bPRrSnag3NBSRzq5B01vQq4Z/SuvcqlD34Tpjj9yT8ILzqTj5bdbaT9hWUzgWjHyYFP+7wCBKi8lufouMPDBeT2zHLPCakFfKAoU7Zr9YcESiazgqhzuG5LSmjv5RmUhRyZh61s+e6RyWQ5cGpE+/N5Mz/Asd2hg6Oqr3zH4NbtfVrjP2TuU59eYozlwn8hEZn4pNclrMUBiUgT46ZZOvZISiQFs0+UNWpsvLzPznKqHwGRtmlL5cI/q6cr+UF+LSuziz3YMbk0PH2JQc6JmQw21Dcr5j2HTtp4Kp5+ikvHdxUF481Sejqq9YklZk2uunf99tyWyqo/pgSGV9cHzC2A0347pNdf5q7wV58UiX2dSFCs0XNCSEaFVNQHYuLZMHtjbJ5iUVi2hTnSl591S3vHCkQ370YbuMRyeksjS/BmNwbEKKNVL9Z3ta5d6NtWZHQ9a15xt20Dt2ZUj++97z8vHlgbxPOUEJIr8lqviXq/z++i0t8R0Hg/F35AfyFNU2tfdoh7ys6ZnjvRLROsUhWQzQW4ldH9AyiOjzL2+qkfs31MqutbVSFvSaZYjJwA55gyPj8n8/e0p+9sFVCWo5Mut/sYzXO+Xp9RRJ0F8iv3pzi9yt5enWTXVcY+yHI+NmX/HHP2yTd8+oElCP1TlTJB+MqyANqyQtq/TLtuaQ7F5XJ6sbyly77/JMUMwHL/TLW6d75LmPO2VCy6LMk98GNKoCgQF7dEej7FpZKS1qvAphu1zGXc91Dss/vHtZTl4djl/NPzimS2pK5eFtjbKqISQVIV/8lfyAExLV6PPAmR5t4z2y90yfWWseKIBthXPJkEahI+pM37myXG5ZUSU3rKw2xj5ZIz2iOpPJfn+pAdILH3dJfchrlgsvNsyae9XLD2ypl50rKqWhIrY/vttwjbEnkmdXqRNXB+VS76hMqaH/ZWd+7lG9ZHqMy9RjrA97pbUmKJVh36LxmlHMV3pG5EpvROsjYox/voNozYIpf3PghTbosqAn6WgoG7AFbP9wVI5cHpSe+EE4hQA7jrHsblldUCr0kZMC8wmtmV3kugbG5ErfqJzvGTWRfgH4azmFaJRhwmqtk4ZynyytC5kT25LVLcgdJy1+rHJ3oXtY/Frfi0Q9fQI2/EINrNRy5CCccKmnIIKATOMaY49xIZLv1yiJfZ4LBYSG3ZmCpd6C2Ic9V+DsDEWi5oCiMfV6+LsQ4ASvkM9jtoE1G5UUQJt2IlYMfqrjr9mAJVjILAcYUVaFcEIgjGlZ0QVNbx5O5GKG+ikPeE1XdLKOK2VHWVKOlOdiJ+SP6wWXOj2uMfYOGJVCuiFHZgrBqOQaUw/xyiiUOink+rCymziObBVSeeUDqibd+ik0ucsXmSjLQsZ1xt5isVgsFssnWXyzMSwWi8ViWWRYY2+xWCwWi8uxxt5isVgsFpdjjb3FYrFYLC7HGnuLxWKxWFyO62bjs+yWbRALDdbAunlZx2w4S3oKsT4snwTZVAldEDJaqG28EDAbxJjH2N8zsWU3NwupDaSC64w922cW2v4QyI7fU+TKXZnmg007zOEuWh9WvRQ27PfEcbbswlboyo6tsPV/ywyoNlOPqmfm2k2PTXTY5MryaRZSG0gF1xj76MSkORTj/fP9crpzxBiafN9YkWagIsB2uT5Z3RiWhnK/awVpJuwK19EzLOe7RuVw27A5UcqzCPfdLnSI8th5cmNTSNbWh6Q8VLg7PRKQ0q5Ptw/K2Y4RudgXMXJVKDv70d5hKg/Z4bepttYKvznPYFldSAOMkmu6JqIR0MDIuHx8ZUhOdQ6b45Qpz3zlFfLx2zMhL+wOyWl/65tDsrQ6YI5zttvlFjDOqXd/9vI5efpwR/63aNXf5qjIVXUB2bG0TB7a1ixbF9Gpdxx8c+Bkp7x0pEP+7sNOGdRQLFxaEnPAXCFx7gBjP6Vt5ddubpYv3NAgS2pDZm/wQiS2veukvHDwqrx0uFNePNEjAypXBXFoCe1dy5KmPYmFzXEb57eDarB2Ly+XO9fVyH1bG6V82uE4PYNj5jjc779/WZ491CHjGuFPaqZNXnNMsfEy8lNO08HQU25hX4lUBjzy1V0t8hl76l3h4xj7//TiWfnFQTX2qhTwXh0YM/eq4HOAhL5k9v12jC5dzfRs8TqY8/BpuPHP8C1R0/U189qkPi/WBsWnUEZ8Vq/pBS7x+qraoOxYUiYP72iR7csW0xG3k/LusU557uN2+d4H7TIanZIKNfaUI3VgyS9UwajWUWulX/YsrZD7ttTLrlXVGtV4CuLY39mYbuyfV4P15NFuGdKINVASP+dA3zOz7QLXCNToogX90wQD3GaJvo/X6YkC2jNv45q+dO07+Mz07+E5+XHg9wJxp4Mz4nkfhhZ55xvIH/AJc03/5LvNMFf8e3g/1/hussNz3gfTr5mzFOKfMXpNvxtdx/ONjUG5fXW1fPGmJqmvKJWgP+a4Xekdkf3n+9XYX5UXjnZKmO/W62P6uU/oMP1ao9f0Aq/Hfjf2W9OvzSxP55pzz055Ot3i0++ZJ3zn9PfNpUf5hV/mIXav06/NVs+z5kHfx+sz65mjuHEWywMl8pu3LpH7N9W51tgXZqtOA6qS+uR0LFOv11Ks0ZkuJPMG/VsfnGQkNn6dz5rP6KPx1uPXP30t9l3XviN+zXk/Dxg2M6TAH4sMDR4kovceofFSDtqwaFw82pT7RNmTRtVgcvwyp5wtrw7KXeuqZV1TyESCC2WoRUVKxlSmjKHUx2tt0vyt/8evm3aozz/R1uPXzd98mfmbx+nPY4+f/lz8ORkw1/Spfj+JU+iqQ95rBvyXnyHN+B79fOz5tDTtmtEX+v+1z5jf0+/Uh098hmv6yNv5zfbBqFzuj0i3PjKsCbzGYTdt3YMmIGJek4pBjGnfEfsd/WfaNfNh88jrXNMn8fc4n5l57ZOf0UfNOzqQ5yE1ouXq9JerU8m9xHRj7DPO9zmfn/l7sfd88tr0ep4vD3PVs+nd0OfO17gZ1xl7vDomw3E8Z0ATjySfKjE8Obw8/uZ9eJokrqH4uEZyPmOOfLzONcZ2rn2PPucar+Flcza043UuXvT+KQNNU5p88bqxKQ9JIxi/r1jGVTanNG1tCctda6vklnW10lIdkpK4LC8YVJ5wTrg30+Y00T6d++XatXaqj9wbafo1/d/oBuczscltsWu+aZ/RQPBae+ZvegavfUavcX1jQ8ikqD6PaPZi8v5L3WO+RxPfw+f5m8853+Nc43d5j/5v/nZ+b6YOI/E+rvE9pN7RCbkyMCZtAxEZUmOP/SLgGB6OSHt7t0wMj0hQ36fN8JflEP9dkqPDTNnE79n5rell7JQDafo1/f8Tn7lW7pqPgMpeY7lPVlcHZJWmoMqjR19ET8+pR+PfPVsepl8jzZcHrn2inrkWv7+Q/l2meeGzbkZv111QXSSMLXU3PQHCxPP4n4bp10jTP3O9azw6TL/mCC7PFz3xQihW1cPT6WVpU+4SEQxzJ0KqdFfXBuSONTWyc0W1VIZ9pitT37JwMJmN5Zh74xlp+v1Ov0ZbdJh5beZnnGvzfYZH87cxyDFj01LllxVarrVBj5nwxWAfb5/+PcDfM79ntu+ezvRrc32Gp0zE6xmKyoXOIfPI3JkRjerbB6LycfuYOgOTJm/oR95vvsN8Q4zp15zn135r+us8iTPzGo/XPhO/BmV+j6ypDcoSLacaLSO66fmw890OPHeuOc+vfd91rs2XB+dv5xqXSZQF3fxcdzOuM/bgVK6lgFBDc607zZJziPBYrjakyr825JWdGtXfsaZWNrWWayTlSjWQdShTJplNqlBj8GvK/NJaHZTmMp+Uq/Nkut5zDMM0fcNROd85LN2DEbPUbmg0qtF+VA52qSMwGuslyIdhqwh4ZHVdQJo1ug/5Yz0Xltxhi9ticTEsb5rQxIQ0uodXqkG6a1WVPLy9SZbU+M2winXA0mNMrf6QOrM+X4nUlXlNF3VFqceMjTsTwnLJyNiEnO+JSPfwuIxppN/eNSyXOgelfXBMhshTjqMhfo1JnyEtk9qKUimNTxq05BZXGnunffGAsstHwqlnrIyJH5YYs5WTTdlNyB+zmxmjbNSIc/eyCrlVjf32ZeVSHfKZ7mc3kOu27kBvFZPzzKz2EpGq0hJZWumXcjVs49r+r+miWb4jG4n6jGg0f743ZuyZjHmqfUjOdIyYlQzopNk+l7VEGekjKxWI7GvDHn2uF6aR67q7lmI/v2hwdWRPZca62XKfmAcb0WiK5R4WZZYysin7CfljGSTLHjc3l8kXb2yWHcsrpTzoc1X3PRMOZ7v/bCWMhf5v1oybGeIsFStiPoRIQ9grYf8vl27FjMvs35PJxIRAlqZR3xc0su8dUWMfnZIPLw/J0faRa5MFYbbPZyOh/RgPL/eVSG2gWOrDYsrIwehozfdsn812ok4WU7eW69bZ/z/Pn5HH97fLCF5s/LW8gJKNTMiq2oDsVOXKutebVlRJWL1bt0RT84HCef3jDnn6YJt8/4M2s/lJqTZ4Sw5RI8RsY5aE3bm6Svasrpbd+lgd9ktomjFaKDjr7J/+6Io8faBdnjrSJcPRCSNXRnHnkOm/xhI3v7bp//TV9bJ7RYUcujgo//hhuzxxuCM2G11TrpQs+ZrSMhrXPP3Ktka5dU2VPP7+VTl8dUAGNfggL8xmzxkqgwGtm3U1pXLfphr5+p4W2Xe6T1483CUvHu2WtuGolORRL7DxWdhbYiYM/tZtS+X+zXadfcFDcyIhyGZTG5IKWd6S5oMxUpI62/G1uHmYsZM3UHKxSKJSE8t9Zi0nm7KTtAZIVepcrqoLyu3ramXP2mppqgosSEMPelsmFU+Tq4Am5GzWMshiYkIehrPIU2KWNFbpY8Dnk1CgVBorA1Jd7jNj0yUaTfPe2b4jG8n8lioc9M6FriF560S3XOoeNvMHvGrA6M2Z7XPZTIzX14W90lhWKlVlYfFrOaGfyaN3lvfnMpk61EcVKqOzCcT4z424JrIfjYzJ8MiIvHCsTw5eHv7EeFle4MfVwDeV+WWFKtvNS8vNTF2zK5Q7ZekTEIWdvDooRy8PyIGL/TLEVHBtSJZcofKn/7dWlsrq+pCsb+ZshljEslDlj+aM03zkcr/K1aA+DuRfrvhpzRNOxyM7mmR1Y0hGIhPy/rk+Tb2mh5Hd3HJKXPcwbyCgUXOvRs8RJm6wsDznTJmlfkxa3NhSJtuWV8mJqwNyWHXC8bYh6deyymv9aVmxPj+oztqetbWyqSUsZVpurPV3G64x9uPj4xKJRORcz7h0Do3Hr+afMo2iqkIeqVWvtlD3HM8G6Bv24+4aGpNOfcy5wrMYmB3eVO6XYGnhHnCTDEiRI1ddA1EZw4gVAHTX41RVh2MD0h0Do3K1N2K2znW2w12sUDZVQSbn+aRGZbFX6w+d0KN62jgheYY5BfR4tFaXmjzSE+HGuMQ1xh7YYpKIspDalukh0n9Ml5ELBWg+nG0oicYs+cHIntp40+0cv7bQKVS5IhqkvCGmh/Lcu1hAxHQgnQtFsfpTG5+PZYnzQRc++XOrmnaVsbdYLBaLxfJpFn6/nsVisVgslnmxxt5isVgsFpdjjb3FYrFYLC7HGnuLxWKxWFyONfYWi8Visbgca+wtFovFYnE51thbLBaLxeJy3LOD3sSkRKKT0jYQkd6hcZmYnDSb7OQbticNlpZIbchvdtArKXHvpg3Toez7B0elZ3hMOgYntD7Us7SuZc5A9Cnz6rBX6st8Eg4s/B30uCc2YunQNt49OCYDIxNGzvItV2wQw6Yxy+uCZge9mW2cw3sGR6LSrvnuGRyPb3IUf9FlcOd+b7FUBj1SVx5QmYvtNw/UH/XVFd8BcTgyYfR2vuGsBfLYUOGTqqDP5N/ZHMlNuMbYO6fevXmqT45cGZDRSNSc3ZxX9Odry/zSWhOU7UsrZZk+lvrcuRXjTHC2Tl3slI8v9Mm+C6PmuF+PNnxLbmB3uWhUZHNrmdy8skqWqSGqmH626AKEXemiahzeO9MrBy/0y9n2IRlXOcu3XE2Mq2yzN/6NLbJ1WYU5GGd6G+9Tw3auc1j2neqRQ5cGxOvBwLiwLai+Y2vcuqBX1jSVy641NVKmz/3x+sFRG1c98NH5PjmgeoEDejD4+Y5+fBxm5PPKrasqZXNLWCo1MGPLXLfhOmP/vbcuy8vHu6V3NJq/Pakd4VXBXl4dkK2tYfnsliZVvOWLxtjjsb93okP2Hu2Upw52S59GN8Wctmbc+/ibLNlBo5Ip/W9S5a9KDfySqoA8tLlOblpeIUvV4eTM84WIMfYqR68d7ZDXjnXJ66d6pX9sQopRzPmSK23Mk5qHsEaH/+oLa+XeTXWfOuyqbziqhm1Evv/uZXnyQLsZOy3iH33fgm8P3Cj3iq7VewlqXdy+slJuW1sjt62vk6C2+U9E9vrfG6oTXtU6fPNEr7Rr2QhH3Oa6HMgSedd8B70lUlnqka/sbJI719VIfXmpie7dhuuM/X964Yw8/lG79KrHOIYAxmURQZqKydysFF3n9dmY8zMIN6WqimldbUBuVm//sV2t5jz7xWTsXzvcIU8faJMfvHdFeqMagXEQkFEKs5dbMnVg3pbA+/lOSPh785iHjOXVEbB4WYdUmT68pU7u21Bnzjev1GhrIZ7XjbGnS/yFg1fl2YPt8vjhLulRQ+tBMcfvdTayVqf6nikt6wnVNWX6+M1f32JOvpvZjT8UGZeO/jH5qzfOy/ffuSw9auCiatw81MEsRi6pPCiZep9DouXFW7h/81zLf0pThcra125qlAc318suNfj+WeTspYNt8vT+q/Lk/g65NBSVouAv9YLD9fKQaB4dPvX+aW2kTB2U2oBXfu+OpfLg1nrXnmfvOmP/zZfPydMHOySiSmBCr0+p91akDYqqnZzubk/jl6+bv/jnupjz8xEgfc5vfAL+1BdoACuqS2VbS1geualVdiyvXFTG/s0jauwPt8v3PuxQJT0h5fEGNGuZ6dXiucpzFhKtM94HiXxn6nmY/72J5iGZvDq/jQKLPZuG86e5ETUqeoEx1B1LK+SRGxpkU2uZOW55ofEJY3+oQx4/2i2j+ne5iQzjb/oU2ZerwbFxc3LaN391kzyyvfFTxp6u60h0Ql441K6R/VV5+Uy/dKvBryLf+saZ9ZdKHuYj0feB+W3KS9863/t/mcfYe4r1b34FR/K3b2mRezbUyKrGMtPLMROM/bOaXjzWI21aDl4tB37TwfnuWWXbkIE65UG/AB0d1t+vDnjka7e0yt0ba11r7F3XV0EdYkwRMp8+mZ78erczr5mkjZNH/8zriaT4Zz+RVADVppvnjGG56cSxZDD3TUL5mTKJpdnK+dq12cpznpRInfGeOet+Wko9D0l89xyJ70jkXq6l+fJIWTvlre9jQhjR5MdXBuT5wx3y0fl+6RqIGMO5YKFB6T2ikq/d6ywp9Tqd/frMxJCImczlpFmgG7tUDUqrGpENjWGpVscrke9P9D3zyV9KcuWk2V53Uvx1vt/LbavhpCt8md7jstqg1JWVGgdoTvSlYv0OL98xs/6u89vX7ud6eXTStbxOu2Z+85flFqvHeN5cit6u+3BkjAc8TqcO8R75e2ZyvMq5Xp8tXf8zsdctszOzvJKtg+vVqZMSfR8p23mY7TUnXfvt67zPSYnmle8j+opqBHOhe1SePNghb53slvOdwzISGTe9yAud2e7bSYmWk5OSrdNEQB9h8GvKfLJUDWGNGsUAlkV/Y7bfSTYP872P18x7NM32+sx07f3X++1p76P7nnPpy0pLZFWNGvuagDm3PtFJiPN998zXEnl9Zpr7/bHriwVXGnuLxRJHFVqJKjaiGwwOSvngxQF56kCbnGoflqHRqCsM/kKAWd7LakKyotwjtX4xdZG3ScQZZFxvYUjvozzkk1UNYQkxN8dScLjS2FvlVZjYask9xFYkj4aXau9N2zjdNSJ7T/XKfpY/9YyY5Wu2brJPyO+Rhgq/rNDot0GjfOYguMDWG4ji6/Te1jWVSZnep6XwsJG9JTeosWHmbjIzaC2ZhbHl0pJis1Ll484Ree1Ej3x0rl9Go2rs3WJ1ChiPeltlGvWuaCiX5uqwK9ba4zwy5l3lKZaVVUHZ1FIu5QFv/FVLIeE6Y89GOoxP0kUWGecxP2lkfFL6NY3o80UN2kDrYlITE8LG8lgniz2xFJW2wS5mY9EJOXCxX/ae6JZ9J7rkskb4bMSzYKSVjBq5mv1ec5EoS0JzMyaMnJPmgbF7jxrFuvJSqdbInkmrdOPP9t0LImlbHtA2HdV7qwl5TWKXUJya60FR8R2j6OmZ35vDNKaJPAxzH9Sni3GVsXdEzGl3dE6ya1M+UlR/f3hSjZs+4sHTsBcb3DIzcj2UAYZE02xlZVMOk7YJM4Nb6+d894i8e7ZXXjnSLqfbhswyNgx+oUNbYha+V++HZVWz3mcOEg4HyxqZjU7HNcr0eqXH6pzqMr/UhH3iV8NPG5ntuxdCGtc0qmlKjXtThV+qghj6WLufD/O6Jj7PeH9sOCNPSWuMfETIg5O3a5bEXbhmnf1oZEyGRkblb16/LC8f6zEem9Zh3jANITopy9hBb0m5PLC5QTa1lC2adfY04P1qSF4/3iVPHGiXobEJCbhw7epChRieqDKgBqc64JXPbKyVPWurZVltyERnhQgyxQ56bx7tkNdPdMlrJ3tlWNtYvuQKw0Bbpp0z+fF/eWiN3L2h9poRnw3W3PcMjskbJ7vl7966KAOj4xLVawsRZIjyr1Pn5abl5XLPhnqzaZNZbht/z2y8fYwd9NrltVOx/Qaov3yqRL96a2w89dhNzXL7uhqp0ftZ6OdIzIZrjP34+LhEIhF56WivHLo8SA+fimL+IEIa00zUhOJ74y8rN4YfIZpLEbgJ7v9s57AcuzIoH5zrlYgq6dk22LDkF2ejms0t5WYf/RV1ISkLFKaxJxLDWB671C/HrwzIkbZhk/d872POfv2e4mL53LZGs2HRfMaeAIQ8H7s6KK9+3GGc4IXafcy9cO+V6ixu0Pte3xSWlSo/1+P45X45erHf1N+g3n++DSu9LcxluWVNtWxoZjWBN6GhiIWGa4w945CkvuEJ04DyjVOoTIpi4wgUKAdkLAZDD9w/u4aNjk2a+kCfLZJbX1BQTyhtFC5RPic0FvLe+eR11MjVhIkqC0GuKEPyUK5tPOArNofizJcn7mFY8983Mm4cmLxGJWlC1jGWQb1vdp1LZE956s7Unzo9BGV5lzbNAHmo0PpjL383nngHrjH2Dnj+hdgrRhtw5UlX82DGxLQxo5BdJWQuBekkoil0MS1UucJHYrfCRIyFOZWQQWIXwN3Sacd9J2InTf1pxVGHhVR/dDA4h/a4EdcZe4vFYrFYLJ/k+n0uFovFYrFYFjTW2FssFovF4nKssbdYLBaLxeVYY2+xWCwWi8uxxt5isVgsFpdjjb3FYrFYLC7HNUvvWLfJbmCczx0Zz/+mOg4lRcVmhy82nPB6WMPs3nWcMzGb6kQnZUQf2fCoEJawspGnX+uCDY58npKC2OTIbAM7MSXDKrtRFh8XEMgv55Oz6U6+1yCz/wxrtNlUJ6JyxU50bNmab7lC9yBXnPYW2w47uQxxT2N6P6a96D0V8q4U3CdyEPCVSDDJo2ypP+qLjba4Vw4rKxS9AEG/12zdy/25UU27xtijLEdUiC50DUp3/1j8av6hUYSDXqkv9xtl4FZBmgkNu3cwIh0DEbnSGzEGjZ0E8w3lX1fuk5qwXyrDvoLY6AjDNTAyrrI7JIP6WEggv0vqQlKhMoyDlE9iG9FMSUd/RDq1jfcMjRljkW+54owBGvW65rC281IpKcEkJg5bzvYNjkmntpWOAtJds0H7KVWZaKwqleaqQPxqYuDUsOkZ99k5oPU3GFW9wFbDyZVXtlhSF1TdEFCDr0FZAeiFTOMaYz8yNqGKMipPHGiTD871yQTBPRYnT+Cf44A0qmFZrcpy15pqWVUfmnffbDeBcT96ZcDUxUvHus0BJmV5NhbDWh/FniJ5aGOt3Li0XJbWhszWpvmmdygq57uG5dlDHXJOHyc0n4XAlApqfYVPHtrcKGsbg1KtzlE+ifWATMqHZ3rl/XO98u6lQZlArtj6LI8M0cOgZfV7ty2VXSsrk27jo2PjcqmjXz483y97T/frPWrZ40AUGDhabAm8vjEsO1dUyQ3LK+KvJAbqGOdsP3V3pkfeuzAog5FxKVfnIR8qkSLGUcM54zCc+zc16H1VSnXIm/f9+rOBa4z90Oi4Ks2I/NnL5+QZVZrRaGyv/HxAQ0cxcab9qtqg3LikTB65sUUbR+WiOfUOD/7tk93y9OF2+e67V8z56dW+/B6w0osW1Ub8R7cvUQNWL2ubywqiUbf1ReTwpQH56zcuyKGLquwLZB9VzilfUhOQ/+G2JbJbjdiyBA45ySa0KbruXzh4VZ493CGPH+3RslK58ubvNEXaeq8GGpP65P99bKN8YVtD0mdgjEaicqG9V1480iXff79T+kfGZVT1V0HpCc3L0NikNFb65YGNdWoY6+S2tdXxF5PjpYNt8rQGZY/r/fbqvdYmORyQKTD2HFbm0/rCifntW5fIA5vrpLmq1Ay7ug33uS8FgPFg488XL+ps0b1iTrpQTZGM9ssmtHBLQhCxdgyrIeoYlK7+SPxq4VEookUXdyq+o8/rkdb6SlnVUCEryrwS0EgTI1RIoopOi0zSgyHSVOGTymCaBpo6w5sh5an++GlfSbGEtNLoHSqEYcZsYo19lmCSjrd4cUTxc4LTg5YopDIoFMuwACCSHoqMS9tARHrV6BcyealW/U2MHzaZnycPnOWerLwzPhzwe6W2rFRW1QbE7y+REW03E+ZLY+8pBDCGHGe7ojakeU1/SMev3+fVR3ObebpP9HOJ/jjzBnjuZlxv7GMNMPcJwfGph+52bzEZZiunXCbzD/XB8wJnZt7zktTgMNeic2hc+tToFzqz3kMWE9B9n6kAvCxQIisbw1KqBnU4buyZCzD9N/ORaC88MLbeVOaX1Y0hqdPHdKAZBvQfDL7DbL+d7bSYcK2xX4yVaXEH+ZZbjJcxYqqIx/WP7uFx6R8tnOWsbqUy6JP1LRVSGcrvRMiZjExMSXd0Qhoq/bKmvlSCavQX0xJit2C78S0WyydBj2syy0T1aefQmPSpwbdkl7BG9MvrQ2YFT7m3xCw1ZLZ4pnoOUoUVEMOaWqsCsq4hLMEkJyBaCgNr7C2WAoNpDvmkSH+/WI1MGZOXVKuz9ruzwMfs3QCzwivCPlldHZDVGkWz8mBQI2p6WJgbkDdUIIvHp2S1OiIbWsrNplSWhYdrjT0KM59Kk5m0rEstkCXTFlhAdZFvgw+odAx/vxr64QLb7KcQwP4Wa0Vlyg6bSb3qYC1RQ7+qJiCekiIT3Ru5zYM8GB2mCizgKZaWMp+0VpZKfZnf5DFjcHt5uDcohDaWS1wf2VOh+UhmC8yJydjuWhbDzDLKdVpozHYPuUxYMbM97fC4jEYKd8x+Zr5zkRxwhjD2zqVpL6VMc0WprK4LSJjNZvjyuMGfLR/ZTKbuVYeV+T2yviEkTWrsGWrI5O5y+jOxxxm/nYtkfndGcjO2G9+SZbQJOdGJZUFxTQFqdDc1HtvqFANg0XKJi3RsNj5/TJmdD1muGCu01GHcfseKatmgjzWlHomMT2oVpPmlKUCvJEsAG2sC8tnNdbK8NiA+T+rbfXMLjgxRTMP6z2ge7suBPBCQDWv59kcnTE+sm3HPdrkaefSPjMnf77ssb5zsMUKVrx30ICZIU9Ja4ZeNjSH5zKZ6Wd9cJn7v4lh7j9I7cKZH66JLfn4ktl1uhUYq+WRA8yAlxfK1HQ1yx+oqVarhzHZJpkj3wJicbB+Wn3x4WU62xbbLzf+0LFXOqtU5oKWna1Q+d0OD/G9fXKdRXay7OR8gU8jRW8c75c1T3bL3/IDZbTB/2+WyYkHlajQ2xPE/379a7t5Qk/aW2PQGnu8clh+8fVE+vjxoNjbyacHnWlTZyLFvfEJuXVkpX93WIMvr1PkoT33JHUYevfzeyW5540SXvHpuwJRdlS8/9Yd5QEd71IHhAJwv7WiU29dUS53eo90ut4BhMgsH4bDd6IXuYeNd5/vGcDbK1DOvDnplRUPICJFHG22edGVOoWF39I3K+a4ROXJ1yIw9ogTzCadsoaA3NYVlWW2p1JSVmhnn+WZY5ZZDXQ6r7HYPxg5CKZRGOa5lxvat65vK5G6N7vJZWhh7jMXZjkG51D0qHVpm/J3vZWDm9D3Nw63qQK6oC6bdxjH2A2rgj18ZlPaBiDGI5utyfZ/ahhm8aaoolTX1AanW9hJWfZYqjrG/0Dkk5zpH5FL/mJnpz5yAfIGOZiMkinZTS7nqhZCE/Pk/4TEbuMbYO4qgWxXAYNzTLgS8JUVmr+yyUq85QcyNpynNBkI1Ghk3dcE6bRpVvhuQ0xWK84XSoj7Mjmd5BrnlKOCeoYh5LCRQ0HQjV4V8sqQ6uVPOMg3VRx1iCNnZj3xps887jlw1lZdKWdCTtvNBmeNAcJ8cDx1hs4M8EtTIm6Al4POY47pThWLi3jiwDAdmiDMF9Bq71xUCNSrjzElAZxeAWsg4rjH2FovFYrFYZsd9AxMWi8VisVg+gTX2FovFYrG4HGvsLRaLxWJxOdbYWywWi8Xicqyxt1gsFovF5Vhjb7FYLBaLy8np0jvWWRbCzmBuJZX1vbZOLNcjGblazPJkNmeJP88WrFPPBdxJttaaL2YZyecGUDk19mx8Q7JkHvalKEly5y5qgq1Zc6VALAsP5CmZHeEWaxuneEpKirKqzGmm45OT5jHbcOJetu5l0cpIkm0p0+TE2FOv7BJ29HK/fHSuz+w4tfiqOvPQYDiCsqHMK61VAVnTWCblQa9pqHOBosC4dwxE5HJPRM52DknvsD2r3PJpcCArA17Z2FImDRWlUqGyNReOXJ1XeYpt8zpmdkjj7IF8KbdcgW5jd8jb1tbIirpQVnZgo51f6R2VN453md3n5mvjqRDT0ZNmp0+29d7UEpYW1SmZxJGRs+1DJl3si+0Yyb0sBhlhJ9VNzWWytCYgtdqecn3LOTH2GCX2rX/qQJt8783zRrCoeEt6sKUmjWVTQ1BuXF4h92xtlGZtoAjVXFDu1MfRKwPywdleef1Ej5zvHpYSt7c2S8LQNHHIS1UJL1F5eviGJtmytNwccToXKHHk6t0TXfLSwaty4OqIdAxFjSzms+syF0S0DXJwyh/ct0ruXF9j7jnTt0w7P3RhQP7ixdNyUY1+kTZxyjVTP0Pd8Rut1QG5YWmF3LelTra2lsdfzQyOjLx9rEudlk7Zd7ZfetVxYdtqtzManZAKdZwf3t4gu1ZVyvrmipw7ODk19t96+6L8h2dPSUDv0mttS9qMqrc4PD4hOxtDcufqKnl41xJZWhuc19gDBv/g+V5541in/Phwp5xoH5agRia2SiwwpvLB8aOVKkcbG0LyW7ctNc5kIsZ+38cd8tyHV+SFc/1yrn9Mwt4S00PgZkbixv4bj26Qh7bWZ6U3g8j+0IV++fMXTstHlwfk6rAaSS1YX4Z+h+33hzSy37msUh7DIKk+WV0fir+aOdA9rxxul+cOXZVnj/RI53DUnNvvdoY0MKsO+eQ3djXLZ9bXyjZ1qFxt7P/76xfk/3z6hDEsPrdrgCxDpUUoV1U0OxsCcpc2zi/vWSbL6kLXNfZw4GyPvHakQ/7xUKccU2NfSpRgq2TRg1yNqVxh7Ov8HtnWHJbfu2Op3LCsQuorEjD2hzvk2fcuybPnB+SMGntONMtwj3NBQXkNadTmUQP/zV/dJI9sbzRj95m+ZU6NPHZ1UL79+nl55VSvHGgfkgotWwx+2nAT+jVT+l13rauR39ndKmuaQtI4T32nw0sH2+TpA5qOdEnnUFSC6hC6PdLgzPyasE9+55ZWuWfDIjD233rjgnzjmZNGAXitsU8ZKmxSJYXjIenK31pbKntWViZt7F9XY//M0W452TFiDb3FyBVHtUYnJ03XdJMqp60tZRrZL5HNrWVSGZ77LPPpxv659y7LK5cG5NxAVPy+YrO+tzjrWib3mHaoeqxvdFzbT1HM2G9ryIqxhwvdI/Lk/nZ56uNOefFUl9SqkQyrLk0Xom3mGVQFPHLfplr5Ta3vqpBfQmkcZzsfGPtnD7XJyyd6pXMwKoEE9NVCZ1T1dG2ZRva7W+ROdag2tebe2Oe8lM39ubDh5xLKsFgLMROVF1UFTbJVYkGuilQSiuLC0FpVKpubwtJQ4ZeARvmJgjSNTqqCUytSWAf2LmzK1HHa2uSXVdVeCauT4cmQteD8fJmalPrSCWkIFEkZx7xmwIlIiBwbvPyS35vNm0uFN2lJHRSyo5RThY/T0GONPXbNsrhBplAKJaqYGsv9srI+aM6y99PVmiCIUlQb+Fj8j0Wlz7NIQI39itpSWVrhkwpPiRp7elTiL6YBwzY4ZQ2hEmkoK5GgOnaZnu1vyT95M/YWi6XwwAlnlnepWpLyoEcq1dAz4SwVivTL6L5P1ym1xCgpUUMcUOerLKhG2Sceje7HJtJfdx/RL5jQOm6pLZfGyrBZC+72FRSLkbwZeytL6TGl5UdKBz6OwiDZ8MviwOTZco3uqoI+Nfg+KU45yiuKyWn8L0t6FKsRLvV7pU4N/YrqUvF6i2XEROXplXCpp1jKA16prw5LZVkg57rZykhuyLmxt5WaPpThpCrSTIyHMlGSZG29xWmbLCOrDnk0eU10b5zBFECJI6PpOqWWGFSD31Nkovq1jQHx+Uti8yK04lLRq/QI8NlyX4k0h/1SXxWS8DyTMLMB+Way8eKQkVgtpVJXmcAuvVugUGmxpXcTsrMhmPLSu3841CnH7dI7izLJpLqJCVlZHZA7VlbKA9sa5aaVVRJUo8IOcfMxfTb+M+9dkifP9cvp/jEp98bGlt0K7XCIHe208Xzz65vlkR1NWZuN73CuY8jsRPrXb12St8/1mm5S9jb0J6lTmZgbmZiSbXUB2bOiQr58y1JZ1RSWYJbXvZuld6Sj3WbjpaA6l25XPYtv6d3bF+Ubz54yxt5rLUvaRCYmzWYNO9TY376qUr64a6ksrUt8U503j3XKT9hUp2NE64ROV1sni5kpFYwI8rSkQr6yo0F2rKqSlQ3h+Kvz4xj79450ygsfXZEXzw+YTXVCKotu9+tHRsaNPvv3X90oD25ryPoWwX1qIM93j8hfv3ZOXj3ZLX3RSWGtRGmyxp5NuVSH3L+8Qu5fVy133tAk9ZWZ3SJ3Juie1460y/OHNR3vMUvvQsz8d7uMjE9JtRr7f3Jzs9y5tlq2aBtztbFnu9y/e/O84MdZW58+zKJnJm1rhV+2tJTJQzuaZYlGZfMZexob9cF2uR+e7ZO3T3XLpZ4ROyHHYoxyqUbiO1dUySM3NZtIJFyaWJTnGPv9p9WJPNohh64Omd3RMHxuN/asoabn4/c/s1L2qCKn/WWzObGtLedZPKtO1Yca4ber8edAq2TLWavL9EzcuaZKbl1dLauby8yyu2zhyMj7Z3rl3dM98oHqn/7RmIy4XftQ1tVhr9y/qc5E9Svqw+409twoBwEcvzogB873xa9a0oVypQGFSz1SX+aXDdpYOawkkYNwOjkIpzciFzVCGBixB+FYMPZF4tcoa0lNUDa1lovPU3Td7nsHR66uqON4rmNYI7YxGY5OmM+7vccIpxvFzZDHsupg1g92wWBi8E+1DcrV3hEZjEzotfiLKbCyLqh1HjArL5ivkS0cGbmseb7YPap5HzWbNyUqYwsdzgBYVR+UpopSqVRHOtfkxNhbLBaLxWLJH9lz4ywWi8VisRQE1thbLBaLxeJyrLG3WCwWi8XlWGNvsVgsFovLscbeYrFYLBaXY429xWKxWCwuxxp7i8VisVhcjjX2FovFYrG4nJxuqtM1OCZX+0bjf1kyha+kyBxeUR32i9/sRX79Haki0QkZiUxI13BURvW5xb04O5cF/R6zexcykupJdtejb2jMtHN2z+NgnWJ20FsEG6TR5hrKS6UsEDslMNf3TP1Gx6fkEjvqjY6b/MyWhxK9yHa+tWV+c8BRLrfJduRwcCQq/ZrH4bEJs/vgYsFTUizVKh/seBrQtkhZUCa52kEwZ8aeOj14sU/ePNGjv7oIWn+uUGmpKi2R5gq/bFpSIRUh37zb5Tp0s11uz6gcbRuSjkG7Xa77QLNibGMGlzPLW6oCsk1lBIPEVriZBkVytm1AjlwckCsDYzLEAS3mUBiXt3dtg2wzvIuDg+KnTub6ltlCFyP/2okuOd8ZP+vC5CGeEayK/l8V9KhTorqitcwEB4noikyBcSOf5zuG5FzHiFzsjaiMaKCxSOxBWJ2rTU0hc35JrTrdk1oWlAlnA+SC3OyNrzcVUa/zh+9elj9/6QxusDX4mQAPSoVlTaVHdi4tk4d3LZMltSGjeK7HEXW83j3VI08d7ZaTXSPxqxbXwGbpY5PiVwVTXe6T+9bXyK6V1bKhpcz0AmVayWNLzEE4J7vktYNtsvfioDn1rojfcXNbR5epwSpXr+qPf2WN3L2xNuun3s3GmOpXziP4q73n5I2TPdLL4Ti84ESN4yoPms/bVlfLXeurZeeaammoCOTU2GNoOFlxnzoke492yqvHeuSq5lPUOXKtjHBb3Ju2x4awT760vVF2r66Ujc3l5mWN7XPWu5ITY48SMOfZv3Ze/o8njkmxNgaijSm9R3ObaApLUkypgExpuU5oI95a65M7NKr4+l2rZEVDeN5T7xw+Ot0jr3zcLj8+1ClH24fiVy0LDuQg/jT2RB1rlQvOLqtVRb5cI811reWxM7SXlEtTVak57CTTCsaJ2jjP/tn3LsmzZ/vlRF/EnO3uWih71WPRyLiE9PGbX9+Sk/PsZ4ODxroHo/Kt18/J01oHH10eMLEAQ3xQpH8U6Xu+dEOjfPHGRtm+vNJ05aOHc405z37/VXn6YKdcHhqTYr9HiuKy6zpoZ1rG6OkmzrO/tVXu2Rg7+S7DTfC65NTYf+uNC/KNZ05KqRp7PMpJvVkqOVbRloTRcqPsOI96LIqxL5U9qyrl0T3LZFm8G/F6HDjbI68f6ZCniew7bGS/UJnSqp6Mm5YinGZta10qE2W+YtldH5D7NtfLXVvqpba8VMIoVVU82dAx0439c2rsX740KOf7oyqL/F42frEAMO2wSPrU2OM8ffNXN8kj2xryYuxhZGxC23S7PHWoQ75/oEOKtT4qvbEjijHqXk+R/OrOZvnijkYzpMPYcT7A2D+r6eUTveZ4Xp+vRIpVftxsByIa2deqsf+NW1rkznU1srk198b++lYhw3B/TkIMyQDOpU1JpHjZkRAYk/R5KjBBxjmic9bfsqkgk1EU+oQHengGohMypgqTSVd7lpXLV7bXy1dvXSK719Wa7tqgz2MUPu/PNujsiP4TMc+KPpV3tyT9P622l2mY6FWvTl1zZanUBDwS8MTOiad9B9X5W1sXlOW1AaljIm8CQ31ZxRRerBxLVE7cbgf0f5WVWPsj5YP81bjqARPVx/+0JEcmekT4uGPszR+WBcOE1teYRgvMwGZODF3ztWGvrK4LyGdWVcrDGtHfvblB1rWUS0gjuFyPzUY1Tzgf/GfJDfQuVKgMNFSUSn3QKyFv8bW5FMzTWFVbKi36Wrm+xsTJQqFY82jtQPYpnBq3WCzzwhwXuo2B5ZJdQ2PSORKVEk+R3KnR/Ne218o/3dMg92+tl/WtFbGlVYQVlkUBomGW4Ia8sqTcLxUM2+g1nxr2cpUFxox5pAcgLkaWRYQ19osY2rtHW71Zc20bf8FCxwvzM0j0wvB3tUZnmxpCcu/6Wnnkhkb5vBr4u9bVyY7lVbK8NiiVqtjNsrf4d+QHJg9Om0BoySoY8FKvR2qCPmmt9JmlXsgLcwjC/mJpriiRcGnuVwpYCgNr7Bc5XlUEXjz9+N+WwoJuWBT2yMSkjI5PSjQ6aZYvragulUe21Mr/et9K+dPPrZUv39wq21fVSm1luQRLfTnbqGM+6IlgAqEVrtzAmDAbJ1WFvdJS4ZeQr1jGVHaKtA7KA8V6rUjKS+Nvtiw6cm7s8fIRwDGNUohQUGY2pZYYEx3SQozq81RhbJU087ttym5C/jHeMxPXzXu0bpg5X1ZaIq3lPtlSWyp3r6yUr97YIH+oBv5371ouD2xrkuX1QbP6gvHagrOpehNFk7HHmffvhgRmSdvMi3mC+mcTJeZotNQEpSzgM9eCnmKpCvmlpaFGwsGAeW++QfeP6D+ji0T3FAI5NfZ4nigl7l3jE/NopNGmlBJdpEaXUqaaEsUIH0KoDzQ6tS+2LnKUqCYS25ay+UrAWyIhf4lGXB6pDHikrswnzVWlsqQmICvqArK2PiA3tITk9lWVcu/6avn8lnr58o1Nct+metm6rFLqymO7oCVR/VmHrDAf8BOb9PHcbemXD6b9mGS0u7mUF9CvLLFsrQlJrcpSyFci9SGvNJUHpKaiTAJ+X/yd+WF68YxrivuCny5bt6UCIKfGnrEj9uUmeVkLrpELE45sSi2VqjatVWPBTOxJdekx/teDxsbsXIy8foV49Du83tjmILP9hk2ZTUVq4P2qgGtCHllW5ZeNDUG5obVMdq+okDtXV8r9G6rlke2N8hU16F+/SR9vqJLHdtbJr96+XO67oUm2rqiSSlXeuZxdnyzkzK/y5Od+9Y/ZysFNaYpwWut1YqpIxrFeeYZ915fVhmRpVUCWVPhla0tYVtcHJd+r7diLYXwyNgxFVoJadsjJYtA9yQRj2SI32+XqLzC56M2T3fLM4bb4VUu6mKV3mupU+a+oDcquNTUaGfrn3fccY0+ju9g1LCevDMqBKwNydXAs/qol2xDRMyGyVI11SB21soDXRPd+dbhY+0xUxvkG1KEG/OIrmjCbn5SVhc1nC0BnzIojVycu9suBU91m97yeyERsB70CzXOmYCtwApev3tgsNywpN/WYz3piKabRtye65cC5XlnTGJLVDSFZ2VCWVyfRkZGjl/rl40sD8vHVQRlYJDIyqfVRpu34tlXVsq45LM3qiOX6lnN2EA6Y045GrGHJBsy8Dpd61WjEltZcDxTU6NiERKLjMj5hT73LB54SjDzLo2JGnMmSOAKFHLVfjwFt4wOLsI1Th7S/gM+Ttx30ZtI/HJXhSFTCAZ+Uql4oFLkajU5KZGxSH6MywdGIi4SSYtXR6tyjo7N16uR85NTYj09Mylgh9HO5EMbqMPiJrqHF+6cqaGxmnNGSczAQHrqA4/VF+zcT7QpDJ6dE1Gz0szjbuFcjetofdVgIUA/o3Fi+CmfJHcOITlpMuof2zjydfO1zkFNjb7FYLBaLJffkecqGxWKxWCyWbGONvcVisVgsLscae4vFYrFYXI419haLxWKxuBxr7C0Wi8VicTnW2FssFovF4nKssbdYLBaLxeVYY2+xWCwWi8uxxt5isVgsFpdjd9CzWCwpwU6n8YOqU6ZQtpa1WNyONfYWiyUlYucrpK4+sPOcDWDtvcWSfayxt1gsSTExMSGRSESOHD0q7777nnR1dcnQ0FD81cSoqqqS1tZWuf3226W5uclG+BZLlrHG3mKxJEU0GpXBwUF58skn5Vvf+pYcP35cOjo64q8mxooVK2Tnzp3yB3/4/5dt27Yt6GN9LZaFgJ2gZ7FYUsLj8UgoFDKPyeLz+SQQDEpJiVVBFksusC3NYrGkRHFxsTH0PCaL81nO+LZYLNnHGnuLxWKxWFyONfYWi8Visbgca+wtFovFYnE51thbLBaLxeJyrLG3WCwWi8XlWGNvsVgsFovLscbeYrFYLBaXY429xWKxWCwuxxp7i8VisVhcjt0b32KxJMX4+Lg5+Oa1116Tn/3sZ3LixAnp7OyMv5oYy5Ytk+3bb5Cv/5Nfl/Xr19u98S2WLGONvcViSQpOvRseHpb33ntPXnzxRWPoBwYG4q8mRk1NjaxYuVI+//lfkRUrVlpjb7FkGWvsLRZLUkxNTZnovrOzSy5dviKjo6P6dzT+amL4/X4Jh8OydOlSKS8rs2faWyxZxhp7i8WSEpNq9CcmU1cfRfpfSbH+aw29xZJ1rLG3WCwpo/Y+Layht1hygzX2FovFYrG4HGvsZ4ExyUTJ9nncJidJhk8L5YzwZMr5ethz0S3ZJmF5VVnMpjQm227c0DZS1RVWL/wSa+xnwEzjSCSSsHAx0cjj8cT/yixmTHRiUsajUZmcnIhfnR+v1ys+ny/+V2ET1fsaGxuL/5U6JVr+Ho9PiotFim3jtmSByclJoxd4nI/i4hLxeH1SUlKUNVlMpt1g7NBRJSUl8SsLC9QwepAJoOjBZCjWezZ1UZy9ulhIFLyxp3Ex85eGxiN/J2qIMXyO8ZvPIGPgaUBaFmYJUV9fn2lM/N71qKqqkoqKCvMbJBpWsVodUrJwX9wfv839Dmt+hoaGZXCg/7qNm9/jXkOhkMlPMBi85ogUgncba7STMqr35JRtf3+/DA4OmrKnDpKF++K+S0sDEgqH9dEvpXrPTp1n0ukhn8w6TwfqlvogUT+ZchIpS9a9U4bXM0ZzgexRno4Mk+aC9/Jbjpwm0yYdqDcMEOVAfSWD01757WTumfvjN7nHQCAwZ7uYeX/UO0sN0Qv87nz4tNzKysrN9wdUHnnk99I1tuTByUtvb69J14My5rfRUegFp255LGQo49HRmL7n+Zgm2t/Q4ICp60Trm7KvqKwSv96vz/dLWzCfbLuZgjf2NDgUWUdHh3R3d18z+IlQVlYm1dXVZk0vy3zmgoaM4Tl37pxcvHhRLl++bH4LAbseK1euNBuE1NXVSW1trfkthCxZBQbcF425p6dHrl69KleuXDGP5IkymA9+r7KyUhoaGqS5udnkiefcdyF49czaHouOy5XLF6Wrs9MoTu6NhOJCkSULyoyGW1VVreVfe62ueaQuUHKZ4uTJk0YuUsUxUNQH9dTa2irl5eXxV9MDB/XMmTNGXhNxUGeDvCEnyAyyTDnOZQy5Fxxj1te3tbWZzybaJh1wdDBAK1asSLoc+G3aK+2DtpvoPSMvtE1kg/Kfq11wf7TDrq4u8xvt7e2m7mmHXJ8PdE6LfjdlWKe/s2TJEiOP/O5c5Xk9cD7a2tpNW7l8+ZKp67Nnz8ZfnRt0AmWLjmppaTF1Sv1msl1kg5huaNM67jP1TMBz9eoVUweUP/WTCNzvqtWrzdJOxxY4OjrVuljIFLyxdxr1q6++Ku+++25Snt2atetlx85dsmnDOmlpatTGHqtgGg8KAqFyGvGFCxfk6NGjcunSJfObKJFEDBCCgwDV19ebBsW64c2bN5tHDBEKJhHIC0qFhnz69Gk5deqUcXBQOBjD60X2KC4UCkJNZE8eVq1aJY2Njcb480jjz6XhxwhggDAI3d095l5Onz5lypt7o5xJKO9UjBQNlnvivjEcRInUB2W/ZEmr1gepxdQPrydaF7Oxd+9e2bdvn1GyiTiBM3GiRfK3fPlyuf/++2XNmjVp97yQF2TlF7/4hZFl5DYVaFMow1/5lV8xsoOxmitf1BXO54EDB+Ttt982v5tIpDkd6gQj9NkHHzSOaaLdrJQjzjDt5M0335Tz588nvHsfcrJx40azc99NO3eaiG/mzzqGne89c+a0OnmnjOPP/SUS2dPmceYwstwjuwOuXbvWtEXKl/aZCE4Z02Yw8seOHTP1jJ4ij+TpeiBb5AeZo/3jeCB7JJws8plKUJINuB/ulYR+OHv2nNbDJfM3ug+HFl2RjGNJm6cOKAPKnXtG1nD0qAvKxemVXQwUvLGnIbMd51/8xV/IP/zDP8SvJsatt98lX3z01+TO22+R9WtXiUeVPWPfCAwNF4WBA0FDOn78uBw5ciRhxTEdp6sMIUKgPve5z8nNN99sFCYKZq7uWsfpwKmgIR86dEg+/PBD80h+yGMqyhujtnXrVqNoaNg33HCDSU53Xra9Whoj94WBv3DhvLkfek1QVETIPGLsUzHw1wMli2JdvnyZphVy0003mXLA6Juuc1Vuqdw9xvTJJ5+U5557zijfRBXOTJAJDM6/+Bf/Qm677TajbFJxQmi0k5NTcuniBXn99dflz/7sz0zZpuKIAGWDUfpX/+pfyZ49e4winEtOHCfu+eeflx/+8Ieyf/9+4yQnw+rVq2TXrt3y//uX/6Ns3bI14R30aDOXL1+RDz74QP7+7/9ePvroQ9OOE4Gyfuihh+TBBx+Szz70OQkGSs14LnXJPRE1fvTRR+Z+cGTQBydOHNfrkesa+Zn4/T5jYDZt2qRtb4fceuutpnwxuOgLnO65ytcxbhg9dBPth/ygE3BEUukFo+2jC3CwNmzYIHfccYdxNqln8pKOI5wKjvPLvZK4N/Q8MowuJODBscbYZwLkm/tGNxAM8EharZE/ZePzlxrHLxXdsFAo+df/+l//7/HnBQnGDq+PrTk//vjj+NXEWLJsuWzYuEWWL1sitTXVJnrAgOK1v/LKK/Lss8/KCy+8YL4XZYUCS7SLaDqO0aaBEsU6XX8YetJsQwh8hkbLe3E4fv7zn8tPfvIT07Bp5HixNALelwpEy+SFhkNeiBIwhHjz8ymaTDAwMKj3ddUYxl/84glTxihR8oKhpJySVZ6JguKmHtvbO4yDQV1z/zhcjKeGw+Xm3lO5fb4bpUSUl2r+kS9khUgLJUOPUCq9LRMTUzI6Nm5k5403XjfGD9lO1Qm55ZZbTFTPI129czmowG8gmyjkw4cPGzmjTpOhrq7eGB8i7Pr6BjU2iVdITL6umLbiDAMlQmlpqTFwpNVr1mpUq/eo7Qsdg5Fh61+cOpwY6pn74jXuN9l26OiEvr5+I39OjxDfRT6INucqY9oJPSb/+I//aNrO+++/bz7PfaIzUtEJ/C6/zz3RLvgNdAK9fkT3uY5uY8FAt9bhYS3v5+Tpp5+Wl156UfXEflMXTtmnoo9ng/vnfvle5PboURy5k8bBK/H4pLpOZVDfl4wcLjQWhbFftnSJlKnB7e3tNl77yy+/bLplUZA0arxHjGOqguU0bAQHpUd+SfyNYcHY07CdLrPIWFT6tOEdPX5K9r37vrz26sumS5K80UXJPfN9qRp6QCngMHBvNHKe830YFgw++cmkN09WKUMiD6IQyveVV142xgiPHYVHHigT7i1b0Ki5d+qBsqQenDIdjYxJkTZmlG1p3JNPFMqL1KPKe3h4RPp6e0x5JltHyBh5RCZwvlpblxi58HiSM/gDg0Nyta1dXnzhOY3s95reEso2WcgDkc799z8g991/nzrGy0zvz3yQ/3SNPU7OUv2tG2+8yTzPqbFfu8ZE2czu7urqlIMHD6rD9IYam5eMnkFeHVnlXlNph3yGukbucMLoyaIdkoA6Z/JYcRFtMPZe7gNDTNshL+SJvHCPGCoczFTyAny/0y5oE7RH2kNxiU+NnVeCodiE0ZIsRviUJW2f3lOcjbfeetvcKz1T6D6M/HQ9kao+ng3Kje90dCL10dnZoeU6bNpzRB3nsTE1/CqH1E0qDnihsyiM/RJVqCWqTI8f/Vh+9tOfyl/91V+ZRkSlZ8PwoAgRaJQI+aerDANLNyL09g/KmQuX5SdPPCuPP/GkvP7qi6q8LpvGkA1QFBhhlDP5oWvRcUAyBctjOjo65Q01PD/+8Y/l29/+liljDG0mG20y0MBRcDRsjNIVLYMhNZIMt9RqZInhT9TEEPkw47+qrknrNyrHjx0x95Wq/PDZQCBootuQKlp6gJKh7eoV+fjQAfn5zx83UWAqhh4Yw2T+wD333ic7dtwkwWDguuPnmTD2DGcsUSfjxhtvzLmxX6eGft26tSqb3Sb/P/rRj0wvH0NofFeqBnUuKC/qhzxj0DD+gWBQ1q3fIF7VS1OsUtHXCTyI5B9//HETkNB2KOdM4+SnvbNLDh49LqXBMq2PBqkoC5t5DNmCtkJAgGGn1++73/2O6WHFwaHceT3TZT8XDIGRF3r+Tp08IUePHJapCZzwkOlxo+fFbbje2K9fv0krMSqnTx6TJ1QxMsmKbnIEK1vGFYF1FCJKbGwsYroqmRTC9QPqBDz33LPylhrGk2o0BnpjqwyyBfnh+x3FwVgiig/ng56HdCJ82uaE3tPJ0+fkrXf2yS+e+LkZR0UJ57LxzoVTF86YLI4PXcgVFeVmlm6iHrwpJ31vUA10cdGUOgl0/w6ZbtpU5CgmGywbjE0ewiHkb35nPrgPjMWHH35kuj9RnERDyYLzwvjt7t27jbFft36d1Dp5iL9nLhzZXojGnnFbHKyamlqNnN+Up59+ynSTM4yHbKRSl4mAHOLgUX/otEBpQFasWKb14Dft5NChg2YSMt3ZRL3cU7byAk5+RkaGJWSWrPqkob5WQsxryWAQAKiA6MSUXNG6+vCDD4xDw70y1wK5IR/50BP8pqMXyUdfX69G/n3qfLOMt9QERG7CtcYepdXY3KwKZbl0dlyRAx99YMbj8CJzCYae/C9TxwOPEW+S6PeJx39qehp6utpV6LLXqKeDUCPcJAw9EW6sCzn1xo2hZ+x437sfyEsvvyIvqBPDpLFCBFnCUGLoK/X+Ga/k3hN1dnAMwhqFoxhRBCwHwtBFo2NJKWaUDD0OfI46wfAlUhd8DoNENIKheuqpp4yx47uShQlLGFomat11110mD/x+IiZ3IRt7IntmaFOWzz77jDGu9HpRrrkAw0Z+cbaQv0AwYLrTX37pJY3mXzJd2k5Xf7Yxk5UjoypYE1rvk0YG0QvBIJN442/KANxzd2+/HFb9/eILz6uhf8XM4UlFbrMB+pD6b29n1VC3yklsVRNymW4wVEi40thTOXTDBDRFx0bk9IkT6i3HJn1QsbmEHfDo9m1qajLCzXj266+/YYQ9m5HEXPB7AwP9ZqyWSWI8ovhTZUTvqadvUF565VUz7+Dq5QvGwSlUUPLIFI/ODP1k7x/5wth3dcWWZLHqAOOXLMgiwz04gRggHufrzuc3iOLfeustU9Z0O9NbkYoMkX8MPatGmJWMIbxer4LDQjX2ODOUM+2OCVrM2WGuQzpj4amCU0cZGhno6JDHH/+Z0Q0EA7kGGSIhe2XlFWafAEQhUXm4Hjgvb2qA87w6VwyXsKSuUAz9dJyufQJCZBydTbtIRz8WEq409ghpSUmx8SiHVNAYD2fclorMdaNGaMgHnjyKnXtwZvqmoqTTBW+eCSl0G2PsUbp4sal6r2z2cVCV7isamRzY/5EMDvTJpN5voUL9Iwcofow9G/JU11QjNAmP3xPhoxhRWHwX47CpRIYoeuQb2SA/1Ad1gSGYTdEyhovsoDBxFolIU5EhjCvL/x544AGzRNNZfpUoC9XYU6Yk5uqg0J0VOLnWCUAZIjP8PvlAv6Gj8gHODgkZqKyulpWr15qJeslOGp0NZNQZo3/zTSYcspQxvZ0oswVygFzTzoB2yGRV2iTtc6FH+O7on5gBDYm1sRhXFDECxyxMjG4+4HcR+BdffMHMsCWayBf0NNDYUCzpLueBS5cuyMvPPyMfH/xQOq5olFTAUT1wnxhYDBSOV5tGyuzul8z9owTw9tm7YNeuXUYZpAMGky55NnXq6Zl7ghjyzHuQIYx+qqxbt04++9nPmqieCXrJGPqFDHJOuRFBx8o6ptTzAc4RE1jpumcogbrNJzityOHHR47J5fYuGcmQQaasmbDLPeKc5UsHJwtywsTNd955x+hrnICFjqsn6MF8ShyFTVcNG+Gwa9jOnTuNAnQ2oeEar6PMiQhwIvCAU4HPmsMcxueejIL3yDIoNoEh4iGxKQx5IQJjFj1REF1LNM5U8wKOp8pkJdZV853JeK5RjUq7+wbM2PGP/+FHJjohT8kQ85yDZqwQAzTznqcnZ1dCol8mOmKgKFNSMobagfvFa29paZbm5hbxal6SMXrIg1Ne3DcOFA5EKnAPfFdtbZ3eW2xzpul1QT3TDn7605/Kz372MzOxKZXoiK57dhZkmR0bP9GzkewqACC/CzGyB2TFSbOBXCBftMHt27df0wc7duwwj1zHQWL4C3mh7imPVCAPfJYenrmMIHVG+TDXYNu2bWZCJWXmtAk2haFNQDLlMBvko6W5WbZs2SSV5WUSvs4SzPkgL2wIRC8UywhTnVsyG+ht2gi6mXunfJxEmdJW0oXvIb+UCe2P1VTIBmmh4npjPxsoahorym7Lli2mUWNgaEg0aowqCQOEAGHsHeOCANAw51IWc8Fn51MKzoQ5GjQKhs1NaNDkjbwwi5j80OWKwKHsUbipdomRfyYGbty4SX93ibnHZIz98MionD4b25zoFz//WVL5cAwlDYh73rp19nuenrh36otJTRgKnBUaIl2hPCYLXeeBQKkq7qWybOkyVSDJn2fA+0nUB3JKBOAo72RwZIPvQi5R7MgbCTFjxv/58+fMjnF0hyarNClv8kjZ7dhxgzzwwP1y++23p6y4yOtCNfZzgTzQBjAgrMFHF9Brg1ziaKMnkEPmN7ALXhnGXh1E7pv6TkUGgXHi2fQCjjD5wbFgyAW9RF7IFzqCa7QJVlRg8Ph9yoHvSkU/8X6MWpN+17o1q82+/rTPZOF7yAu9qUTFGHr22kg1MkZPMP8KpwcnzNEZjqNDoEYQ4CTaEPePQ0D7SaUsgM/RzihT8k4Zo6P5fdoTaaGxKI09DRujwizkBx980GwPSmMiykUhUrEkntOYaHAoAQQJAWCcLVmFez1QLF/60pfknnvuMQ2axozwOvnh9zF2zv7WXKNhp9qdSyNC2XPfK1YsN0KcjLHv7ekxm7nse/stOZFkHmiEGFoU6N13323GjqmDmfc8PXGN+0bZouSYaEV9MPaayuxlIlomxK1bt95s3YoyQS6SxePxSpU6YJ4Sj6kPlEMq3cMoF8aSUfLUMcqKJUATqqjocv7FE08YpYlxSxa+k/Kj5+rLX37UlHsqitzBjcYeGSMvbGF83333yWc+8xljVGn7tDsnisTQLMfALF8h1bX1MjY6ck1HZRKcPuorpqMekt233Cpb1OlYvgwd1WTyQ50iKzgnGEJkmuHKdIYsHYNGO+Q3ksVpA0T1rCxAdlNZGuqAjqLcCQCoE/QkuoJ6or7QXzhjTkJHOA4Ay1oZHqEsyFcq4Lhg2HG8KGPygv5KRlcWCovO2GMkMBYYVaIbFB8NmIgZBYtwOcnMTtVKJtEAEBoiSWdiTyYgP3jsKBgMH1EdjYzfm54f8sLfTl6cZXwoXEf5JgvGcvPmLUahJTNJiwgAz/35556VAwf2J919jSLDaN9++x1aD/eaiInudK7PrIPp949B5v5RSLyX/JMP6gI5SQY+S8SAoSdC4PtS2UiD88vJG6aK8mMuBPJKGSWjYIg+6B0hX5QBu6uFNU9X2zrMpjk/f/xnZsldKhMBuS/knJ6TO+64wxjXVBwbBzcZe8oGg0k+0An08BE10iZoY9QF9evIIX8jh+GyCgnqdXZcYzknvTrUYSpR5Exo/9QXOgHHn+dcw9iw011gWptgKMppN7SNSJSdPAlIBsxE2WTzY+5NE443ZZAM/FRE5YJhJlY6sDEQ5ZJs2wQMLDoJPcG5AiTkl2EU2qsTmCE76FAn8RmGJTHK1TV1UlFdY9oVKx5SAZ1PQt75fhwJ2g7tdKGx8NyTNEGA7733XhNNIjx47dfbHpRGhNChBOhOpzFkCoT2t37rt+SRRx4xvQ0IqTEec3QTIWQoIRSA49WiBJIFj5VZ+USTKMtkDBONB4PGBCOMbbKQ35tv3iV33HmX7LntdmnSSAWlm0jXmDM5jgbvdGvSAJOFnhm8fu49nXFXsozCJ9oiEsNxwXikqgyME/X883L4yDG5dLVDDhw6LPvefc8Y/FQjJPKC/KLAka/ryftigrZGu2NjIdogRoXePK7PBXJaHgrIimWtJvLGYUYnZMoAOMEIkyiJZJuaGs3+DsjZXC2ESPZOzct9D3xebr6VA5bKTVtJFgwz+0ekYqDZRTMSUSfw1GmzWoQdRFNdYUAZ046oj6985avyxS9+0TiqOGPoYJwf9CC6eXqiHKhPIv8vfflR+R//p/9Fbrx5d0K6ZS7QESx35Z64n0z36uaKRWPsMRCrVq1UIdgjDz/8sDEQeMfJCAEeIwoTQ4sgpiNAGDcM1X333S8bN21Rr7Eu/kri4NmiFHhMBbx+IlCEd3xi0jTWRMBRQLHhaND4UE6UJ44TEdtczhBdX0TlbFXKBLFNmzZqNJz6+Fd5RaXsvOU2WbthU/xK4nAPRKM0ZBLlkA4YBwwpDhhdjshWKtBLQcT8zFO/kO/89X+XXzz+Uzl8cH/81eTBmbzzzjtVUd6pcrYprYjebRAFYjgwKMiy01uUKLRhIsuaGo24Vb8k2jM2F/w+Tuydd31G7tWoHoOWTH48+vtLWxpk1fKlmq8Gk6dkwemNRlPbXZRNotiBjj1NGF6jjaUC9cIQype//GU19F8x+oKySRT0Ce2vorxMWutr5Gtffcyc5ojDmw70rL322mtpDUvkk0Vj7PH6YpPfdhnPD6OE55uMoaH73Bk3xvCnaqRQuHzXjh03Gs996bKlJn/JQoRMb4PTLZtsfpyuY5bZsBNegrbe/A75xdAT2ZAwKHjT3A95YjiCcqK8GCahvGLdYMtN9HvTTTeamb/sw56qy4QyW79ho37/kviVxKFrjns3B2GMpH/oBuWPI4MziMGnB4m/k4U8oUze3feOPPvMU/LWG3vl7JnTSXfHIts4XYznEhFtVdnnfP9Uoj23QruhWxjn3Ynmkykf3ksEjXFCtjH+6cD34CgypLBJA4Dy8oqk8oOzUVdbLa3NTdKg95aKsXfaRSrtIaKf6+rsNM4qW5In+x3oFdoR+oJxeXQKvXdOb2ei8D2UG0cYV1WUya237JbHHntMg6tbTORPPaUy5s49vfHmm3Lp8hUZHcv9RkzpsmiMPQ37s5990HjwqWK8RVXgdB+l0xXK5zGGsX26l5ntVzmUJVkQWBoHXi/5SlaR470zmWegf0CmJhMXXIwIxgzj/tWvflX+6I/+SP74j//YpD/4gz8wZ7X/s3/2z+R3f/d35Wtf+5o5OhWHgIbLGP3OnTdrvtM/aMJTUiyV4VIJBdIYfy4qNond7tOF+qBccHgYJsLQpgq9DYx30q3PmHCyoOjJC44tirO+vi6pcfHFAJEzzhk9UjivqTrvGHq+J5noczbIB3KzXJ1/02WfZHbIP0axsrJi3h62+WBsGtlLZQ4Qckr0i7FnTkWyxp5eDIIgdDTd9shvJkBHUra//du/JY8++pjRv1xLFuaHMBfh5Jlz0tnTb3pDFxKuN/Y0AAQoNmt1vdSp0U8VlDkGFaFM1rBOB8OMh8k4Lzu40f2WiprxeH1SGiqT0kBQhdebkrKiq218gu62xI09945SodHgdRO9042PA0OUxNg1XjmzZ+mOfECdrIce+pymh8w1Ivt0oyCgPvzqNISCsUlKyXR5Tidm6FNT9NNxlC2RCZM/idAYYkkmKnFgWIEIywyxpNAdWqlytfvW2+WGHTcapckBJ+nfobvAICK3qTjK08Fp2L79BtMeUoHfRkchK/SGkZ8UmrKB7yIQ4d5SieyJVpG3VKJWDD3L7TD0yG2y3xHUfG+7YYfsuPEm4yin6zw5OO2SIRIcCfRPKvOcuKe+3j5z9kfblUsykeIwRb5YFMaeLmSWyzSoYQqH09vtLBMQRTjj22wqk4qRBox9uFy9VDWcRRqdpvo9mcLxzDEuGH26JHfv2i1333OPPKiG/gtf+ILpDaDRpWqYP4nerxr80rjjkQkHIhOgrOnF2LnzJlm/fp0qrdzKHN25DQ2Ncufd98rW7TcaxZZKJONWaCc4irQ/HNVU51c4NDU1G8cuFQMCtAV0FMY+neEA574wbHxPLidiYtg5rY/T7FKdlFdRUSm799wuO3bebPKfbr1MhzZBeSxdGlt5keowLNuNX710QS5fYE5CevN8cs2iMPY0ajaLoLv8emd1JwINipQqNGaMIp43z1M10iX6sVJvkZSFY5FtuhOEsoLmkS5J1rzS2DJj5GNwoA9j2wf27zerCoiECwHqAUXFhkXs49DYmPx65VQhsiNy2b17l9kcpaYq+XkDboe6YVgPhc84ebqOEMvhauvqxZ+icaLOcFZJGOp0ehnygTPOz1wTtuBOZSY/0DvZVFcr1eosZxp0LPWOQ8b8DOqeYY5kdSb3ytJrhthSnYCYLxaFsacR4SnGurrjL6QI34ehT9VAA0KHcXYadqrfxcc8GFJ1GPjOdByQbMGd4WCxHS2OTaJ5pAeQOQU0KNaWs1ENY2YoEzbq4MQ3Nu14/jnOdP/IzGIvlMZHfeLUMFRzyy23momhPM92HSFPGDEmTt6ye7csaY0t2bJ8EuSQckIn0A7TNa7MPwmXlZmNlVIBmSAfJPJWkE77PDC+T/t09phIZbyf+li9apUsXdIq1VlwUGmT1DO9qgy7OD0fyZY1Oon7ZG8JluymMpExX7je2AOVStdqoRhDGjQNO1NRLoKcjvNRaDDSx+E0Y9Fx06AYA2RDJda6Pvnkk/Ld735X/uN//I/yjW98Q77//e+bwzYKEWSOIQuWGbKOG6czm1EbPVhMyGO+BPMmwsGgyrx75CJT4HRRVvSuFYKTzO/Ty5eu858viOqJdJnYlyo4qMzpWbt2jerG7PVG0YtDvZMw/Mm2R4YrCD64VyY3L6Q196439jQcjCupUBoRjRuPMlP54WsWkn7AO6aRsM6diIDuP5QFJxSyK9q+d96RJ574uXz/7/5Ovv3tb8u3vvUt+c53vmNOocLYszMXW8eyJScediq7yuUC6hhHk1UXGN/t27eZ7sNMgwKjO5oZ4ax6YDlZbW1NVh2LhQzlQhcu5UZbzLdeQE4wPhWamIdTvMAie9oybTidXUVxjGkbOD2ZOFp3LnCompqbpXXJEhPhJzuEg7F3dBcGv1CGDhNhUUT2GPpC6eZGsThpsUADobvL2cDH8Ywx1Gy+gdEmOt+3b5/pmuekrO999zvy3/7bf5U///M/l7/8y780xp4T3zD0dOEz8zefxxYnCoqcyZjMAmaPByYvZjp6Q7ZZbUJUz5p6Z8hgMclYMlAnlE+hOEPkwxj7ikrx+UulpHhhGXvaNe2ZXrhkQUbRyxhdx/nKJgF1JhobOVMgdgZHKsYeA4+xZ55QqvMT8sGiiOzpMmdiBo08n5SUcPhMrJcBIct3fnIB4+h4/Iy3Y9TZcnLv3r0mQn/88cdNtI4x/8//+T+rcf9vJpLHqGPQcQTY0nYhec8zQf6ob6IIdmrDIDMDnIg/UzA8gJFnBQDORCpLriz5Az1ATwMrczxp7CiZL+ipY5w+FceboUy600nIbbaNPWXLrp3M38LhS1YHY+wx9Izbp9ubkWsWRWRPpZLyHdnHPFiMfW682HwxOjYuPX1DcvHyFXMqHwae8XaOw33mmWdM4qjWF1980Vzbu/c1efPNN03XPO89cuSIGadnkw56AdLdyjbfoFDopqR7HWPPhD3+ThcUF4aeeQFsvcxwAd+bbLRiyS+OQ+hTw2d2lFxgHTIYeRzyVNopsorMMk6fyuz4ZKFoKWP2Nkmlh83pxsfIo594vlBYFMa+UGAtPALm9cZOTVpoHnyi9A0Oy4nzbfLW2++ZCP4HP/iBfO973zMT64jcf/jDH8oLL7xgDndh4l1nZ5eJDGhIbgVlzrg63fmMqzMbOF2QHww9ET1OBMMFFkuuofeO7uxUDB96kCGMqqrYhLmF0ttJb0aqDk6+WBTGHkNSKMYEBe0kN4HQ0+XOuPvPfvyP8t//4s/khz/4OxPFY9Q5CtXplmesnYidMT4UBJGBmw09UN8oMjZg2bQ5thc7Bj/d3p2JiXGjbN1efpbCBuOXigzSJnCECYI4LjoWey8MFlqbc7WxdxQsglhICtFNBj82Xhc162uPHz9mIvYf/4NG8n/7X+XJJx433fNE7xwiQbdXpjxhjCRRAcMzmVrCmAvY7a9GjTynkhHRpGPskefYRKFOs6phIU0Wyie0u5hxsR2b+cZpxzFDb8kmrpZ2xoPoGkKpsk1uoTTuXwr4wi9+InQOayGC//a3v2Mm3WHcsw31yqQ3xqkXUvc1J9i99sorcvDggZQOC5kOxv7Klata3kfMkkUmQVquD3qBuQ44ihbLYsH1xp5JH6WlAfOcMfN84hh5v78wJgymAxE9kSRL4N588w155ZWXzbI5JuSxJCUTEH0xa52xbpaWMcGNyW1swMGENA6b4WAdrhe688RwBUMYrDJ44YXn5cyZM8ZRSre3iYlC7FHAASQMlVD2C2nSUD5AVnAW6T4uBOhpQHYXqj4g//SgppJ/5J9eV4ajYo7vwugaX4i9QwvX2iQAApjtTRqSAcFgU4fYbllBk7+FCt3xdB3v379ffvzjf5S33nrbjMln0tDgEDGuvXr1KmPg2Wf+K1/5ivzmb/6m/MZv/IZ8/etfl0cffdQcbBEIJL+MJpdglHGEWHbIPgLsMZApqAdWNTBkwmEkC2k5UD5ASWPsCQAKgYU+rEC+caBSaX8YeGdOVTS6cCbpcs/oJ+ptoeBqYw80JP039keeIS/TU6HkKxUwKCyVw8AcPHjIRJTpTLRjL4R169aZteicf48x/73f+z1zJv7Xv/5P5Mtq1D/72QflM3ffbc5nZ/b5unXrpXXJUqk029AWZmRPDwgTEonkX3vtNWPwmcXL9UyBomTdL44XSxr5DeZHZPI33MYv22BhUGj5SQYnqEqlp2RsLGJ0h7P1bKHLLHXEGn2cm4VWX6439pbMQ6MkMmXtPAafbuRkokkaCYaZLnoi95aWVtMVjxFnD/lHHnlEvva1r5lEJP/www/LvffcIzfv2i1bt24z4/ScQ97Y1Gh2HaOXpBAjI/ye8YlJaWvvlI+PHJM31DFi2CPT0A3KRD02LSLCZ85Euxr/aHRhncplWZhg7OmxxAAmC7qkt7fHGPtcHCxDMIJDQZshpeJc4NQ4zo2N7C2uhpn1jD0zTswpdMnidIFhtDHsf/iHfyh//Md/LL//+78vjz32mBmHZz06O81xGhYTLIPqGPi8JZ84onhKG2pUI4OJAj1XenxySgaHx+T9w8fltXc+NBPpMjWfYTaI5p1NjI4eOSIjpgdhYXSLWhYn4+MTxsgz/4eU7W58nAl+h6Ev2mKyq4MIVAgumEfU2tqakc2xcoU19paEoR1O6j9Xr7bJiRMnzCx8PPJkYSb0zTfvlHvvvceMw99zz93mKFjOYWf9ObPseQ/jqkQMeNAckYuTMLPnbHJyomC7/vq0bE6eOSPvvrNPPnr/vaxv/RuLknqNI0avy4mTJ6VH/7ZYsgkRPQ55KqsbYhP0JoyjyvLdbEf3tD+MPD2TDH0R3ScDxh59hG6qra3L6LbX2cYae0vCTOl/4xNT0qFG69KlSylPxmOp3KOPPmbSAw88YLrw2UGrEMfc04GlcB988L688/qLcuTAuzIWyf4e/0QqsRn/L8i+t9+SSxcvxF+xWLIDDjmrZXDQUwVjT3sheGAOSrbAmUB30TvJ3vap/JYzbFFRUZ6Sg5MvrLG3JExkNCI93V3SoY0ELzxZr5jZz9u3bzfd9Myux+jTcGIRe+qTXTBwzBnI1IY96RKJxCbMvfPWm/KPP/i+nDt7Jqe9D/wWiowTAj/44EPzPJs9CpbFDe2auTeMY6fK0aNHzWRf5rRkczXJqLbNrp4+6e6NnUefrA5DVzkHqxHVpzJPIV9YY29JGJbGDA70qxceayjJdrfRMJyz3VetWmW6/tIBo4aBx5AxDpdsw80G5GloaFBOnjwl77/3rryx91XpVMOfa+jOf++99+Sjjz7UvJw0E/gKdbjDsrBxuvGd5Yyp9NARabNPBKtWCCSygWmbqifaOrukp6dXdcaQXktOh3FvdXV1Zi4Rzk0qyw3zhTX2lqTBqKayJpaGwsQWUiYaCYae8TcMWSFAedAtSDfhq6++YmbH5wvKhklI7Kz36quvXRt2yfYEKMvig7ZMdzYGv6amOuX9C+hiZ58I5gJlGgw9QUFfT7dcOndGerqYP8NSv+TaA/fKkAVHSS+kmfhgjb0lYTAURPOsjY01lOQiRWdyCymdbnsHjBeRQKFsE0v5EKEcOHDATJBjk6FkQZkwHkgPCDsEsp8As36ThbrB8WC1BDsckqeLavDH1Amw9t6SSWjLyC2rZ3bt2mW6uFOB7nt6o9i3g8g71TlBs0GAQo8BvVzvvbvP6AzaSLLOL/e5dPkKWbFqtXB66ULCGntLUjBzFkOPl5yssc80bDfLWB/r/AsBFArRPGOPKC2i6WQhKmJMkD0Hfu3Xfk0eeugh2bhxY8rOEXlgiSSnER4/xoY+Y2ZFhcWSadgUi42vGhoa4leSg0l6tJ19+94xckuknylwfOkxOHjwoNncKpW2SRskml++YrUa+7XiTbEHI19YY2/JGXjRdC+T0u1OHo6My5WObnnv/Q/k9OnT8av5A0VFFE23OWvdU41KUJScd3/bbbeZc+rZCpjliMFgQBVNakMf5OX999+XN996Uy5dvChDWZwAZVm8BMPlUtPQInX1DcZhTWXsHtgU6i//8i/NfhHMxUk3qGDJK7tLfv/735cXX3wx5bk9a9askc9//vOybGmL+DzseBh/YYFgjb0lKZwuOzzcZKNNGq2zmQWediqNGB9hYnJKOrr75fS5ixpJH5e2tvx14ztDG8y+x9CTMPrJLumhLBneoMv+jjvuMAf+rF692nTnE9lv2LBRKitTW9qEcmMsdD+b7Rw9YvJKntN1uCyW6YTCYWloapJly5dLY2NjysaeGfnPPPO06ZHCccZY04uXqMzyHmSengGccCb+vfTSS8bQ0z6T1Tu0TSYh4nTfcced0tzYIJ5iNfbx1xcK1thbEiYm9B4pLfWblGxjHh+PmsZ7+PAhM36WSvTLrnQj0Sk5fvK0fLhfv0edB87TzxcoDoY06F1gqZvZqra9PenoAeeJdcpED3ThNzc3GwXDBkOcF/A7v/M7Zj+CVCCPREgoUSYOUgfZ3rzEsvgIBwOypKlRdmzfbpzUVJelIZu0Ic55+NGPfnRtSCzRFTcYe+c7GOb72c9+Jt/61rfMfJpUoG2yzI5tvbmv8vKFs2vedKyxtyRFzOD74ktskvNtGe/H4NClhtfO5LpEjQ7vYdb9yZMn5KXnnpWXnn9a3n/nDRno681rhMqkIu6HCXmMizMuSFSfbJ5YxrPz5t2yc9ctxsDzN86UE+1j8OnSX7t2rZnAlyyUH8qPcn/rrTdNF2kqux9aLHPBMFM4HJRVa9fJhi3bpWXFGglXJN8bhXNKG2IyHadEPvnkkxrpP6OO6qtmOIp5McgyUTsOAAlZpscKZ5ujtjkj4qmnnpK///u/N/MAaJep7jXBlrgMqdHbhsFPpf0VAtbYWxIGQ+90afl8nHCVnLHH4Fy5ckUNzX6zwxuTZaZvkYmBnJlo+Izx043HDNr3390nP/j778qzv/iJfLjvDTW2+Vt2R97oYkQJkZjxzvr2ZGFYpKKySu646x7Zfettpjt0+rIelA2Tn3bt3m0MfqrjoShHHBMmKJFfFCb3YLFkAs6t8GsQsHT5Slm3ebus2bhDqmob468mB20f+UReicyJ8HnkeOi3335bjh8/oZH6JfMeEpE/W3hj6H/605/KT37yE/nBD34gf/M3f2PaZarQNhmSuPfee+WmnTulprZW/KXJn+5XCFhjb0kYDFBYDRHGB4Mz3SAlAwYeb5sGzESc559/Xo4cOWIid8dTJzG+z/I1DNN3v/td+cY3viF//dd/bbr1Ll++YoYB8mmsiBZQRkQfKJpUYYOh22+/TTZtWi+N9bWfOOxnOmvXb5Q9d9wlGzduMjuWpQrj94xhfvDBB6ZrM5GeFYslEUpKiqWmslzWrWiVW2/aJEua6uKvpAayiaNPLyA64xe/+IX87d/+reqC/yB/+qd/Yg7QIv3Jn/yJ/Pt//++NnkC2cQiQ83RkG0PPfBkmy7LzZ3NTk15buEcRW2NvSRgierqX2RQHY5PqmJzTeGmQTz/9tElMnsFovvHGG9cSRh5HgC48uvLoluMzLLUjSmX8jgggHTg1b0idjMjYaMKKYVzfNzwakVOnT5vucLoVifCThaEQHCfGAW+95RZZsWyplJeF51QmrS0tsnXbdqN42NgjVcgrE/XYQ5+8MxSR7BwDi2U2cFTDwVJpbWqQnTdslS2bNsrSpUtT7vrGmcepJ0BAZzDBjqEoegbRB0888YRJ6AeuEQgwJ4VJskwETjUYIL/slEdPGkNoOOTm/A69v4Vp6q2xtyQBni7Gnq0iGVdOdacsBww2ETGN9b/8l/8i//bf/lv5N//m31xL/E00z7gb5+ZnY4y5t6dbLl84J/29vQmPtY9GotLR0y8HDx42kT3OSyrQS7J27RpzAmBsM5KqeedBhEMBWdbChL1bTLd+OrBXApH9e++9a4ZH6EmxWDIFK0e2b79B7rnnHrn//vuN4VxIENDgVN95551yizri/J1qcFMoWGNvSRgiTsaKMfQYG7aMTGd/eyJpJs0wzk2XOBNyMP5OYoY71/HqiT6z0d08oA7E1atXri3tmQ/cALbXJGI4fGC/GvpYVJ/sxB/Kke1FnYl3mzdvMYcCBfTafFFDiZZ9OBwyS/KYLMTueqnuVoZjQ6REzwSTnujO55odw7dkAmfIb+OmTXLPvffJ7t27ZcWKFSnNNcklBDDsdUHb+uxnP2u68R1Dv1C77x2ssbckDY1h/YYNsmnTZmOkMgHdyBh0xu2dlIgRRXlgOOkOp+sNJZNMo6S3gMg2IWOvhj4SjcqVy5fk/X1vygE19swpSHYJIXnm0BC2F73tttvNkjqcpkQiB2d2Psae0wMp/1QUKOXNZMnDh2Ozl3GsEikDiyURaIIlxUVGxm/dc5vcdddnjMwi94UaIaM7mIvE8lecE47fZm09eqXQnZREsMbekjR4v01NzXLfQ5+XHTt3x6/mHoYVWP/KKXr//J//c7MZDcYvGWXCSgB6Dkg4GPN142PUL2sEzBn1zzzzbEpbbgL5Yxxzg0YN69Zv1Oi8Jv7K9XGcG6J7RxlRBpRFKrS1tZllSozfE92nujzJYpkNxrjLwkFjPD/3uc+Z7Z9xAAoRnGi67B999FGjSxh6WEjn1V8Pa+wtSYNhqagoN2NaNA7GmzGyNIxcecB44HQLMlOWMUHS5s2bTQNNxtgzVk23PGt0ifLn6sami7u9vU2j4L3y+t69ZrMO5hwkC3mjF4Kyu3HHDnWaGiUYSvwccHotiEC4T+5369atZvIQEX8q0JtCdz57BBDhUw52sp4lUxDhl6psrlix3KxVx+DTZjdt2mSWtOGo5gvaEoELQ2FONH/33XebTa34m7yluuKoELHG3pISXm0E9dUVcsdtt8gf/dEfmYaCEUs1wkwWZ1vZf/kv/6XxxDH8zCVgF7pk8oCxx8A5m3TMFdkT9TM+/+1vf9vs7JXoZkAzYYIjjhFKhfF6xunnWmo3HzgNODyUO+XA+Gg6sPqBZUvMm+DeLJZMgVHFGaWN0hv1la98xbTZHersMtk3mWG3TIKeoD2yUdWDDz5o8sTe9zjPDDe4DVcbe6I0uiU5e52tWmNTrNIDY8D3prLki88QNWV6EhTbxUYiye/aBtfuJ/53opgIUxtLgzZWZzLLww8/bLz3TI3jTwfjxkQZolm6Ah977CvyhUceMRNo6jQPwVBYX69N2thz70S3LPNjWR8b+EyHImUv/iMayWMQ6bpnbJtyS6W8UXgYZ7rfY5vjpKboKH/uE0WFwWc8lEgpVTDwTIakS5+VDzg3M8tiJpRdqpP6cJRol6mfwEdbiqbUC0G9cW9unZ9AfaR6f7F6iaZUp/OBvNKGcUqZo8IsfYzrY489ZtozQ3F072e725w2g+OxbNnSaz0NX/jCI/LgQ58zE2VZUszrbhijn0nB35Gj1BACulWSSU53LoJLSkU5z4T8OII722/Ol7gHPse2ktyTfk1aOHkhOWO5s/3ubAmPlvd7PF79rOYl/p3JQuNl/JmT2r7whS+YiJUuOrrG+I3Yfab27dwT5VVWVi71DQ2yRg0b0fAXv/hFeUTT3XffKw0NjWYCjU8bKL9JpIARne2e50rALlskFN10OcGYDA2PyJGPY+vSeX2275grUQbkj+f0fOCsUFbO3veplg3wWXo46MpHca1atfpTv59Moo0wM5/EHIZEJh6SB5TjbN83X/L5VO6KivXzfEf8yxLEeT/ykexvUx+Ue6b0gQPlQJcv+eE3Zvvt2ZLTDjNlXMgH38Uj98n3J5Mf8p/sJNdkwSklqsfIf/nLX5YvfelLZrIpckyggMOeyYl8Tt2gqwgYWltbrk1wRWcR1e/Zc5ssWboko3VRaBSpR585ic8CjKMScbBzElEHnmeiXifjMQg6xgEjgZCluzYcJchGL0Q/nKaUaF4AgUPx33fffSYKZgY2f6cKyphuaNapE3UyqzzRCVaUI3vc33jzLtl9yy1y+549Eg6pcU4x0iQypBucGd7shsf6c8aBT5w4Ht8AJ/koA+VDw79hx02yees2WdraLMuXLZPlGh1j2Mu08aKTEGDu59DBQ2bdOHJCPSUa2VCHo6MjKiN7zJAE343SA8bzz547J08/9ZTW+T7Ti5JMnWNQKBvkEKeIbTdxiHBInN9IF3YaPHDgoOzd+5rZmChVkE/KfMuWLSaPTAKc7WxyHB56Q5A5Tidra2tPeg8E2iIR3qOPPmZ+J1HbQnky5PKxOl/PP/+cmW9AXScCn0Um2JAIfUDC+UoXen56evvk//w//o288fpe065xchOB/CBv6AOiW3pqUjW0+C5RdU5ZIfL2W5wLv89sQkO9JmrAMLAYvN///d83spotqAscafQXskSPGRNEyTubZvGcZaE8Txd0fmUl82RuMOVLVE8vwtKly0wkT1sMqtxT7tlzcfJPwRt7jBeKBOPBmCmNI1GPHAFHeHfsuNEoFCaVIfjpMDg4ZA5bYIemK1cuJ5wXQJhQAihTPFsaVTreK40Fg09EylhrzKgm1q1JORLRr9ByWblytaxZtVKND9FW6uLOd2LYUMYceINx5AhalHF3d4/WY5/JL++bC+oHI4jCpCFibLarsWe9bm11lVSr8S+vqNS8a/1Oyyv1cFkdDZTFUXU2kllGFjP2o6Zr/e577pGKaYYYY893so//xYsXtM4CCStyIF84EsFgSFqXLJXNmzamvSHOTCjTnp5elcvDae0D7kDvCBOUUIizbYbi1DN7IfB7KGscgGQgyqJumdzJ7yUK5ekEALRDdgMkL4nAZ2kfVVXVZlyWeyTKSxeGIgYHh+WnP/mxcW6TGUoiPziCWzXSXLlipZmwmU5UjeNBezt16qTZLvaSGs1kjD3vI+HsMUSWK9Bd1CuOKwEDRh5HBaOPbPE6r1Fe12vX5B/diuNaoboiGAwYXbJVAwbqvaWl2UT4jsOdaNksdAre2NNASSiURBv1dGg4papojWEtiXVvpQObqrDWekyNA0o8FWjcKLt08wKUjbMmneeJwnsRcn9p0Bzs4PdmpuuO78V40iDZLKdXIx4Oq2H2Oo2Xa/PVI2VDQ2S2Opv2EPWgPEOhsOaXIQuU0ez5HItOSGQsIqMjwzKZoKF3IN8MBQRDZeJlmCX+GxhSHAeUDPeVShnx3SUer5ZzQEr9PvFpWWcSvp9ElERe0wW5wFhRF7Sb2Zj+ezxPFsoRI0Q7SLa3jd9jroBTL8n8Pu/16u8Zufd5TV1nggmVjW51DGmHOPCJygn5KSnxqI7S/Kj8+TKQn4mJSdVRGgiofiKlIrMYwnR6HZOFcqB98UgZIluxnssRU8/0on700YfGDlD384Fc4UguX77COCwMn5WVl5nhQGMHtIyRccollbJZqBS8sXdIxKObCxpTsRr6dKLW6eDJT2qDmphIbYkSijTdHobppFU2ca8/U2UzHRolCc+8s7NLU4dpyOR3LigXjAzRHo2UxokxSKS8TL2oM2bqRZ8nS5ExcloeRgnErlGu8+U3UXBSSlAy8XHqbJCpvDpQ5vNFqOn+nmPwU4msMAz8djKG3mG2ek4X8uFMVkz2fiiHYvKjDmYm2iFFQn6on8nJ1PTC9eo+mzhy5QQN6A9WzLAnBM+5Nh+Ufyyqr9CIvk6dKJ9xwBi2zKQdWGgsGGNvsVgsFoslNRbHYIXFYrFYLIsYa+wtFovFYnE51thbLBaLxeJyrLG3WCwWi8XlWGNvsVgsFovLKZpKZe2KxWKxWCyWBYON7C0Wi8VicTUi/x+W14/u/PSlUAAAAABJRU5ErkJggg==;" vertex="1" parent="1">
          <mxGeometry x="513.15" y="276" width="33.69" height="20" as="geometry" />
        </mxCell>
        <mxCell id="9cRQzBxTq97ZNu037ttA-11" value="" style="verticalLabelPosition=bottom;html=1;verticalAlign=top;align=center;strokeColor=none;fillColor=#00BEF2;shape=mxgraph.azure.virtual_machine;" vertex="1" parent="1">
          <mxGeometry x="250" y="250" width="40" height="30" as="geometry" />
        </mxCell>
        <mxCell id="9cRQzBxTq97ZNu037ttA-12" value="" style="verticalLabelPosition=bottom;html=1;verticalAlign=top;align=center;strokeColor=none;fillColor=#00BEF2;shape=mxgraph.azure.virtual_machine;" vertex="1" parent="1">
          <mxGeometry x="310" y="250" width="40" height="30" as="geometry" />
        </mxCell>
        <mxCell id="9cRQzBxTq97ZNu037ttA-13" value="Controllers" style="text;html=1;strokeColor=none;fillColor=none;align=center;verticalAlign=middle;whiteSpace=wrap;rounded=0;" vertex="1" parent="1">
          <mxGeometry x="270" y="296" width="60" height="30" as="geometry" />
        </mxCell>
        <mxCell id="9cRQzBxTq97ZNu037ttA-14" value="Workers" style="text;html=1;strokeColor=none;fillColor=none;align=center;verticalAlign=middle;whiteSpace=wrap;rounded=0;" vertex="1" parent="1">
          <mxGeometry x="500" y="301" width="60" height="30" as="geometry" />
        </mxCell>
        <mxCell id="9cRQzBxTq97ZNu037ttA-15" value="OpenShift" style="text;html=1;strokeColor=none;fillColor=none;align=center;verticalAlign=middle;whiteSpace=wrap;rounded=0;" vertex="1" parent="1">
          <mxGeometry x="145" y="186" width="60" height="30" as="geometry" />
        </mxCell>
      </root>
    </mxGraphModel>
  </diagram>
</mxfile>
